<svg width="28" height="23" viewBox="0 0 28 23" fill="none" xmlns="http://www.w3.org/2000/svg">
<mask id="path-1-inside-1_2329_6866" fill="white">
<path fill-rule="evenodd" clip-rule="evenodd" d="M16.0995 23L15.5245 20.125C18.0956 20.0285 20.5455 19.0076 22.4245 17.25C22.399 17.2567 22.3264 17.2811 22.2125 17.3195C21.2457 17.6451 17.2973 18.975 13.7995 18.975C10.3017 18.975 6.35333 17.6451 5.38647 17.3195C5.27255 17.2811 5.20001 17.2567 5.1745 17.25C7.05346 19.0076 9.50341 20.0285 12.0745 20.125L11.4995 23C8.34288 22.8667 5.22332 22.2673 2.242 21.2215C1.56131 20.9696 0.977948 20.5085 0.575672 19.9043C0.173396 19.3002 -0.0271083 18.5841 0.00294637 17.8589C0.255793 12.9266 1.04886 8.03689 2.36792 3.2775C2.52467 2.70717 2.82542 2.18673 3.24128 1.76613C3.65714 1.34554 4.17416 1.03892 4.74267 0.875725C7.14415 0.299188 9.60478 0.00528592 12.0745 0C9.68953 0.547811 7.5013 1.74139 5.7495 3.45C5.77868 3.44237 5.861 3.41145 5.99006 3.36296L5.99008 3.36296C6.93162 3.00924 10.3609 1.72095 13.7995 1.725C16.565 1.83975 19.2917 2.41739 21.8662 3.4339C20.1096 1.72603 17.9147 0.537543 15.5245 0C17.9941 0.00453255 20.4548 0.297662 22.8563 0.873425C23.4248 1.03662 23.9419 1.34324 24.3577 1.76383C24.7736 2.18443 25.0743 2.70487 25.2311 3.2752C26.5503 8.03534 27.3434 12.9258 27.596 17.8589C27.6261 18.5841 27.4256 19.3002 27.0233 19.9043C26.621 20.5085 26.0377 20.9696 25.357 21.2215C22.3757 22.2673 19.2561 22.8667 16.0995 23ZM8.05078 14.9502C9.6386 14.9502 10.9258 13.663 10.9258 12.0752C10.9258 10.4874 9.6386 9.2002 8.05078 9.2002C6.46296 9.2002 5.17578 10.4874 5.17578 12.0752C5.17578 13.663 6.46296 14.9502 8.05078 14.9502ZM22.4258 12.0752C22.4258 13.663 21.1386 14.9502 19.5508 14.9502C17.963 14.9502 16.6758 13.663 16.6758 12.0752C16.6758 10.4874 17.963 9.2002 19.5508 9.2002C21.1386 9.2002 22.4258 10.4874 22.4258 12.0752Z"/>
</mask>
<path d="M15.5245 20.125L15.487 19.1257C15.1941 19.1367 14.9209 19.2756 14.7394 19.5056C14.5579 19.7357 14.4864 20.0338 14.5439 20.3211L15.5245 20.125ZM16.0995 23L15.1189 23.1961C15.2155 23.6792 15.6495 24.0199 16.1417 23.9991L16.0995 23ZM22.4245 17.25L23.1076 17.9803C23.4419 17.6676 23.5212 17.168 23.3002 16.7672C23.0793 16.3664 22.6145 16.1668 22.1717 16.2825L22.4245 17.25ZM22.2125 17.3195L22.5317 18.2672L22.5317 18.2672L22.2125 17.3195ZM5.38647 17.3195L5.06727 18.2672L5.06727 18.2672L5.38647 17.3195ZM5.1745 17.25L5.42732 16.2825C4.98453 16.1668 4.5197 16.3664 4.29875 16.7672C4.07781 17.168 4.15714 17.6676 4.49136 17.9803L5.1745 17.25ZM12.0745 20.125L13.0551 20.3211C13.1125 20.0338 13.0411 19.7357 12.8596 19.5056C12.6781 19.2756 12.4048 19.1367 12.112 19.1257L12.0745 20.125ZM11.4995 23L11.4573 23.9991C11.9495 24.0199 12.3835 23.6792 12.4801 23.1961L11.4995 23ZM2.242 21.2215L1.8949 22.1594C1.90024 22.1613 1.9056 22.1633 1.91098 22.1651L2.242 21.2215ZM0.575672 19.9043L1.40803 19.3501L0.575672 19.9043ZM0.00294637 17.8589L-0.99579 17.8077L-0.996196 17.8175L0.00294637 17.8589ZM2.36792 3.2775L3.3316 3.54458L3.33217 3.54252L2.36792 3.2775ZM4.74267 0.875725L4.50923 -0.0966457C4.49499 -0.093228 4.48083 -0.089498 4.46676 -0.0854585L4.74267 0.875725ZM12.0745 0L12.2984 0.974621C12.7945 0.86065 13.1259 0.392092 13.068 -0.113712C13.0101 -0.619516 12.5815 -1.00109 12.0724 -0.999998L12.0745 0ZM5.7495 3.45L5.05127 2.73412C4.72643 3.05096 4.65563 3.5468 4.87883 3.94188C5.10203 4.33696 5.56327 4.53223 6.0023 4.41752L5.7495 3.45ZM5.99006 3.36296L6.34176 4.29915L6.35251 4.29497L5.99006 3.36296ZM5.99008 3.36296L5.63838 2.42677L5.62763 2.43095L5.99008 3.36296ZM13.7995 1.725L13.841 0.72586C13.8275 0.725303 13.8141 0.725017 13.8007 0.725001L13.7995 1.725ZM21.8662 3.4339L21.4989 4.36402C21.9422 4.53905 22.4474 4.37693 22.7061 3.97664C22.9647 3.57636 22.905 3.04916 22.5633 2.71693L21.8662 3.4339ZM15.5245 0L15.5263 -0.999998C15.0164 -1.00093 14.5875 -0.618043 14.5307 -0.111291C14.474 0.395461 14.8076 0.863751 15.3051 0.975633L15.5245 0ZM22.8563 0.873425L23.1322 -0.0877584C23.1181 -0.0918267 23.1038 -0.0955811 23.0895 -0.0990187L22.8563 0.873425ZM24.3577 1.76383L23.6466 2.46692L23.6466 2.46693L24.3577 1.76383ZM25.2311 3.2752L24.2668 3.54022L24.2674 3.54227L25.2311 3.2752ZM27.596 17.8589L28.5952 17.8175L28.5947 17.8078L27.596 17.8589ZM27.0233 19.9043L26.191 19.3501L26.191 19.3501L27.0233 19.9043ZM25.357 21.2215L25.688 22.1651C25.6934 22.1633 25.6988 22.1613 25.7041 22.1594L25.357 21.2215ZM14.5439 20.3211L15.1189 23.1961L17.0801 22.8039L16.5051 19.9289L14.5439 20.3211ZM21.7414 16.5197C20.0382 18.1129 17.8175 19.0382 15.487 19.1257L15.562 21.1243C18.3737 21.0187 21.0529 19.9024 23.1076 17.9803L21.7414 16.5197ZM22.5317 18.2672C22.5899 18.2476 22.6331 18.233 22.6651 18.2225C22.681 18.2172 22.691 18.214 22.6967 18.2122C22.7062 18.2092 22.696 18.2126 22.6773 18.2175L22.1717 16.2825C22.1021 16.3007 21.9782 16.3432 21.8933 16.3718L22.5317 18.2672ZM13.7995 19.975C17.4836 19.975 21.579 18.588 22.5317 18.2672L21.8933 16.3718C20.9123 16.7022 17.1111 17.975 13.7995 17.975V19.975ZM5.06727 18.2672C6.01995 18.588 10.1154 19.975 13.7995 19.975V17.975C10.4879 17.975 6.6867 16.7022 5.70567 16.3718L5.06727 18.2672ZM4.92168 18.2175C4.90299 18.2126 4.89281 18.2092 4.90231 18.2122C4.90801 18.214 4.918 18.2172 4.93391 18.2225C4.9659 18.233 5.00912 18.2476 5.06727 18.2672L5.70568 16.3718C5.62081 16.3432 5.49686 16.3007 5.42732 16.2825L4.92168 18.2175ZM12.112 19.1257C9.78151 19.0382 7.56078 18.1129 5.85763 16.5197L4.49136 17.9803C6.54613 19.9024 9.22532 21.0187 12.037 21.1243L12.112 19.1257ZM12.4801 23.1961L13.0551 20.3211L11.0939 19.9289L10.5189 22.8039L12.4801 23.1961ZM1.91098 22.1651C4.98531 23.2436 8.20219 23.8616 11.4573 23.9991L11.5417 22.0009C8.48356 21.8717 5.46132 21.2911 2.57301 20.2779L1.91098 22.1651ZM-0.256685 20.4586C0.262739 21.2386 1.01598 21.8341 1.8949 22.1594L2.5891 20.2837C2.10663 20.1051 1.69316 19.7783 1.40803 19.3501L-0.256685 20.4586ZM-0.996196 17.8175C-1.035 18.7539 -0.77611 19.6785 -0.256685 20.4586L1.40803 19.3501C1.1229 18.9219 0.980786 18.4143 1.00209 17.9003L-0.996196 17.8175ZM1.40425 3.01042C0.0656568 7.84028 -0.739152 12.8024 -0.995742 17.8077L1.00163 17.9101C1.25074 13.0508 2.03206 8.23351 3.3316 3.54458L1.40425 3.01042ZM2.53018 1.06304C1.99378 1.60554 1.60586 2.27685 1.40368 3.01248L3.33217 3.54252C3.44348 3.1375 3.65705 2.76791 3.95238 2.46923L2.53018 1.06304ZM4.46676 -0.0854585C3.73346 0.125038 3.06659 0.520528 2.53018 1.06304L3.95238 2.46923C4.2477 2.17054 4.61485 1.9528 5.01858 1.83691L4.46676 -0.0854585ZM12.0724 -0.999998C9.52473 -0.994545 6.98647 -0.691371 4.50923 -0.0966457L4.97611 1.8481C7.30183 1.28975 9.68484 1.00512 12.0766 0.999998L12.0724 -0.999998ZM6.44772 4.16588C8.06815 2.58541 10.0923 1.48135 12.2984 0.974621L11.8506 -0.974621C9.28679 -0.385725 6.93446 0.897367 5.05127 2.73412L6.44772 4.16588ZM5.63839 2.42684C5.5721 2.45174 5.52426 2.46971 5.48917 2.48252C5.47174 2.48889 5.46212 2.49228 5.45786 2.49374C5.45588 2.49441 5.45768 2.49377 5.46217 2.49236C5.4655 2.49131 5.47828 2.48729 5.4967 2.48248L6.0023 4.41752C6.09746 4.39265 6.2558 4.33137 6.34174 4.29909L5.63839 2.42684ZM5.62763 2.43095L5.62762 2.43096L6.35251 4.29497L6.35252 4.29496L5.62763 2.43095ZM13.8007 0.725001C10.1604 0.720718 6.577 2.07423 5.6384 2.42684L6.34175 4.29908C7.28624 3.94426 10.5614 2.72119 13.7983 2.725L13.8007 0.725001ZM22.2334 2.50378C19.555 1.44621 16.7182 0.845243 13.841 0.72586L13.758 2.72414C16.4119 2.83425 19.0284 3.38857 21.4989 4.36402L22.2334 2.50378ZM15.3051 0.975633C17.5153 1.47268 19.5448 2.57165 21.1691 4.15087L22.5633 2.71693C20.6744 0.880414 18.3142 -0.397599 15.7439 -0.975633L15.3051 0.975633ZM23.0895 -0.0990187C20.6121 -0.692945 18.0739 -0.995323 15.5263 -0.999998L15.5227 0.999998C17.9144 1.00439 20.2974 1.28827 22.6232 1.84587L23.0895 -0.0990187ZM25.0688 1.06074C24.5324 0.518228 23.8655 0.122738 23.1322 -0.0877584L22.5804 1.83461C22.9841 1.9505 23.3513 2.16824 23.6466 2.46692L25.0688 1.06074ZM26.1953 3.01018C25.9931 2.27454 25.6052 1.60324 25.0688 1.06074L23.6466 2.46693C23.9419 2.76561 24.1555 3.1352 24.2668 3.54022L26.1953 3.01018ZM28.5947 17.8078C28.3383 12.8016 27.5335 7.83874 26.1947 3.00813L24.2674 3.54227C25.5671 8.23193 26.3484 13.05 26.5974 17.9101L28.5947 17.8078ZM27.8557 20.4586C28.3751 19.6785 28.634 18.7539 28.5952 17.8175L26.5969 17.9003C26.6182 18.4143 26.4761 18.9219 26.191 19.3501L27.8557 20.4586ZM25.7041 22.1594C26.583 21.8341 27.3363 21.2386 27.8557 20.4586L26.191 19.3501C25.9058 19.7783 25.4924 20.1051 25.0099 20.2837L25.7041 22.1594ZM16.1417 23.9991C19.3968 23.8616 22.6137 23.2436 25.688 22.1651L25.026 20.2779C22.1377 21.2911 19.1154 21.8717 16.0573 22.0009L16.1417 23.9991ZM9.92578 12.0752C9.92578 13.1107 9.08631 13.9502 8.05078 13.9502V15.9502C10.1909 15.9502 11.9258 14.2153 11.9258 12.0752H9.92578ZM8.05078 10.2002C9.08632 10.2002 9.92578 11.0397 9.92578 12.0752H11.9258C11.9258 9.93509 10.1909 8.2002 8.05078 8.2002V10.2002ZM6.17578 12.0752C6.17578 11.0397 7.01525 10.2002 8.05078 10.2002V8.2002C5.91068 8.2002 4.17578 9.93509 4.17578 12.0752H6.17578ZM8.05078 13.9502C7.01525 13.9502 6.17578 13.1107 6.17578 12.0752H4.17578C4.17578 14.2153 5.91068 15.9502 8.05078 15.9502V13.9502ZM19.5508 15.9502C21.6909 15.9502 23.4258 14.2153 23.4258 12.0752H21.4258C21.4258 13.1107 20.5863 13.9502 19.5508 13.9502V15.9502ZM15.6758 12.0752C15.6758 14.2153 17.4107 15.9502 19.5508 15.9502V13.9502C18.5152 13.9502 17.6758 13.1107 17.6758 12.0752H15.6758ZM19.5508 8.2002C17.4107 8.2002 15.6758 9.93509 15.6758 12.0752H17.6758C17.6758 11.0397 18.5152 10.2002 19.5508 10.2002V8.2002ZM23.4258 12.0752C23.4258 9.93509 21.6909 8.2002 19.5508 8.2002V10.2002C20.5863 10.2002 21.4258 11.0397 21.4258 12.0752H23.4258Z" fill="black" mask="url(#path-1-inside-1_2329_6866)"/>
</svg>
