<svg width="24" height="24" viewBox="0 0 24 24" fill="none" xmlns="http://www.w3.org/2000/svg">
<g clip-path="url(#clip0_2329_6854)">
<path d="M9.93869 7.85654C9.44169 7.55954 8.80469 7.91854 8.80469 8.50054V15.5005C8.80469 16.0855 9.44269 16.4395 9.93869 16.1455L15.8077 12.6505C16.2957 12.3595 16.2947 11.6535 15.8087 11.3615L9.93869 7.85654ZM10.3047 14.1815V9.82154L13.9597 12.0045L10.3047 14.1815Z" fill="black"/>
<path d="M19.904 3.27118C15.251 2.58018 8.751 2.58018 4.096 3.27118C2.234 3.54718 0.767 5.00918 0.447 6.90718C-0.149 10.4302 -0.149 13.5712 0.447 17.0932C0.767 18.9922 2.234 20.4532 4.096 20.7292C6.428 21.0752 9.22 21.2482 12.011 21.2482C14.797 21.2482 17.582 21.0762 19.905 20.7302C21.765 20.4542 23.231 18.9932 23.553 17.0942C24.149 13.5712 24.149 10.4292 23.553 6.90618C23.233 5.00918 21.766 3.54718 19.904 3.27118ZM22.074 16.8442C21.861 18.1002 20.901 19.0662 19.684 19.2462C15.166 19.9172 8.846 19.9172 4.316 19.2452C3.098 19.0642 2.137 18.0992 1.925 16.8432C1.351 13.4492 1.351 10.5522 1.925 7.15618C2.138 5.90018 3.098 4.93618 4.317 4.75418C6.579 4.41918 9.29 4.25118 11.999 4.25118C14.71 4.25118 17.421 4.41918 19.683 4.75418C20.901 4.93518 21.862 5.90018 22.074 7.15618C22.648 10.5522 22.648 13.4492 22.074 16.8442Z" fill="black"/>
</g>
<defs>
<clipPath id="clip0_2329_6854">
<rect width="24" height="24" fill="white"/>
</clipPath>
</defs>
</svg>
