<svg width="9" height="9" viewBox="0 0 9 9" fill="none" xmlns="http://www.w3.org/2000/svg">
<path d="M6.25 0.634766V2.41254M2.75 0.634766V2.41254M1 4.19032H8M4.0625 5.9681H4.5V7.30143M1 2.41254C1 2.1768 1.09219 1.9507 1.25628 1.784C1.42038 1.6173 1.64294 1.52365 1.875 1.52365H7.125C7.35706 1.52365 7.57962 1.6173 7.74372 1.784C7.90781 1.9507 8 2.1768 8 2.41254V7.74588C8 7.98162 7.90781 8.20772 7.74372 8.37442C7.57962 8.54111 7.35706 8.63477 7.125 8.63477H1.875C1.64294 8.63477 1.42038 8.54111 1.25628 8.37442C1.09219 8.20772 1 7.98162 1 7.74588V2.41254Z" stroke="black" stroke-width="0.75" stroke-linecap="round" stroke-linejoin="round"/>
</svg>
