<svg width="288" height="355" viewBox="0 0 288 355" fill="none" xmlns="http://www.w3.org/2000/svg">
  <g filter="url(#filter0_i_3005_6906)">
    <rect x="1.10449" y="1" width="285" height="338" rx="24" stroke="#EC008B" stroke-width="2" />
  </g>
  <path
    d="M1.2334 322.88L1.39409 340.76C1.39914 341.323 1.51599 341.876 1.74045 342.419C4.59464 349.356 24.7598 354.575 49.1623 354.356C73.5648 354.137 93.6329 348.555 96.362 341.569C96.5766 341.022 96.6835 340.466 96.6785 339.904L96.5178 322.024L1.2334 322.88ZM49.0016 336.476C37.0729 336.583 26.1569 335.391 17.7796 333.333C26.1186 331.126 37.0106 329.737 48.9401 329.629C60.8696 329.522 71.7848 330.714 80.1621 332.773C71.8231 334.98 60.9312 336.369 49.0016 336.476Z"
    fill="#FF9A0C" />
  <path
    d="M96.5149 322.024C96.553 326.258 90.2132 330.111 80.1593 332.774C71.7819 330.716 60.8668 329.523 48.9372 329.631C37.0077 329.738 26.1157 331.126 17.7767 333.334C7.67652 330.853 1.26858 327.114 1.23052 322.88C1.16092 315.135 22.4341 308.665 48.7467 308.428C75.0593 308.192 96.4453 314.279 96.5149 322.024Z"
    fill="#FC312B" />
  <path
    d="M95.9336 322.88L96.0943 340.76C96.0993 341.323 96.2162 341.876 96.4406 342.419C99.2948 349.356 119.46 354.575 143.863 354.356C168.265 354.137 188.333 348.555 191.062 341.569C191.277 341.022 191.384 340.466 191.379 339.904L191.218 322.024L95.9336 322.88ZM143.702 336.476C131.773 336.583 120.857 335.391 112.48 333.333C120.819 331.126 131.711 329.737 143.64 329.629C155.57 329.522 166.485 330.714 174.862 332.773C166.523 334.98 155.631 336.369 143.702 336.476Z"
    fill="#FF9A0C" />
  <path
    d="M191.215 322.024C191.253 326.258 184.913 330.111 174.859 332.774C166.482 330.716 155.567 329.523 143.637 329.631C131.708 329.738 120.816 331.126 112.477 333.334C102.377 330.853 95.9688 327.114 95.9307 322.88C95.8611 315.135 117.134 308.665 143.447 308.428C169.759 308.192 191.145 314.279 191.215 322.024Z"
    fill="#FC312B" />
  <path
    d="M190.634 322.88L190.794 340.76C190.8 341.323 190.916 341.876 191.141 342.419C193.995 349.356 214.16 354.575 238.563 354.356C262.965 354.137 283.033 348.555 285.762 341.569C285.977 341.022 286.084 340.466 286.079 339.904L285.918 322.024L190.634 322.88ZM238.402 336.476C226.473 336.583 215.557 335.391 207.18 333.333C215.519 331.126 226.411 329.737 238.34 329.629C250.27 329.522 261.185 330.714 269.563 332.773C261.223 334.98 250.332 336.369 238.402 336.476Z"
    fill="#FF9A0C" />
  <path
    d="M285.915 322.024C285.953 326.258 279.614 330.111 269.56 332.774C261.182 330.716 250.267 329.523 238.338 329.631C226.408 329.738 215.516 331.126 207.177 333.334C197.077 330.853 190.669 327.114 190.631 322.88C190.561 315.135 211.834 308.665 238.147 308.428C264.46 308.192 285.846 314.279 285.915 322.024Z"
    fill="#FC312B" />
  <defs>
    <filter id="filter0_i_3005_6906" x="0.104492" y="0" width="287" height="340" filterUnits="userSpaceOnUse"
      color-interpolation-filters="sRGB">
      <feFlood flood-opacity="0" result="BackgroundImageFix" />
      <feBlend mode="normal" in="SourceGraphic" in2="BackgroundImageFix" result="shape" />
      <feColorMatrix in="SourceAlpha" type="matrix" values="0 0 0 0 0 0 0 0 0 0 0 0 0 0 0 0 0 0 127 0"
        result="hardAlpha" />
      <feOffset dx="16" dy="16" />
      <feComposite in2="hardAlpha" operator="arithmetic" k2="-1" k3="1" />
      <feColorMatrix type="matrix" values="0 0 0 0 0 0 0 0 0 0 0 0 0 0 0 0 0 0 0.25 0" />
      <feBlend mode="normal" in2="shape" result="effect1_innerShadow_3005_6906" />
    </filter>
  </defs>
</svg>