<svg width="9" height="9" viewBox="0 0 9 9" fill="none" xmlns="http://www.w3.org/2000/svg">
<path d="M4.89062 2.13477C4.89062 1.92766 4.72273 1.75977 4.51562 1.75977C4.30852 1.75977 4.14062 1.92766 4.14062 2.13477V4.63477C4.14062 4.76406 4.20723 4.88424 4.31688 4.95276L5.81688 5.89026C5.9925 6.00003 6.22386 5.94664 6.33362 5.77102C6.44339 5.59539 6.39 5.36403 6.21437 5.25427L4.89062 4.42692V2.13477Z" fill="black"/>
<path fill-rule="evenodd" clip-rule="evenodd" d="M4.51562 0.259766C2.09938 0.259766 0.140625 2.21852 0.140625 4.63477C0.140625 7.05101 2.09938 9.00977 4.51562 9.00977C6.93187 9.00977 8.89062 7.05101 8.89062 4.63477C8.89062 2.21852 6.93187 0.259766 4.51562 0.259766ZM0.890625 4.63477C0.890625 2.63273 2.51359 1.00977 4.51562 1.00977C6.51766 1.00977 8.14062 2.63273 8.14062 4.63477C8.14062 6.6368 6.51766 8.25977 4.51562 8.25977C2.51359 8.25977 0.890625 6.6368 0.890625 4.63477Z" fill="black"/>
</svg>
