<svg width="1296" height="513" viewBox="0 0 1296 513" fill="none" xmlns="http://www.w3.org/2000/svg">
<path d="M37 0L37 957H37.8632L37.8632 0H37Z" fill="#CFAEF0" fill-opacity="0.5"/>
<path d="M97.8633 0L97.8633 957H98.7265L98.7265 0H97.8633Z" fill="#CFAEF0" fill-opacity="0.5"/>
<path d="M158.727 0L158.727 957H159.59L159.59 0H158.727Z" fill="#CFAEF0" fill-opacity="0.5"/>
<path d="M219.59 0L219.59 957H220.453L220.453 0H219.59Z" fill="#CFAEF0" fill-opacity="0.5"/>
<path d="M280.453 0L280.453 957H281.316L281.316 0H280.453Z" fill="#CFAEF0" fill-opacity="0.5"/>
<path d="M341.316 0L341.316 957H342.18L342.18 0H341.316Z" fill="#CFAEF0" fill-opacity="0.5"/>
<path d="M402.179 0L402.179 957H403.042L403.042 0H402.179Z" fill="#CFAEF0" fill-opacity="0.5"/>
<path d="M463.042 0L463.042 957H463.905L463.905 0H463.042Z" fill="#CFAEF0" fill-opacity="0.5"/>
<path d="M523.905 0L523.905 957H524.768L524.768 0H523.905Z" fill="#CFAEF0" fill-opacity="0.5"/>
<path d="M584.769 0L584.769 957H585.632L585.632 0H584.769Z" fill="#CFAEF0" fill-opacity="0.5"/>
<path d="M645.632 0L645.632 957H646.495L646.495 0H645.632Z" fill="#CFAEF0" fill-opacity="0.5"/>
<path d="M706.495 0L706.495 957H707.358L707.358 0H706.495Z" fill="#CFAEF0" fill-opacity="0.5"/>
<path d="M767.358 0L767.358 957H768.222L768.222 0H767.358Z" fill="#CFAEF0" fill-opacity="0.5"/>
<path d="M828.222 0L828.222 957H829.085L829.085 0H828.222Z" fill="#CFAEF0" fill-opacity="0.5"/>
<path d="M889.085 0L889.085 957H889.948L889.948 0H889.085Z" fill="#CFAEF0" fill-opacity="0.5"/>
<path d="M949.948 0L949.948 957H950.811L950.811 0H949.948Z" fill="#CFAEF0" fill-opacity="0.5"/>
<path d="M1010.81 0L1010.81 957H1011.67L1011.67 0H1010.81Z" fill="#CFAEF0" fill-opacity="0.5"/>
<path d="M1071.67 0V957H1072.54V0H1071.67Z" fill="#CFAEF0" fill-opacity="0.5"/>
<path d="M1132.54 0V957H1133.4V0H1132.54Z" fill="#CFAEF0" fill-opacity="0.5"/>
<path d="M1193.4 0V957H1194.26V0H1193.4Z" fill="#CFAEF0" fill-opacity="0.5"/>
<path d="M1254.26 0V957H1255.13V0H1254.26Z" fill="#CFAEF0" fill-opacity="0.5"/>
<path d="M1296 19H0V19.8632H1296V19Z" fill="#CFAEF0" fill-opacity="0.5"/>
<path d="M1296 79.8633H0V80.7265H1296V79.8633Z" fill="#CFAEF0" fill-opacity="0.5"/>
<path d="M1296 140.727H0V141.59H1296V140.727Z" fill="#CFAEF0" fill-opacity="0.5"/>
<path d="M1296 201.59H0V202.453H1296V201.59Z" fill="#CFAEF0" fill-opacity="0.5"/>
<path d="M1296 262.453H0V263.316H1296V262.453Z" fill="#CFAEF0" fill-opacity="0.5"/>
<path d="M1296 323.316H0V324.179H1296V323.316Z" fill="#CFAEF0" fill-opacity="0.5"/>
<path d="M1296 384.179H0V385.042H1296V384.179Z" fill="#CFAEF0" fill-opacity="0.5"/>
<path d="M1296 445.042H0V445.906H1296V445.042Z" fill="#CFAEF0" fill-opacity="0.5"/>
<path d="M1287.8 505.906H0V506.769H1287.8V505.906Z" fill="#CFAEF0" fill-opacity="0.5"/>
</svg>
