<svg width="357" height="271" viewBox="0 0 357 271" fill="none" xmlns="http://www.w3.org/2000/svg">
<path d="M250.361 255.825L276.737 269.772C277.566 270.211 278.472 270.478 279.447 270.579C291.894 271.892 315.552 246.429 334.586 210.431C353.621 174.434 361.346 140.546 353.254 130.998C352.621 130.249 351.89 129.651 351.061 129.213L324.684 115.266L250.361 255.825ZM308.211 196.485C298.906 214.081 288.498 229.161 278.831 239.826C282.205 225.833 288.806 208.742 298.111 191.144C307.416 173.546 317.824 158.468 327.491 147.802C324.117 161.795 317.516 178.887 308.211 196.485Z" fill="#FF9A0C"/>
<path d="M324.684 115.266C330.931 118.568 331.559 130.932 327.492 147.803C317.827 158.469 307.417 173.547 298.112 191.145C288.807 208.743 282.205 225.833 278.832 239.827C267.178 252.686 256.607 259.128 250.361 255.825C238.935 249.784 246.311 213.422 266.835 174.607C287.36 135.791 313.259 109.224 324.684 115.266Z" fill="#FC312B"/>
<path d="M199.643 229.007L226.02 242.954C226.849 243.393 227.755 243.66 228.73 243.762C241.176 245.074 264.834 219.611 283.869 183.613C302.903 147.616 310.628 113.728 302.536 104.18C301.904 103.431 301.173 102.833 300.344 102.395L273.967 88.4477L199.643 229.007ZM257.494 169.667C248.189 187.264 237.78 202.343 228.114 213.009C231.487 199.015 238.088 181.924 247.394 164.326C256.699 146.728 267.107 131.65 276.773 120.984C273.4 134.978 266.799 152.069 257.494 169.667Z" fill="#FF9A0C"/>
<path d="M273.967 88.4477C280.213 91.7505 280.841 104.114 276.775 120.985C267.109 131.651 256.7 146.729 247.395 164.327C238.089 181.925 231.487 199.016 228.115 213.009C216.461 225.869 205.889 232.31 199.643 229.007C188.218 222.966 195.594 186.604 216.118 147.789C236.642 108.973 262.542 82.4064 273.967 88.4477Z" fill="#FC312B"/>
<path d="M148.926 202.189L175.302 216.136C176.132 216.575 177.037 216.843 178.012 216.944C190.459 218.256 214.117 192.793 233.151 156.795C252.186 120.798 259.911 86.9102 251.819 77.362C251.187 76.6132 250.456 76.0154 249.626 75.5769L223.25 61.6298L148.926 202.189ZM206.776 142.849C197.472 160.446 187.063 175.525 177.396 186.191C180.77 172.198 187.371 155.106 196.676 137.508C205.982 119.91 216.389 104.832 226.056 94.1666C222.682 108.16 216.082 125.251 206.776 142.849Z" fill="#FF9A0C"/>
<path d="M223.25 61.6298C229.496 64.9326 230.124 77.296 226.057 94.1672C216.392 104.833 205.983 119.911 196.677 137.509C187.372 155.107 180.77 172.198 177.398 186.191C165.742 199.05 155.171 205.491 148.926 202.189C137.501 196.148 144.876 159.786 165.401 120.971C185.925 82.1555 211.825 55.5885 223.25 61.6298Z" fill="#FC312B"/>
<path d="M98.2073 175.371L124.584 189.318C125.413 189.756 126.319 190.024 127.294 190.125C139.741 191.437 163.398 165.974 182.433 129.977C201.467 93.9792 209.192 60.0917 201.101 50.5434C200.468 49.7946 199.737 49.1969 198.908 48.7583L172.531 34.8112L98.2073 175.371ZM156.058 116.03C146.753 133.627 136.344 148.707 126.678 159.372C130.052 145.379 136.652 128.288 145.958 110.69C155.263 93.0918 165.671 78.0136 175.338 67.348C171.964 81.3411 165.363 98.4324 156.058 116.03Z" fill="#FF9A0C"/>
<path d="M172.531 34.8112C178.778 38.1141 179.405 50.4774 175.339 67.3487C165.673 78.0149 155.264 93.0924 145.959 110.69C136.654 128.288 130.052 145.379 126.679 159.373C115.025 172.232 104.454 178.673 98.2073 175.371C86.7822 169.329 94.1577 132.967 114.682 94.1521C135.207 55.3369 161.106 28.7699 172.531 34.8112Z" fill="#FC312B"/>
<path d="M135.369 105.091C153.851 70.139 140.604 26.878 105.782 8.46489C70.9592 -9.94825 27.7478 3.45908 9.26614 38.411C-9.21549 73.363 4.03135 116.624 38.8538 135.037C73.6762 153.45 116.888 140.043 135.369 105.091Z" fill="#FF9A0C"/>
<path d="M123.293 98.7051C138.234 70.4477 127.525 35.4728 99.3721 20.5864C71.2194 5.70005 36.2845 16.5394 21.3427 44.7968C6.401 73.0542 17.1106 108.029 45.2633 122.916C73.416 137.802 108.351 126.963 123.293 98.7051Z" fill="#34267D"/>
<path d="M95.2163 28.4457C106.398 64.9621 85.8937 103.739 49.4191 115.056C38.2375 78.5399 58.7418 39.7628 95.2163 28.4457Z" fill="white"/>
<path d="M89.1203 66.5378C86.2755 57.2477 76.4469 52.0506 67.1674 54.9298C57.8879 57.809 52.6714 67.6741 55.5161 76.9643C58.3608 86.2545 68.1895 91.4516 77.469 88.5724C86.7485 85.6932 91.965 75.828 89.1203 66.5378Z" fill="#027242"/>
<path d="M80.7332 76.2008C83.1999 71.5358 81.4319 65.7618 76.7841 63.3042C72.1364 60.8466 66.369 62.6361 63.9023 67.3011C61.4355 71.9661 63.2036 77.7401 67.8513 80.1977C72.499 82.6553 78.2665 80.8659 80.7332 76.2008Z" fill="#231F20"/>
</svg>
