<svg width="65" height="65" viewBox="0 0 65 65" fill="none" xmlns="http://www.w3.org/2000/svg">
<path d="M10.5388 54.5739C11.5545 52.2698 12.6713 50.0186 13.885 47.8082C15.0987 45.6058 16.8034 43.261 19.0031 40.7695L17.2576 39.1603C15.8595 40.7934 14.3057 41.942 12.6002 42.6022C10.8867 43.2623 9.21989 43.6002 7.60374 43.6119C5.97953 43.6235 4.58395 43.4228 3.40091 43.0176C2.32588 41.6859 1.58271 39.8442 1.16739 37.4963C0.756079 35.1444 0.614037 32.6448 0.757384 29.9975C0.896679 27.3462 1.32326 24.91 2.02497 22.6768C2.73074 20.4476 3.66132 18.8201 4.81276 17.8065C7.32508 18.0655 9.81781 18.4332 12.2829 18.9176C14.7481 19.4021 17.5219 20.3395 20.5924 21.7421L21.5723 19.5304C19.6052 18.7181 18.0274 17.5894 16.8389 16.1363C15.6504 14.6831 14.8123 13.1875 14.3125 11.6452C13.8128 10.103 13.5516 8.71917 13.525 7.48975C14.2687 6.34899 15.4039 5.31104 16.9346 4.37189C18.4653 3.43274 20.1982 2.63168 22.1293 1.9566C24.0604 1.28152 26.0448 0.788091 28.0826 0.468249C30.1203 0.148406 32.002 0.0494222 33.7397 0.159269C35.4693 0.269073 36.886 0.659372 37.9737 1.32202C38.4543 3.82341 38.8583 6.3123 39.1896 8.7847C39.5209 11.2571 39.5078 14.1469 39.1543 17.458L41.5138 17.7807C41.7121 15.6214 42.2909 13.7624 43.2581 12.2117C44.2214 10.665 45.3635 9.40945 46.6804 8.44903C47.9974 7.48861 49.2273 6.83405 50.3621 6.4853C51.9726 6.9411 53.6103 7.96937 55.2832 9.56208C56.9561 11.1548 58.4852 13.0047 59.8787 15.1118C61.3575 17.3524 62.5142 19.6478 63.3446 21.9857C64.1709 24.3277 64.4271 26.2919 64.1089 27.8742C61.9268 29.1082 59.6919 30.2573 57.4042 31.3295C55.1165 32.4017 52.3319 33.2577 49.0423 33.8975L49.5628 36.3104C51.6683 35.8499 53.615 35.8399 55.3987 36.2765C57.1824 36.713 58.7378 37.4184 60.0649 38.3846C61.3879 39.3548 62.4046 40.3234 63.1151 41.3065C63.2046 43.0159 62.7351 44.944 61.7105 47.0949C60.6859 49.2378 59.3346 51.3346 57.6605 53.3814C55.9865 55.4282 54.218 57.1399 52.3592 58.5207C50.5003 59.9015 48.7711 60.6582 47.1677 60.7869C45.3087 59.0562 43.5059 57.2854 41.7553 55.4787C40.0047 53.672 38.3036 51.3133 36.6439 48.4027L34.5784 49.5608C35.7408 51.4208 36.3752 53.2661 36.4774 55.1005C36.5797 56.9349 36.3951 58.6267 35.9277 60.18C35.4521 61.7332 34.8501 62.9836 34.1053 63.9309C32.5284 64.503 30.5541 64.6136 28.1743 64.2706C25.7986 63.9237 23.3769 63.2662 20.9092 62.29C18.4415 61.3138 16.263 60.1537 14.3616 58.8057C12.4603 57.4576 11.1873 56.0484 10.5428 54.5699L10.5388 54.5739Z" fill="#C2FD5C"/>
</svg>
