<svg width="639" height="513" viewBox="0 0 639 513" fill="none" xmlns="http://www.w3.org/2000/svg">
<path d="M144.726 0H144.034V185.614H144.726V0Z" fill="#5FA4BD"/>
<path d="M144.726 256.523H144.034V512.998H144.726V256.523Z" fill="#5FA4BD"/>
<path d="M202.968 0H202.276V185.614H202.968V0Z" fill="#5FA4BD"/>
<path d="M202.968 256.344H202.276V512.991H202.968V256.344Z" fill="#5FA4BD"/>
<path d="M28.2414 0H27.5498V512.998H28.2414V0Z" fill="#5FA4BD"/>
<path d="M86.4835 0H85.792V185.614H86.4835V0Z" fill="#5FA4BD"/>
<path d="M86.4835 256.523H85.792V512.998H86.4835V256.523Z" fill="#5FA4BD"/>
<path d="M261.21 0H260.519V185.614H261.21V0Z" fill="#5FA4BD"/>
<path d="M261.21 256.344H260.519V512.991H261.21V256.344Z" fill="#5FA4BD"/>
<path d="M319.452 0H318.761V512.998H319.452V0Z" fill="#5FA4BD"/>
<path d="M377.694 0H377.003V185.52H377.694V0Z" fill="#5FA4BD"/>
<path d="M377.694 327.086H377.003V513.001H377.694V327.086Z" fill="#5FA4BD"/>
<path d="M435.937 0H435.245V512.998H435.937V0Z" fill="#5FA4BD"/>
<path d="M494.179 0H493.487V512.998H494.179V0Z" fill="#5FA4BD"/>
<path d="M552.417 0H551.726V512.998H552.417V0Z" fill="#5FA4BD"/>
<path d="M610.655 0H609.964V512.998H610.655V0Z" fill="#5FA4BD"/>
<path d="M638.101 408.785H0.104492V409.65H638.101V408.785Z" fill="#5FA4BD"/>
<path d="M638.101 492.098H0.104492V492.962H638.101V492.098Z" fill="#5FA4BD"/>
<path d="M638.101 347.137H0.104492V348.001H638.101V347.137Z" fill="#5FA4BD"/>
<path d="M638.101 285.488H0.104492V286.353H638.101V285.488Z" fill="#5FA4BD"/>
<path d="M319.104 223.844H0.104492V224.708H319.104V223.844Z" fill="#5FA4BD"/>
<path d="M638.107 223.844H435.815V224.708H638.107V223.844Z" fill="#5FA4BD"/>
<path d="M319.104 100.551H0.104492V101.415H319.104V100.551Z" fill="#5FA4BD"/>
<path d="M638.105 100.551H377.347V101.415H638.105V100.551Z" fill="#5FA4BD"/>
<path d="M638.101 38.9062H0.104492V39.7706H638.101V38.9062Z" fill="#5FA4BD"/>
<path d="M638.101 162.195H0.104492V163.06H638.101V162.195Z" fill="#5FA4BD"/>
</svg>
