<svg width="95" height="98" viewBox="0 0 95 98" fill="none" xmlns="http://www.w3.org/2000/svg">
<path d="M94.2211 40.9112L1.0209 39.6612L0.777201 50.1223C0.185773 75.8538 20.5672 96.9908 46.3032 97.336C72.0392 97.6811 93.3795 77.1037 93.9709 51.3722L94.2146 40.9111L94.2211 40.9112Z" fill="#C2FD5C"/>
<path d="M80.407 40.7319L14.6905 39.8472L14.4612 49.9635C14.0442 68.107 28.4161 83.0118 46.5628 83.2551C64.7095 83.4985 79.7575 68.9884 80.1745 50.8449L80.4038 40.7286L80.407 40.7319Z" fill="#018073"/>
<path d="M14.8861 39.8744L79.1935 40.7369L79.3594 33.5198C79.7674 15.7668 65.7007 1.17859 47.9446 0.940444C30.1884 0.702298 15.46 14.9043 15.0519 32.6573L14.8861 39.8744Z" fill="#F4F4F4"/>
<path d="M26.8703 40.0158L67.3489 40.5587L67.4883 34.4935C67.7451 23.3197 58.893 14.1395 47.7141 13.9863C36.5384 13.8364 27.2699 22.7736 27.0097 33.9506L26.8703 40.0158Z" fill="#C2FD5C"/>
<path fill-rule="evenodd" clip-rule="evenodd" d="M47.8944 19.8076C55.1231 19.9738 60.8484 25.9685 60.6823 33.1972L60.0481 60.7899C59.8819 68.0186 53.8872 73.7439 46.6585 73.5777C39.4298 73.4116 33.7045 67.4169 33.8706 60.1882L34.5049 32.5955C34.671 25.3668 40.6657 19.6415 47.8944 19.8076Z" fill="#DF0586"/>
</svg>
