<svg width="10" height="289" viewBox="0 0 10 289" fill="none" xmlns="http://www.w3.org/2000/svg">
<path d="M4.58469 0.843806C5.0688 0.0910704 6.22976 0.362911 6.32957 1.25203C6.39236 1.81204 6.92569 2.19496 7.4765 2.07537C8.35089 1.8854 8.9799 2.89848 8.4215 3.59786C8.06985 4.03828 8.17634 4.68614 8.65033 4.99087C9.40307 5.47498 9.13123 6.63594 8.24211 6.73575C7.6821 6.79854 7.29918 7.33187 7.41877 7.88268C7.60874 8.75708 6.59566 9.38608 5.89628 8.82768C5.45586 8.47604 4.808 8.58252 4.50327 9.05652C4.01916 9.80925 2.8582 9.53741 2.75839 8.6483C2.6956 8.08829 2.16227 7.70536 1.61146 7.82496C0.737061 8.01492 0.108056 7.00184 0.666456 6.30246C1.0181 5.86205 0.911618 5.21418 0.437622 4.90945C-0.315114 4.42557 -0.043503 3.26461 0.845843 3.1648C1.40585 3.10201 1.78878 2.56868 1.66918 2.01787C1.47922 1.14324 2.4923 0.51447 3.19167 1.07264C3.63209 1.42428 4.27996 1.3178 4.58469 0.843806Z" fill="#EB5328"/>
<path d="M4.58469 12.4805C5.0688 11.7278 6.22976 11.9996 6.32957 12.8887C6.39236 13.4488 6.92569 13.8317 7.4765 13.7121C8.35089 13.5221 8.9799 14.5352 8.4215 15.2346C8.06985 15.675 8.17634 16.3229 8.65033 16.6276C9.40307 17.1117 9.13123 18.2727 8.24211 18.3725C7.6821 18.4353 7.29918 18.9686 7.41877 19.5194C7.60874 20.3938 6.59566 21.0228 5.89628 20.4644C5.45586 20.1128 4.808 20.2192 4.50327 20.6932C4.01916 21.446 2.8582 21.1741 2.75839 20.285C2.6956 19.725 2.16227 19.3421 1.61146 19.4617C0.737061 19.6516 0.108056 18.6386 0.666456 17.9392C1.0181 17.4988 0.911618 16.8509 0.437622 16.5462C-0.315114 16.0623 -0.043503 14.9013 0.845843 14.8015C1.40585 14.7387 1.78878 14.2054 1.66918 13.6546C1.47922 12.78 2.4923 12.1512 3.19167 12.7094C3.63209 13.061 4.27996 12.9545 4.58469 12.4805Z" fill="#EB5328"/>
<path d="M4.58469 24.1212C5.0688 23.3684 6.22976 23.6403 6.32957 24.5294C6.39236 25.0894 6.92569 25.4723 7.4765 25.3527C8.35089 25.1627 8.9799 26.1758 8.4215 26.8752C8.06985 27.3156 8.17634 27.9635 8.65033 28.2682C9.40307 28.7523 9.13123 29.9133 8.24211 30.0131C7.6821 30.0759 7.29918 30.6092 7.41877 31.16C7.60874 32.0344 6.59566 32.6634 5.89628 32.105C5.45586 31.7534 4.808 31.8599 4.50327 32.3339C4.01916 33.0866 2.8582 32.8148 2.75839 31.9256C2.6956 31.3656 2.16227 30.9827 1.61146 31.1023C0.737061 31.2923 0.108056 30.2792 0.666456 29.5798C1.0181 29.1394 0.911618 28.4915 0.437622 28.1868C-0.315114 27.7029 -0.043503 26.542 0.845843 26.4421C1.40585 26.3794 1.78878 25.846 1.66918 25.2952C1.47922 24.4206 2.4923 23.7918 3.19167 24.35C3.63209 24.7016 4.27996 24.5951 4.58469 24.1212Z" fill="#EB5328"/>
<path d="M4.58469 35.7579C5.0688 35.0051 6.22976 35.277 6.32957 36.1661C6.39236 36.7261 6.92569 37.109 7.4765 36.9894C8.35089 36.7995 8.9799 37.8125 8.4215 38.5119C8.06985 38.9523 8.17634 39.6002 8.65033 39.9049C9.40307 40.389 9.13123 41.55 8.24211 41.6498C7.6821 41.7126 7.29918 42.2459 7.41877 42.7967C7.60874 43.6711 6.59566 44.3001 5.89628 43.7417C5.45586 43.3901 4.808 43.4966 4.50327 43.9706C4.01916 44.7233 2.8582 44.4515 2.75839 43.5624C2.6956 43.0023 2.16227 42.6194 1.61146 42.739C0.737061 42.929 0.108056 41.9159 0.666456 41.2165C1.0181 40.7761 0.911618 40.1282 0.437622 39.8235C-0.315114 39.3396 -0.043503 38.1787 0.845843 38.0789C1.40585 38.0161 1.78878 37.4827 1.66918 36.9319C1.47922 36.0573 2.4923 35.4285 3.19167 35.9867C3.63209 36.3383 4.27996 36.2319 4.58469 35.7579Z" fill="#EB5328"/>
<path d="M4.58469 47.3946C5.0688 46.6419 6.22976 46.9137 6.32957 47.8028C6.39236 48.3628 6.92569 48.7457 7.4765 48.6261C8.35089 48.4362 8.9799 49.4493 8.4215 50.1486C8.06985 50.5891 8.17634 51.2369 8.65033 51.5416C9.40307 52.0258 9.13123 53.1867 8.24211 53.2865C7.6821 53.3493 7.29918 53.8827 7.41877 54.4335C7.60874 55.3079 6.59566 55.9369 5.89628 55.3785C5.45586 55.0268 4.808 55.1333 4.50327 55.6073C4.01916 56.36 2.8582 56.0882 2.75839 55.1991C2.6956 54.6391 2.16227 54.2561 1.61146 54.3757C0.737061 54.5657 0.108056 53.5526 0.666456 52.8532C1.0181 52.4128 0.911618 51.765 0.437622 51.4602C-0.315114 50.9764 -0.043503 49.8154 0.845843 49.7156C1.40585 49.6528 1.78878 49.1195 1.66918 48.5687C1.47922 47.694 2.4923 47.0653 3.19167 47.6234C3.63209 47.9751 4.27996 47.8686 4.58469 47.3946Z" fill="#EB5328"/>
<path d="M4.58469 59.0313C5.0688 58.2786 6.22976 58.5504 6.32957 59.4395C6.39236 59.9995 6.92569 60.3825 7.4765 60.2629C8.35089 60.0729 8.9799 61.086 8.4215 61.7854C8.06985 62.2258 8.17634 62.8736 8.65033 63.1784C9.40307 63.6625 9.13123 64.8234 8.24211 64.9233C7.6821 64.986 7.29918 65.5194 7.41877 66.0702C7.60874 66.9446 6.59566 67.5736 5.89628 67.0152C5.45586 66.6635 4.808 66.77 4.50327 67.244C4.01916 67.9968 2.8582 67.7249 2.75839 66.8358C2.6956 66.2758 2.16227 65.8929 1.61146 66.0125C0.737061 66.2024 0.108056 65.1893 0.666456 64.49C1.0181 64.0495 0.911618 63.4017 0.437622 63.097C-0.315114 62.6131 -0.043503 61.4521 0.845843 61.3523C1.40585 61.2895 1.78878 60.7562 1.66918 60.2054C1.47922 59.3307 2.4923 58.702 3.19167 59.2601C3.63209 59.6118 4.27996 59.5053 4.58469 59.0313Z" fill="#EB5328"/>
<path d="M4.58469 70.668C5.0688 69.9153 6.22976 70.1871 6.32957 71.0762C6.39236 71.6363 6.92569 72.0192 7.4765 71.8996C8.35089 71.7096 8.9799 72.7227 8.4215 73.4221C8.06985 73.8625 8.17634 74.5104 8.65033 74.8151C9.40307 75.2992 9.13123 76.4602 8.24211 76.56C7.6821 76.6228 7.29918 77.1561 7.41877 77.7069C7.60874 78.5813 6.59566 79.2103 5.89628 78.6519C5.45586 78.3003 4.808 78.4067 4.50327 78.8807C4.01916 79.6335 2.8582 79.3616 2.75839 78.4725C2.6956 77.9125 2.16227 77.5296 1.61146 77.6492C0.737061 77.8391 0.108056 76.8261 0.666456 76.1267C1.0181 75.6863 0.911618 75.0384 0.437622 74.7337C-0.315114 74.2498 -0.043503 73.0888 0.845843 72.989C1.40585 72.9262 1.78878 72.3929 1.66918 71.8421C1.47922 70.9675 2.4923 70.3387 3.19167 70.8969C3.63209 71.2485 4.27996 71.142 4.58469 70.668Z" fill="#EB5328"/>
<path d="M4.58469 82.3087C5.0688 81.5559 6.22976 81.8278 6.32957 82.7169C6.39236 83.2769 6.92569 83.6598 7.4765 83.5402C8.35089 83.3502 8.9799 84.3633 8.4215 85.0627C8.06985 85.5031 8.17634 86.151 8.65033 86.4557C9.40307 86.9398 9.13123 88.1008 8.24211 88.2006C7.6821 88.2634 7.29918 88.7967 7.41877 89.3475C7.60874 90.2219 6.59566 90.8509 5.89628 90.2925C5.45586 89.9409 4.808 90.0474 4.50327 90.5214C4.01916 91.2741 2.8582 91.0023 2.75839 90.1131C2.6956 89.5531 2.16227 89.1702 1.61146 89.2898C0.737061 89.4798 0.108056 88.4667 0.666456 87.7673C1.0181 87.3269 0.911618 86.679 0.437622 86.3743C-0.315114 85.8904 -0.043503 84.7295 0.845843 84.6296C1.40585 84.5669 1.78878 84.0335 1.66918 83.4827C1.47922 82.6081 2.4923 81.9793 3.19167 82.5375C3.63209 82.8891 4.27996 82.7826 4.58469 82.3087Z" fill="#EB5328"/>
<path d="M4.58469 93.9454C5.0688 93.1926 6.22976 93.4645 6.32957 94.3536C6.39236 94.9136 6.92569 95.2965 7.4765 95.1769C8.35089 94.987 8.9799 96 8.4215 96.6994C8.06985 97.1398 8.17634 97.7877 8.65033 98.0924C9.40307 98.5765 9.13123 99.7375 8.24211 99.8373C7.6821 99.9001 7.29918 100.433 7.41877 100.984C7.60874 101.859 6.59566 102.488 5.89628 101.929C5.45586 101.578 4.808 101.684 4.50327 102.158C4.01916 102.911 2.8582 102.639 2.75839 101.75C2.6956 101.19 2.16227 100.807 1.61146 100.927C0.737061 101.116 0.108056 100.103 0.666456 99.404C1.0181 98.9636 0.911618 98.3157 0.437622 98.011C-0.315114 97.5271 -0.043503 96.3662 0.845843 96.2664C1.40585 96.2036 1.78878 95.6702 1.66918 95.1194C1.47922 94.2448 2.4923 93.616 3.19167 94.1742C3.63209 94.5258 4.27996 94.4194 4.58469 93.9454Z" fill="#EB5328"/>
<path d="M4.58469 105.582C5.0688 104.829 6.22976 105.101 6.32957 105.99C6.39236 106.55 6.92569 106.933 7.4765 106.814C8.35089 106.624 8.9799 107.637 8.4215 108.336C8.06985 108.777 8.17634 109.424 8.65033 109.729C9.40307 110.213 9.13123 111.374 8.24211 111.474C7.6821 111.537 7.29918 112.07 7.41877 112.621C7.60874 113.495 6.59566 114.124 5.89628 113.566C5.45586 113.214 4.808 113.321 4.50327 113.795C4.01916 114.548 2.8582 114.276 2.75839 113.387C2.6956 112.827 2.16227 112.444 1.61146 112.563C0.737061 112.753 0.108056 111.74 0.666456 111.041C1.0181 110.6 0.911618 109.952 0.437622 109.648C-0.315114 109.164 -0.043503 108.003 0.845843 107.903C1.40585 107.84 1.78878 107.307 1.66918 106.756C1.47922 105.882 2.4923 105.253 3.19167 105.811C3.63209 106.163 4.27996 106.056 4.58469 105.582Z" fill="#EB5328"/>
<path d="M4.58469 117.223C5.0688 116.47 6.22976 116.742 6.32957 117.631C6.39236 118.191 6.92569 118.574 7.4765 118.454C8.35089 118.264 8.9799 119.277 8.4215 119.977C8.06985 120.417 8.17634 121.065 8.65033 121.37C9.40307 121.854 9.13123 123.015 8.24211 123.115C7.6821 123.177 7.29918 123.711 7.41877 124.262C7.60874 125.136 6.59566 125.765 5.89628 125.207C5.45586 124.855 4.808 124.961 4.50327 125.435C4.01916 126.188 2.8582 125.916 2.75839 125.027C2.6956 124.467 2.16227 124.084 1.61146 124.204C0.737061 124.394 0.108056 123.381 0.666456 122.681C1.0181 122.241 0.911618 121.593 0.437622 121.288C-0.315114 120.804 -0.043503 119.644 0.845843 119.544C1.40585 119.481 1.78878 118.948 1.66918 118.397C1.47922 117.522 2.4923 116.893 3.19167 117.452C3.63209 117.803 4.27996 117.697 4.58469 117.223Z" fill="#EB5328"/>
<path d="M4.58469 128.859C5.0688 128.107 6.22976 128.379 6.32957 129.268C6.39236 129.828 6.92569 130.211 7.4765 130.091C8.35089 129.901 8.9799 130.914 8.4215 131.613C8.06985 132.054 8.17634 132.702 8.65033 133.006C9.40307 133.491 9.13123 134.652 8.24211 134.751C7.6821 134.814 7.29918 135.347 7.41877 135.898C7.60874 136.773 6.59566 137.402 5.89628 136.843C5.45586 136.492 4.808 136.598 4.50327 137.072C4.01916 137.825 2.8582 137.553 2.75839 136.664C2.6956 136.104 2.16227 135.721 1.61146 135.841C0.737061 136.031 0.108056 135.017 0.666456 134.318C1.0181 133.878 0.911618 133.23 0.437622 132.925C-0.315114 132.441 -0.043503 131.28 0.845843 131.18C1.40585 131.118 1.78878 130.584 1.66918 130.033C1.47922 129.159 2.4923 128.53 3.19167 129.088C3.63209 129.44 4.27996 129.333 4.58469 128.859Z" fill="#EB5328"/>
<path d="M4.58469 140.496C5.0688 139.743 6.22976 140.015 6.32957 140.904C6.39236 141.464 6.92569 141.847 7.4765 141.728C8.35089 141.538 8.9799 142.551 8.4215 143.25C8.06985 143.691 8.17634 144.338 8.65033 144.643C9.40307 145.127 9.13123 146.288 8.24211 146.388C7.6821 146.451 7.29918 146.984 7.41877 147.535C7.60874 148.409 6.59566 149.038 5.89628 148.48C5.45586 148.128 4.808 148.235 4.50327 148.709C4.01916 149.462 2.8582 149.19 2.75839 148.301C2.6956 147.741 2.16227 147.358 1.61146 147.477C0.737061 147.667 0.108056 146.654 0.666456 145.955C1.0181 145.514 0.911618 144.867 0.437622 144.562C-0.315114 144.078 -0.043503 142.917 0.845843 142.817C1.40585 142.754 1.78878 142.221 1.66918 141.67C1.47922 140.796 2.4923 140.167 3.19167 140.725C3.63209 141.077 4.27996 140.97 4.58469 140.496Z" fill="#EB5328"/>
<path d="M4.58469 152.133C5.0688 151.38 6.22976 151.652 6.32957 152.541C6.39236 153.101 6.92569 153.484 7.4765 153.364C8.35089 153.174 8.9799 154.188 8.4215 154.887C8.06985 155.327 8.17634 155.975 8.65033 156.28C9.40307 156.764 9.13123 157.925 8.24211 158.025C7.6821 158.088 7.29918 158.621 7.41877 159.172C7.60874 160.046 6.59566 160.675 5.89628 160.117C5.45586 159.765 4.808 159.872 4.50327 160.346C4.01916 161.098 2.8582 160.826 2.75839 159.937C2.6956 159.377 2.16227 158.994 1.61146 159.114C0.737061 159.304 0.108056 158.291 0.666456 157.592C1.0181 157.151 0.911618 156.503 0.437622 156.199C-0.315114 155.715 -0.043503 154.554 0.845843 154.454C1.40585 154.391 1.78878 153.858 1.66918 153.307C1.47922 152.432 2.4923 151.804 3.19167 152.362C3.63209 152.713 4.27996 152.607 4.58469 152.133Z" fill="#EB5328"/>
<path d="M4.58469 163.77C5.0688 163.017 6.22976 163.289 6.32957 164.178C6.39236 164.738 6.92569 165.121 7.4765 165.001C8.35089 164.811 8.9799 165.824 8.4215 166.524C8.06985 166.964 8.17634 167.612 8.65033 167.917C9.40307 168.401 9.13123 169.562 8.24211 169.662C7.6821 169.724 7.29918 170.258 7.41877 170.808C7.60874 171.683 6.59566 172.312 5.89628 171.753C5.45586 171.402 4.808 171.508 4.50327 171.982C4.01916 172.735 2.8582 172.463 2.75839 171.574C2.6956 171.014 2.16227 170.631 1.61146 170.751C0.737061 170.941 0.108056 169.928 0.666456 169.228C1.0181 168.788 0.911618 168.14 0.437622 167.835C-0.315114 167.351 -0.043503 166.19 0.845843 166.091C1.40585 166.028 1.78878 165.494 1.66918 164.944C1.47922 164.069 2.4923 163.44 3.19167 163.998C3.63209 164.35 4.27996 164.244 4.58469 163.77Z" fill="#EB5328"/>
<path d="M4.58469 175.41C5.0688 174.657 6.22976 174.929 6.32957 175.818C6.39236 176.378 6.92569 176.761 7.4765 176.642C8.35089 176.452 8.9799 177.465 8.4215 178.164C8.06985 178.605 8.17634 179.253 8.65033 179.557C9.40307 180.041 9.13123 181.202 8.24211 181.302C7.6821 181.365 7.29918 181.898 7.41877 182.449C7.60874 183.323 6.59566 183.952 5.89628 183.394C5.45586 183.042 4.808 183.149 4.50327 183.623C4.01916 184.376 2.8582 184.104 2.75839 183.215C2.6956 182.655 2.16227 182.272 1.61146 182.391C0.737061 182.581 0.108056 181.568 0.666456 180.869C1.0181 180.428 0.911618 179.781 0.437622 179.476C-0.315114 178.992 -0.043503 177.831 0.845843 177.731C1.40585 177.668 1.78878 177.135 1.66918 176.584C1.47922 175.71 2.4923 175.081 3.19167 175.639C3.63209 175.991 4.27996 175.884 4.58469 175.41Z" fill="#EB5328"/>
<path d="M4.58469 187.047C5.0688 186.294 6.22976 186.566 6.32957 187.455C6.39236 188.015 6.92569 188.398 7.4765 188.278C8.35089 188.089 8.9799 189.102 8.4215 189.801C8.06985 190.241 8.17634 190.889 8.65033 191.194C9.40307 191.678 9.13123 192.839 8.24211 192.939C7.6821 193.002 7.29918 193.535 7.41877 194.086C7.60874 194.96 6.59566 195.589 5.89628 195.031C5.45586 194.679 4.808 194.786 4.50327 195.26C4.01916 196.012 2.8582 195.741 2.75839 194.851C2.6956 194.291 2.16227 193.908 1.61146 194.028C0.737061 194.218 0.108056 193.205 0.666456 192.506C1.0181 192.065 0.911618 191.417 0.437622 191.113C-0.315114 190.629 -0.043503 189.468 0.845843 189.368C1.40585 189.305 1.78878 188.772 1.66918 188.221C1.47922 187.346 2.4923 186.718 3.19167 187.276C3.63209 187.627 4.27996 187.521 4.58469 187.047Z" fill="#EB5328"/>
<path d="M4.58469 198.684C5.0688 197.931 6.22976 198.203 6.32957 199.092C6.39236 199.652 6.92569 200.035 7.4765 199.915C8.35089 199.725 8.9799 200.738 8.4215 201.438C8.06985 201.878 8.17634 202.526 8.65033 202.831C9.40307 203.315 9.13123 204.476 8.24211 204.576C7.6821 204.638 7.29918 205.172 7.41877 205.723C7.60874 206.597 6.59566 207.226 5.89628 206.668C5.45586 206.316 4.808 206.422 4.50327 206.896C4.01916 207.649 2.8582 207.377 2.75839 206.488C2.6956 205.928 2.16227 205.545 1.61146 205.665C0.737061 205.855 0.108056 204.842 0.666456 204.142C1.0181 203.702 0.911618 203.054 0.437622 202.749C-0.315114 202.265 -0.043503 201.104 0.845843 201.005C1.40585 200.942 1.78878 200.409 1.66918 199.858C1.47922 198.983 2.4923 198.354 3.19167 198.912C3.63209 199.264 4.27996 199.158 4.58469 198.684Z" fill="#EB5328"/>
<path d="M4.58469 210.324C5.0688 209.572 6.22976 209.843 6.32957 210.732C6.39236 211.293 6.92569 211.675 7.4765 211.556C8.35089 211.366 8.9799 212.379 8.4215 213.078C8.06985 213.519 8.17634 214.167 8.65033 214.471C9.40307 214.955 9.13123 216.116 8.24211 216.216C7.6821 216.279 7.29918 216.812 7.41877 217.363C7.60874 218.238 6.59566 218.867 5.89628 218.308C5.45586 217.957 4.808 218.063 4.50327 218.537C4.01916 219.29 2.8582 219.018 2.75839 218.129C2.6956 217.569 2.16227 217.186 1.61146 217.305C0.737061 217.495 0.108056 216.482 0.666456 215.783C1.0181 215.343 0.911618 214.695 0.437622 214.39C-0.315114 213.906 -0.043503 212.745 0.845843 212.645C1.40585 212.582 1.78878 212.049 1.66918 211.498C1.47922 210.624 2.4923 209.995 3.19167 210.553C3.63209 210.905 4.27996 210.798 4.58469 210.324Z" fill="#EB5328"/>
<path d="M4.58469 221.961C5.0688 221.208 6.22976 221.48 6.32957 222.369C6.39236 222.929 6.92569 223.312 7.4765 223.193C8.35089 223.003 8.9799 224.016 8.4215 224.715C8.06985 225.155 8.17634 225.803 8.65033 226.108C9.40307 226.592 9.13123 227.753 8.24211 227.853C7.6821 227.916 7.29918 228.449 7.41877 229C7.60874 229.874 6.59566 230.503 5.89628 229.945C5.45586 229.593 4.808 229.7 4.50327 230.174C4.01916 230.926 2.8582 230.655 2.75839 229.765C2.6956 229.205 2.16227 228.823 1.61146 228.942C0.737061 229.132 0.108056 228.119 0.666456 227.42C1.0181 226.979 0.911618 226.331 0.437622 226.027C-0.315114 225.543 -0.043503 224.382 0.845843 224.282C1.40585 224.219 1.78878 223.686 1.66918 223.135C1.47922 222.26 2.4923 221.632 3.19167 222.19C3.63209 222.541 4.27996 222.435 4.58469 221.961Z" fill="#EB5328"/>
<path d="M4.58469 233.598C5.0688 232.845 6.22976 233.117 6.32957 234.006C6.39236 234.566 6.92569 234.949 7.4765 234.829C8.35089 234.639 8.9799 235.652 8.4215 236.352C8.06985 236.792 8.17634 237.44 8.65033 237.745C9.40307 238.229 9.13123 239.39 8.24211 239.49C7.6821 239.552 7.29918 240.086 7.41877 240.637C7.60874 241.511 6.59566 242.14 5.89628 241.582C5.45586 241.23 4.808 241.336 4.50327 241.81C4.01916 242.563 2.8582 242.291 2.75839 241.402C2.6956 240.842 2.16227 240.459 1.61146 240.579C0.737061 240.769 0.108056 239.756 0.666456 239.056C1.0181 238.616 0.911618 237.968 0.437622 237.663C-0.315114 237.179 -0.043503 236.019 0.845843 235.919C1.40585 235.856 1.78878 235.323 1.66918 234.772C1.47922 233.897 2.4923 233.268 3.19167 233.827C3.63209 234.178 4.27996 234.072 4.58469 233.598Z" fill="#EB5328"/>
<path d="M4.58469 245.234C5.0688 244.482 6.22976 244.754 6.32957 245.643C6.39236 246.203 6.92569 246.586 7.4765 246.466C8.35089 246.276 8.9799 247.289 8.4215 247.988C8.06985 248.429 8.17634 249.077 8.65033 249.381C9.40307 249.866 9.13123 251.027 8.24211 251.126C7.6821 251.189 7.29918 251.722 7.41877 252.273C7.60874 253.148 6.59566 253.777 5.89628 253.218C5.45586 252.867 4.808 252.973 4.50327 253.447C4.01916 254.2 2.8582 253.928 2.75839 253.039C2.6956 252.479 2.16227 252.096 1.61146 252.216C0.737061 252.406 0.108056 251.392 0.666456 250.693C1.0181 250.253 0.911618 249.605 0.437622 249.3C-0.315114 248.816 -0.043503 247.655 0.845843 247.555C1.40585 247.493 1.78878 246.959 1.66918 246.408C1.47922 245.534 2.4923 244.905 3.19167 245.463C3.63209 245.815 4.27996 245.708 4.58469 245.234Z" fill="#EB5328"/>
<path d="M4.58469 256.871C5.0688 256.118 6.22976 256.39 6.32957 257.279C6.39236 257.839 6.92569 258.222 7.4765 258.103C8.35089 257.913 8.9799 258.926 8.4215 259.625C8.06985 260.066 8.17634 260.713 8.65033 261.018C9.40307 261.502 9.13123 262.663 8.24211 262.763C7.6821 262.826 7.29918 263.359 7.41877 263.91C7.60874 264.784 6.59566 265.413 5.89628 264.855C5.45586 264.503 4.808 264.61 4.50327 265.084C4.01916 265.837 2.8582 265.565 2.75839 264.676C2.6956 264.116 2.16227 263.733 1.61146 263.852C0.737061 264.042 0.108056 263.029 0.666456 262.33C1.0181 261.889 0.911618 261.242 0.437622 260.937C-0.315114 260.453 -0.043503 259.292 0.845843 259.192C1.40585 259.129 1.78878 258.596 1.66918 258.045C1.47922 257.171 2.4923 256.542 3.19167 257.1C3.63209 257.452 4.27996 257.345 4.58469 256.871Z" fill="#EB5328"/>
<path d="M4.58469 268.512C5.0688 267.759 6.22976 268.031 6.32957 268.92C6.39236 269.48 6.92569 269.863 7.4765 269.743C8.35089 269.553 8.9799 270.566 8.4215 271.266C8.06985 271.706 8.17634 272.354 8.65033 272.659C9.40307 273.143 9.13123 274.304 8.24211 274.404C7.6821 274.467 7.29918 275 7.41877 275.551C7.60874 276.425 6.59566 277.054 5.89628 276.496C5.45586 276.144 4.808 276.25 4.50327 276.724C4.01916 277.477 2.8582 277.205 2.75839 276.316C2.6956 275.756 2.16227 275.373 1.61146 275.493C0.737061 275.683 0.108056 274.67 0.666456 273.97C1.0181 273.53 0.911618 272.882 0.437622 272.577C-0.315114 272.094 -0.043503 270.933 0.845843 270.833C1.40585 270.77 1.78878 270.237 1.66918 269.686C1.47922 268.811 2.4923 268.182 3.19167 268.741C3.63209 269.092 4.27996 268.986 4.58469 268.512Z" fill="#EB5328"/>
<path d="M4.58469 280.148C5.0688 279.396 6.22976 279.668 6.32957 280.557C6.39236 281.117 6.92569 281.5 7.4765 281.38C8.35089 281.19 8.9799 282.203 8.4215 282.903C8.06985 283.343 8.17634 283.991 8.65033 284.296C9.40307 284.78 9.13123 285.941 8.24211 286.04C7.6821 286.103 7.29918 286.637 7.41877 287.187C7.60874 288.062 6.59566 288.691 5.89628 288.132C5.45586 287.781 4.808 287.887 4.50327 288.361C4.01916 289.114 2.8582 288.842 2.75839 287.953C2.6956 287.393 2.16227 287.01 1.61146 287.13C0.737061 287.32 0.108056 286.307 0.666456 285.607C1.0181 285.167 0.911618 284.519 0.437622 284.214C-0.315114 283.73 -0.043503 282.569 0.845843 282.469C1.40585 282.407 1.78878 281.873 1.66918 281.323C1.47922 280.448 2.4923 279.819 3.19167 280.377C3.63209 280.729 4.27996 280.622 4.58469 280.148Z" fill="#EB5328"/>
</svg>
