<svg width="64" height="65" viewBox="0 0 64 65" fill="none" xmlns="http://www.w3.org/2000/svg">
<path d="M10.0124 54.5739C11.0281 52.2697 12.1449 50.0185 13.3586 47.8081C14.5723 45.6058 16.277 43.2609 18.4767 40.7695L16.7312 39.1603C15.3331 40.7934 13.7793 41.942 12.0739 42.6021C10.3604 43.2622 8.69352 43.6001 7.07737 43.6118C5.45316 43.6235 4.05758 43.4227 2.87454 43.0175C1.79951 41.6859 1.05634 39.8441 0.641022 37.4962C0.229712 35.1443 0.0876701 32.6447 0.231017 29.9975C0.370312 27.3462 0.796892 24.91 1.4986 22.6768C2.20437 20.4476 3.13495 18.8201 4.28639 17.8064C6.79871 18.0654 9.29145 18.4331 11.7566 18.9176C14.2217 19.402 16.9955 20.3395 20.066 21.742L21.0459 19.5304C19.0789 18.7181 17.5011 17.5894 16.3126 16.1362C15.124 14.6831 14.286 13.1874 13.7862 11.6452C13.2864 10.1029 13.0252 8.71914 12.9987 7.48972C13.7424 6.34896 14.8776 5.31101 16.4082 4.37186C17.9389 3.43271 19.6719 2.63165 21.6029 1.95657C23.534 1.28149 25.5185 0.788061 27.5562 0.468218C29.5939 0.148376 31.4756 0.0493916 33.2133 0.159238C34.943 0.269042 36.3597 0.659341 37.4473 1.32199C37.9279 3.82338 38.3319 6.31227 38.6632 8.78467C38.9946 11.2571 38.9815 14.1468 38.628 17.458L40.9875 17.7807C41.1858 15.6214 41.7645 13.7624 42.7318 12.2117C43.695 10.665 44.8371 9.40942 46.1541 8.449C47.471 7.48858 48.7009 6.83402 49.8357 6.48527C51.4462 6.94107 53.0839 7.96934 54.7568 9.56205C56.4297 11.1548 57.9589 13.0047 59.3523 15.1118C60.8311 17.3524 61.9878 19.6477 62.8182 21.9857C63.6446 24.3277 63.9007 26.2919 63.5825 27.8742C61.4004 29.1082 59.1655 30.2572 56.8778 31.3295C54.5901 32.4017 51.8055 33.2577 48.516 33.8975L49.0364 36.3104C51.1419 35.8498 53.0886 35.8399 54.8723 36.2764C56.6561 36.713 58.2115 37.4184 59.5385 38.3846C60.8615 39.3548 61.8782 40.3234 62.5887 41.3065C62.6783 43.0158 62.2087 44.944 61.1841 47.0949C60.1595 49.2378 58.8082 51.3346 57.1342 53.3814C55.4601 55.4281 53.6917 57.1399 51.8328 58.5207C49.9739 59.9015 48.2448 60.6582 46.6413 60.7869C44.7823 59.0561 42.9795 57.2854 41.2289 55.4787C39.4783 53.6719 37.7772 51.3133 36.1176 48.4027L34.052 49.5607C35.2144 51.4208 35.8488 53.266 35.9511 55.1004C36.0534 56.9348 35.8688 58.6266 35.4013 60.1799C34.9258 61.7332 34.3237 62.9835 33.579 63.9308C32.002 64.503 30.0277 64.6136 27.6479 64.2706C25.2722 63.9237 22.8505 63.2661 20.3828 62.29C17.9151 61.3138 15.7366 60.1537 13.8353 58.8057C11.9339 57.4576 10.661 56.0484 10.0164 54.5699L10.0124 54.5739Z" fill="#EB5328"/>
</svg>
