<svg width="127" height="118" viewBox="0 0 127 118" fill="none" xmlns="http://www.w3.org/2000/svg">
<path d="M58.7008 60.4218C53.7883 60.2651 49.8942 56.1012 50.0504 51.165L51.3639 9.95627C51.5201 5.02586 55.6688 1.11754 60.5871 1.27433C65.4996 1.43113 69.3937 5.59498 69.2374 10.5312L67.924 51.7341C67.7677 56.6645 63.619 60.5728 58.7008 60.416V60.4218Z" fill="#01F1D9"/>
<path d="M58.9957 61.293C58.8916 61.293 58.7816 61.293 58.6775 61.293C56.0679 61.2117 53.6435 60.1025 51.844 58.1802C50.0445 56.258 49.1013 53.7551 49.1881 51.1418L50.5016 9.93305C50.5826 7.31395 51.6878 4.88069 53.603 3.07461C55.5182 1.27434 58.0005 0.321942 60.6158 0.403245C66.0201 0.577464 70.2788 5.1304 70.1052 10.5544L68.7917 51.7573C68.6239 57.0768 64.2553 61.2871 58.9957 61.2871V61.293ZM58.7353 59.545C63.208 59.6727 66.917 56.1709 67.0616 51.7051L68.3751 10.5022C68.5198 6.03634 65.0133 2.29062 60.5638 2.14544C58.4055 2.08156 56.3688 2.85393 54.7891 4.34061C53.2095 5.82728 52.3069 7.8308 52.2374 9.97951L50.924 51.1882C50.8545 53.3427 51.6299 55.3985 53.1111 56.9839C54.5924 58.5693 56.5887 59.4753 58.7295 59.545H58.7353Z" fill="#151970"/>
<path d="M68.5597 66.4962C64.1564 64.3068 62.3338 58.8944 64.5152 54.475L84.5701 13.8354C86.7515 9.41606 92.1442 7.58675 96.5475 9.77611C100.951 11.9655 102.773 17.3779 100.592 21.7973L80.5371 62.4427C78.3557 66.862 72.963 68.6913 68.5597 66.502V66.4962Z" fill="#01F1D9"/>
<path d="M72.5114 68.3023C71.0533 68.3023 69.572 67.9713 68.1718 67.2803C63.3229 64.8702 61.3383 58.9526 63.7338 54.0918L83.7945 13.4464C86.1957 8.57989 92.0861 6.58218 96.9349 8.99221C101.784 11.4023 103.768 17.3199 101.373 22.1806L81.318 62.826C79.6111 66.2872 76.1278 68.3023 72.5114 68.3023ZM92.5953 9.71232C89.6212 9.71232 86.757 11.3674 85.351 14.2188L65.296 54.8642C63.3229 58.8654 64.9604 63.7378 68.9471 65.7181C72.9338 67.6984 77.7884 66.0549 79.7615 62.0537L99.8164 21.4083C100.771 19.4802 100.91 17.2793 100.221 15.2235C99.5329 13.1677 98.0921 11.5068 96.1653 10.5486C95.0197 9.97946 93.7988 9.70651 92.5953 9.70651V9.71232Z" fill="#151970"/>
<path d="M31.1067 115.348C9.87143 110.045 -3.18221 88.2738 2.10058 66.961L5.22512 54.3475C7.8752 43.662 18.7532 37.0881 29.4056 39.7479L72.206 50.4334C80.486 52.5008 85.5779 60.9911 83.518 69.3071L79.323 86.2413C74.0402 107.554 52.3478 120.655 31.1125 115.353L31.1067 115.348Z" fill="#01F1D9"/>
<path d="M40.7059 117.403C37.4367 117.403 34.1502 117.003 30.8983 116.19C20.4022 113.57 11.5319 106.968 5.91935 97.6062C0.300961 88.239 -1.3481 77.2805 1.26147 66.7519L4.38601 54.1384C5.72262 48.7434 9.09018 44.1847 13.8696 41.2984C18.649 38.4122 24.2384 37.5643 29.6138 38.9058L72.4142 49.5913C81.1803 51.7806 86.5383 60.7181 84.3627 69.5162L80.1677 86.4503C77.5581 96.9848 70.9792 105.887 61.6519 111.52C55.2119 115.411 48.0081 117.409 40.7117 117.409L40.7059 117.403ZM31.3207 114.5C41.3655 117.008 51.8154 115.417 60.755 110.022C69.6889 104.627 75.9843 96.1021 78.4839 86.0206L82.6789 69.0864C83.6163 65.2942 83.0203 61.3453 81.0009 57.9654C78.9757 54.5914 75.7818 52.2104 71.9976 51.2696L29.1972 40.5841C24.2731 39.353 19.1466 40.137 14.7664 42.7793C10.3863 45.4274 7.29646 49.6029 6.07558 54.5507L2.95103 67.1642C0.451401 77.2457 2.03682 87.7395 7.41218 96.706C12.7876 105.673 21.2817 111.991 31.3265 114.5H31.3207Z" fill="#151970"/>
<path d="M13.1061 60.2416C8.33253 59.0511 5.40472 54.1555 6.59089 49.3703L10.7859 32.4478C11.972 27.6567 16.8498 24.7182 21.6176 25.9087C26.3912 27.0992 29.319 31.9948 28.1329 36.78L23.9379 53.7026C22.7517 58.4936 17.874 61.4379 13.1061 60.2416Z" fill="#01F1D9"/>
<path d="M15.2643 61.38C14.4831 61.38 13.6904 61.287 12.8977 61.0896C7.64963 59.7771 4.44409 54.4286 5.74598 49.1614L9.94096 32.2388C11.2486 26.9716 16.5777 23.7544 21.8258 25.061C27.0739 26.3735 30.2794 31.722 28.9775 36.9892L24.7825 53.9117C23.6716 58.3834 19.6618 61.38 15.2643 61.38ZM13.3201 59.3997C17.6424 60.4798 22.0283 57.8259 23.0988 53.4936L27.2937 36.5711C27.8145 34.4805 27.4847 32.3027 26.3679 30.4444C25.2512 28.586 23.4922 27.2736 21.4092 26.7567C19.3262 26.2341 17.1621 26.5651 15.3048 27.6859C13.4532 28.8067 12.1455 30.5721 11.6305 32.6628L7.43554 49.5853C6.35931 53.9176 8.99781 58.3253 13.3201 59.3997Z" fill="#151970"/>
<path d="M33.7506 60.9677C28.8092 59.7365 25.7772 54.6725 27.0039 49.7131L31.0427 33.4061C32.2693 28.4467 37.3149 25.4036 42.2563 26.6348C47.1977 27.8659 50.2297 32.9299 49.003 37.8894L44.9642 54.1963C43.7376 59.1558 38.692 62.1988 33.7506 60.9677Z" fill="#01F1D9"/>
<path d="M35.9843 62.1175C35.1685 62.1175 34.3526 62.0188 33.5425 61.8155C28.1267 60.4624 24.817 54.9396 26.1652 49.504L30.2039 33.197C31.5521 27.7614 37.0548 24.4396 42.4706 25.7927C47.8865 27.1458 51.1962 32.6686 49.848 38.1042L45.8093 54.4112C45.1612 57.0361 43.5237 59.2545 41.1977 60.654C39.5949 61.6239 37.8012 62.1175 35.9843 62.1175ZM33.9591 60.1256C36.1232 60.6657 38.374 60.323 40.3008 59.1616C42.2276 58.0001 43.5816 56.165 44.1197 53.993L48.1585 37.6861C49.2752 33.1796 46.5325 28.6093 42.0425 27.4885C37.5582 26.3676 32.9986 29.1203 31.8819 33.6268L27.8431 49.9337C26.7264 54.4402 29.4691 59.0106 33.9591 60.1314V60.1256Z" fill="#151970"/>
<path d="M83.987 66.2233C85.5956 59.7191 81.6552 53.1395 75.1747 51.525L40.3129 42.8257C37.252 42.0591 34.1564 43.929 33.3984 47.0011C31.3154 55.3985 36.413 63.9004 44.7798 65.991L62.0458 70.3001C48.2805 66.8621 34.3473 75.2769 30.9219 89.0925L30.1523 92.1995" fill="#01F1D9"/>
<path d="M30.9973 92.4086L29.3135 91.9904L30.083 88.8835C31.7958 81.9728 36.0833 76.1481 42.1646 72.4779C45.4164 70.515 48.9807 69.2896 52.6376 68.8425L44.5717 66.8273C40.3014 65.7588 36.6967 63.0874 34.4285 59.3011C32.1603 55.5147 31.4949 51.0721 32.5595 46.7805C33.4332 43.2496 37.0091 41.0893 40.5271 41.9662L75.3889 50.6656C82.3207 52.3962 86.5562 59.4637 84.8319 66.4208L83.1482 66.0027C84.641 59.9747 80.9726 53.8538 74.9665 52.3555L40.1047 43.6561C37.5125 43.0115 34.8856 44.5969 34.2375 47.1986C33.2886 51.0372 33.8788 55.0153 35.9097 58.4009C37.9407 61.7866 41.1636 64.1792 44.9825 65.1316L62.2427 69.4406C62.2427 69.4406 62.2485 69.4406 62.2542 69.4406L61.8376 71.1306C55.4034 69.5277 48.7319 70.5324 43.0557 73.9587C37.3736 77.3909 33.3638 82.8323 31.7668 89.29L30.9973 92.397V92.4086Z" fill="#151970"/>
<path d="M108.219 60.2127C105.76 60.4275 105.077 60.8805 103.908 63.0641C103.694 60.596 103.243 59.9107 101.067 58.7376C103.527 58.5227 104.209 58.0698 105.378 55.8862C105.592 58.3543 106.044 59.0396 108.219 60.2127Z" fill="#01F1D9"/>
<path d="M113.201 39.9016C107.311 40.4242 105.685 41.4928 102.885 46.7252C102.364 40.8133 101.299 39.1815 96.0859 36.3707C101.976 35.8481 103.602 34.7795 106.403 29.5471C106.923 35.459 107.988 37.0908 113.201 39.9016Z" fill="#01F1D9"/>
<path d="M126.052 24.1436C123.593 24.3585 122.91 24.8114 121.741 26.995C121.527 24.5269 121.076 23.8416 118.9 22.6685C121.36 22.4537 122.042 22.0007 123.211 19.8171C123.425 22.2852 123.877 22.9705 126.052 24.1436Z" fill="#01F1D9"/>
</svg>
