<svg width="116" height="95" viewBox="0 0 116 95" fill="none" xmlns="http://www.w3.org/2000/svg">
<path d="M47.9763 24.3915C35.2759 29.9105 29.4869 44.6059 35.0461 57.2145C40.6053 69.8231 55.4076 75.5703 68.108 70.0513C80.8083 64.5322 86.5974 49.8369 81.0382 37.2283C75.479 24.6197 60.6766 18.8724 47.9763 24.3915Z" fill="#E64717"/>
<path d="M58.0442 58.2066C85.0531 58.2066 106.948 53.2844 106.948 47.2131C106.948 41.1418 85.0531 36.2196 58.0442 36.2196C31.0354 36.2196 9.14071 41.1418 9.14071 47.2131C9.14071 53.2844 31.0353 58.2066 58.0442 58.2066ZM58.0442 41.7422C79.4663 41.7422 93.6876 44.8077 99.3345 47.2171C93.6876 49.6225 79.4663 52.692 58.0442 52.692C36.6221 52.692 22.4008 49.6265 16.754 47.2171C22.4008 44.8116 36.6222 41.7422 58.0442 41.7422Z" fill="white"/>
<path d="M83.147 47.2151C83.147 60.9798 71.9093 72.1363 58.0444 72.1363C44.1795 72.1363 32.9419 60.9798 32.9419 47.2151" fill="#E64717"/>
<path d="M35.1292 0C39.0099 8.77491 47.8287 14.9058 58.0932 14.9058C68.3577 14.9058 77.1764 8.77491 81.0571 5.19166e-06L35.1292 0Z" fill="#161616"/>
</svg>
