<svg width="83" height="83" viewBox="0 0 83 83" fill="none" xmlns="http://www.w3.org/2000/svg">
<path d="M61.3819 41.8369C103.721 75.9148 76.0809 103.63 41.889 61.3825C7.81103 103.717 -19.9037 76.0815 22.3434 41.8895C-19.9915 7.8116 7.64434 -19.9032 41.8363 22.344C75.9142 -19.9909 103.625 7.64491 61.3819 41.8369Z" fill="#A35BFB"/>
<path d="M81.7318 43.1045C54.074 48.0799 48.1123 54.0534 43.2115 81.7289C42.9545 83.1796 40.8825 83.1824 40.6216 81.7324C35.6462 54.0745 29.6727 48.1128 1.99726 43.2121C0.546563 42.955 0.543769 40.8831 1.99377 40.6222C29.6516 35.6468 35.6133 29.6733 40.5141 1.99782C40.7711 0.547126 42.843 0.544332 43.104 1.99433C48.0794 29.6522 54.0528 35.6139 81.7283 40.5146C83.179 40.7717 83.1818 42.8436 81.7318 43.1045Z" fill="#FFD007"/>
<path d="M41.8765 51.4198C47.1545 51.4126 51.4274 47.1282 51.4203 41.8501C51.4132 36.5721 47.1287 32.2991 41.8507 32.3063C36.5726 32.3134 32.2997 36.5979 32.3068 41.8759C32.3139 47.1539 36.5984 51.4269 41.8765 51.4198Z" fill="#EB5328"/>
</svg>
