<svg width="29" height="29" viewBox="0 0 29 29" fill="none" xmlns="http://www.w3.org/2000/svg">
  <path fill-rule="evenodd" clip-rule="evenodd"
    d="M20.6968 10.3094C20.6968 11.8913 20.0684 13.4084 18.9498 14.527C17.8313 15.6456 16.3141 16.274 14.7322 16.274C13.1503 16.274 11.6332 15.6456 10.5146 14.527C9.39599 13.4084 8.76758 11.8913 8.76758 10.3094C8.76758 8.72744 9.39599 7.21031 10.5146 6.09173C11.6332 4.97314 13.1503 4.34473 14.7322 4.34473C16.3141 4.34473 17.8313 4.97314 18.9498 6.09173C20.0684 7.21031 20.6968 8.72744 20.6968 10.3094ZM17.7145 10.3094C17.7145 11.1003 17.4003 11.8589 16.841 12.4182C16.2817 12.9775 15.5232 13.2917 14.7322 13.2917C13.9413 13.2917 13.1827 12.9775 12.6234 12.4182C12.0641 11.8589 11.7499 11.1003 11.7499 10.3094C11.7499 9.5184 12.0641 8.75984 12.6234 8.20054C13.1827 7.64125 13.9413 7.32704 14.7322 7.32704C15.5232 7.32704 16.2817 7.64125 16.841 8.20054C17.4003 8.75984 17.7145 9.5184 17.7145 10.3094Z"
    fill="white" />
  <path fill-rule="evenodd" clip-rule="evenodd"
    d="M14.7324 0.782715C7.0006 0.782715 0.732422 7.0509 0.732422 14.7827C0.732422 22.5145 7.0006 28.7827 14.7324 28.7827C22.4642 28.7827 28.7324 22.5145 28.7324 14.7827C28.7324 7.0509 22.4642 0.782715 14.7324 0.782715ZM3.27788 14.7827C3.27788 17.4427 4.18533 19.8914 5.70624 21.8362C6.77462 20.4338 8.15262 19.2973 9.73269 18.5153C11.3128 17.7333 13.0522 17.327 14.8151 17.3282C16.5555 17.3261 18.2732 17.7216 19.8375 18.4843C21.4018 19.247 22.7712 20.3569 23.8413 21.7293C24.9441 20.2829 25.6866 18.5948 26.0074 16.8046C26.3282 15.0143 26.2181 13.1734 25.6861 11.4341C25.1542 9.6949 24.2158 8.10732 22.9485 6.80276C21.6812 5.4982 20.1215 4.51417 18.3984 3.93209C16.6753 3.35001 14.8383 3.18661 13.0395 3.45541C11.2407 3.72421 9.53179 4.41749 8.05413 5.47787C6.57646 6.53826 5.37254 7.93528 4.54199 9.55333C3.71143 11.1714 3.27811 12.9639 3.27788 14.7827ZM14.7324 26.2373C12.1028 26.2415 9.5526 25.3369 7.51351 23.6765C8.33418 22.5013 9.42667 21.5418 10.698 20.8797C11.9693 20.2175 13.3817 19.8724 14.8151 19.8736C16.2306 19.8724 17.626 20.2089 18.8853 20.8553C20.1446 21.5017 21.2315 22.4392 22.0557 23.59C20.0008 25.3044 17.4085 26.2414 14.7324 26.2373Z"
    fill="white" />
</svg>