<svg width="64" height="64" viewBox="0 0 64 64" fill="none" xmlns="http://www.w3.org/2000/svg">
<path d="M30.8195 53.708C31.8059 54.6943 33.4051 54.6943 34.3914 53.708L50.4652 37.6342C51.4516 36.6478 51.4516 35.0486 50.4652 34.0622C49.4789 33.0758 47.8797 33.0758 46.8933 34.0622L32.6055 48.35L18.3176 34.0622C17.3313 33.0758 15.7321 33.0758 14.7457 34.0622C13.7593 35.0486 13.7593 36.6478 14.7457 37.6342L30.8195 53.708ZM32.6055 51.9219H30.0797V51.922H32.6055H35.1312V51.9219H32.6055Z" fill="#C2FD5C"/>
<path opacity="0.5" d="M30.8195 33.1806C31.8059 34.167 33.4051 34.167 34.3914 33.1806L50.4652 17.1068C51.4516 16.1204 51.4516 14.5212 50.4652 13.5349C49.4789 12.5485 47.8797 12.5485 46.8933 13.5349L32.6055 27.8227L18.3176 13.5349C17.3313 12.5485 15.7321 12.5485 14.7457 13.5349C13.7593 14.5212 13.7593 16.1204 14.7457 17.1068L30.8195 33.1806ZM32.6055 31.3945H30.0797V31.3946H32.6055H35.1312V31.3945H32.6055Z" fill="#C2FD5C"/>
</svg>
