<svg width="150" height="40" viewBox="0 0 150 40" fill="none" xmlns="http://www.w3.org/2000/svg">
<path d="M57.1623 33.2472C49.8882 33.2472 48.0873 28.7626 48.0873 23.925C48.0873 19.0873 49.9235 14.6734 57.127 14.6734C63.8009 14.6734 65.6724 19.7582 65.2133 25.4434H52.0069C52.2187 28.5508 53.7724 30.3516 57.0211 30.3516C60.0226 30.3516 60.976 28.9039 61.3291 27.4561H65.284C64.9662 30.5282 62.8475 33.2472 57.1623 33.2472ZM52.0422 22.4419H61.3291V22.3713C61.3644 19.8995 60.1991 17.6042 56.7739 17.6042C53.2428 17.6042 52.2187 19.7935 52.0422 22.4419ZM77.2937 33H72.9857L65.6762 14.9206H69.8077L75.175 29.822L80.6836 14.9206H84.9563L77.2937 33ZM94.1585 33.2472C87.0609 33.2472 85.2247 28.7626 85.2247 23.9603C85.2247 19.1932 87.0962 14.6734 94.1938 14.6734C101.221 14.6734 103.163 19.1932 103.163 23.9603C103.163 28.7979 101.221 33.2472 94.1585 33.2472ZM94.1585 30.1751C98.3958 30.1751 99.3139 27.4561 99.3139 23.9603C99.3139 20.6057 98.4665 17.7455 94.1938 17.7455C89.9917 17.7455 89.0736 20.5704 89.0736 23.9603C89.0736 27.3855 89.9917 30.1751 94.1585 30.1751ZM109.917 33H106.138V8.03484H109.917V33ZM123.192 33H118.884L111.574 14.9206H115.706L121.073 29.822L126.581 14.9206H130.854L123.192 33ZM140.268 33.2472C132.994 33.2472 131.193 28.7626 131.193 23.925C131.193 19.0873 133.029 14.6734 140.233 14.6734C146.907 14.6734 148.778 19.7582 148.319 25.4434H135.113C135.325 28.5508 136.878 30.3516 140.127 30.3516C143.128 30.3516 144.082 28.9039 144.435 27.4561H148.39C148.072 30.5282 145.953 33.2472 140.268 33.2472ZM135.148 22.4419H144.435V22.3713C144.47 19.8995 143.305 17.6042 139.88 17.6042C136.349 17.6042 135.325 19.7935 135.148 22.4419Z" fill="#FFD007"/>
<path fill-rule="evenodd" clip-rule="evenodd" d="M38.1714 0H0V11.2423C2.07687 10.0663 4.84435 9.3643 8.50708 9.3643C19.7594 9.3643 23.1063 17.928 22.2407 26.821H2.2173C2.44811 30.8284 5.10252 32.5301 8.56479 32.5301C12.1425 32.5301 13.5851 31.048 13.9313 29.4011H22.2984C22.0017 32.0985 20.7631 34.6346 17.9799 36.3131H38.1714V0ZM14.1044 21.057H2.2173C2.39041 17.4339 4.12154 15.2381 8.10315 15.2381C12.3156 15.2381 13.989 17.4339 14.1044 21.057Z" fill="#FFD007"/>
</svg>
