<svg width="144" height="177" viewBox="0 0 144 177" fill="none" xmlns="http://www.w3.org/2000/svg">
<g clip-path="url(#clip0_985_5799)">
<path d="M72.6104 155.879L65.8562 167.243C65.6438 167.6 65.3631 167.911 65.0178 168.174C60.6139 171.544 45.7885 167.377 30.2791 158.16C14.7697 148.942 4.0242 137.911 4.87959 132.432C4.94584 132.002 5.08429 131.608 5.29668 131.25L12.0508 119.886L72.6104 155.879ZM37.0329 146.796C44.6144 151.302 52.0322 154.601 58.1502 156.402C53.6436 151.89 47.2013 146.951 39.6193 142.444C32.0372 137.938 24.62 134.639 18.502 132.838C23.0086 137.351 29.4509 142.29 37.0329 146.796Z" fill="#FF9A0C"/>
<path d="M12.0514 119.885C10.4519 122.576 13.069 127.396 18.5022 132.837C24.6199 134.639 32.0375 137.938 39.6195 142.444C47.2015 146.95 53.6441 151.889 58.1504 156.402C65.5265 158.574 71.0114 158.569 72.6109 155.878C75.5365 150.955 64.3518 138.908 47.6285 128.968C30.9051 119.029 14.977 114.962 12.0514 119.885Z" fill="#FC312B"/>
<path d="M85.5977 134.027L78.8435 145.392C78.6311 145.749 78.3504 146.059 78.0051 146.322C73.6012 149.692 58.7758 145.526 43.2664 136.308C27.757 127.09 17.0115 116.059 17.8669 110.58C17.9331 110.151 18.0716 109.756 18.284 109.399L25.0382 98.0345L85.5977 134.027ZM50.0203 124.944C57.6017 129.45 65.0195 132.75 71.1375 134.551C66.6309 130.038 60.1886 125.099 52.6066 120.593C45.0246 116.087 37.6073 112.788 31.4893 110.986C35.9959 115.499 42.4383 120.438 50.0203 124.944Z" fill="#FF9A0C"/>
<path d="M25.0377 98.0334C23.4382 100.725 26.0553 105.545 31.4885 110.986C37.6062 112.788 45.0238 116.086 52.6058 120.592C60.1878 125.099 66.6304 130.037 71.1367 134.55C78.5128 136.722 83.9977 136.717 85.5972 134.026C88.5228 129.104 77.3382 117.056 60.6148 107.117C43.8914 97.1775 27.9633 93.1109 25.0377 98.0334Z" fill="#FC312B"/>
<path d="M98.585 112.176L91.8308 123.54C91.6184 123.897 91.3378 124.208 90.9924 124.471C86.5885 127.841 71.7631 123.674 56.2537 114.456C40.7443 105.239 29.9988 94.2075 30.8542 88.7284C30.9204 88.2993 31.0589 87.9044 31.2713 87.5471L38.0255 76.1829L98.585 112.176ZM63.0076 103.093C70.589 107.599 78.0068 110.898 84.1248 112.699C79.6182 108.187 73.1759 103.248 65.5939 98.7413C58.0119 94.235 50.5946 90.9362 44.4766 89.1348C48.9832 93.6474 55.4256 98.5866 63.0076 103.093Z" fill="#FF9A0C"/>
<path d="M38.025 76.1818C36.4255 78.873 39.0426 83.6933 44.4758 89.1343C50.5936 90.9361 58.0111 94.2345 65.5931 98.7407C73.1751 103.247 79.6177 108.186 84.1241 112.699C91.5004 114.87 96.9853 114.865 98.5845 112.175C101.51 107.252 90.3255 95.2046 73.6021 85.2653C56.8787 75.3259 40.9506 71.2594 38.025 76.1818Z" fill="#FC312B"/>
<path d="M111.572 90.3242L104.818 101.688C104.606 102.046 104.325 102.356 103.98 102.619C99.5758 105.989 84.7504 101.823 69.241 92.6049C53.7316 83.3871 42.9861 72.3559 43.8415 66.8769C43.9078 66.4477 44.0462 66.0529 44.2586 65.6955L51.0128 54.3313L111.572 90.3242ZM75.9949 81.2413C83.5763 85.7473 90.9941 89.0464 97.1121 90.8478C92.6055 86.3351 86.1632 81.396 78.5812 76.8897C70.9992 72.3834 63.5819 69.0846 57.4639 67.2833C61.9705 71.7959 68.4129 76.735 75.9949 81.2413Z" fill="#FF9A0C"/>
<path d="M51.0123 54.3303C49.4128 57.0214 52.0299 61.8417 57.4631 67.2827C63.5809 69.0846 70.9984 72.3829 78.5804 76.8892C86.1624 81.3955 92.605 86.3341 97.1114 90.8472C104.487 93.0193 109.972 93.0143 111.572 90.3231C114.497 85.4007 103.313 73.3531 86.5894 63.4137C69.866 53.4744 53.9379 49.4078 51.0123 54.3303Z" fill="#FC312B"/>
<path d="M81.2919 72.3247C66.233 63.3746 61.254 43.9567 70.1709 28.9536C79.0878 13.9505 98.5241 9.04352 113.583 17.9936C128.642 26.9437 133.621 46.3616 124.704 61.3648C115.787 76.3679 96.3509 81.2748 81.2919 72.3247Z" fill="#FF9A0C"/>
<path d="M84.3849 67.1239C72.2103 59.8881 68.1849 44.1894 75.3939 32.0599C82.603 19.9304 98.3165 15.9633 110.491 23.1991C122.666 30.435 126.691 46.1337 119.482 58.2632C112.273 70.3927 96.5595 74.3597 84.3849 67.1239Z" fill="#34267D"/>
<path d="M78.7799 34.0722C82.9827 50.4628 99.6896 60.3924 116.096 56.2505C111.893 39.8599 95.1859 29.9303 78.7799 34.0722Z" fill="white"/>
<path d="M89.8797 47.0703C88.8105 42.9004 91.3273 38.6657 95.5011 37.612C99.675 36.5582 103.925 39.0844 104.995 43.2544C106.064 47.4243 103.547 51.6589 99.3732 52.7127C95.1993 53.7664 90.9489 51.2402 89.8797 47.0703Z" fill="#027242"/>
<path d="M95.2833 48.7878C93.2734 47.5932 92.6088 45.0015 93.799 42.9991C94.9891 40.9966 97.5833 40.3417 99.5932 41.5363C101.603 42.7308 102.268 45.3225 101.077 47.325C99.8873 49.3275 97.2932 49.9824 95.2833 48.7878Z" fill="#231F20"/>
</g>
<defs>
<clipPath id="clip0_985_5799">
<rect width="70.4481" height="163.05" fill="white" transform="matrix(-0.859632 -0.510913 -0.510913 0.859632 143.863 35.9922)"/>
</clipPath>
</defs>
</svg>
