<svg width="372" height="256" viewBox="0 0 372 256" fill="none" xmlns="http://www.w3.org/2000/svg">
<g clip-path="url(#clip0_1811_3564)">
<path d="M81.6252 119.124L34.8061 84.3529L108.807 -15.2903L155.626 19.4803L155.611 19.4688L186.45 42.3718L186.434 42.3603L185.405 35.3894L127.405 -7.68476L147.337 -34.5229L209.337 11.522L216.257 2.20413C220.407 1.59137 222.739 1.24695 226.889 0.634185L288.116 46.105C288.729 50.255 289.074 52.5876 289.686 56.7376L282.766 66.0554L344.767 112.1L324.835 138.939L266.835 95.8644L259.864 96.8937L327.431 147.073L297.659 187.162L305.493 196.795L294.693 211.338L283.206 206.622L253.434 246.711L216.711 219.439L185.872 196.536L186.902 203.506L244.896 246.577L224.965 273.415L162.965 227.37L156.045 236.688C151.895 237.301 149.562 237.645 145.412 238.258L84.185 192.787C83.5722 188.637 83.2277 186.304 82.6148 182.154L89.5348 172.837L27.5347 126.792L47.4664 99.9534L105.466 143.028L112.437 141.998L112.453 142.01L81.6135 119.107" fill="#A35BFB"/>
<path d="M81.6252 119.124L34.8061 84.3529L108.807 -15.2904L155.626 19.4803L155.611 19.4688L186.45 42.3718L186.434 42.3603L185.405 35.3894L127.405 -7.68476L147.337 -34.523L209.337 11.522L216.257 2.20413C220.407 1.59137 222.739 1.24695 226.889 0.634186L288.116 46.105C288.729 50.255 289.074 52.5876 289.686 56.7376L282.766 66.0554L344.767 112.1L324.835 138.939L266.835 95.8644L259.864 96.8937L327.431 147.073L297.659 187.162L305.493 196.795L294.693 211.338L283.206 206.622L253.434 246.711L216.711 219.439L185.872 196.536L186.902 203.506L244.896 246.577L224.965 273.415L162.965 227.37L156.045 236.688C151.895 237.301 149.562 237.645 145.412 238.258L84.185 192.787C83.5722 188.637 83.2277 186.304 82.6148 182.154L89.5348 172.837L27.5347 126.792L47.4664 99.9534L105.466 143.028L112.437 141.998L112.453 142.01L81.6135 119.107" stroke="#C2FD5C" stroke-linecap="round" stroke-linejoin="round"/>
<path d="M220.699 254.02L232.859 237.646" stroke="#A35BFB" stroke-width="2" stroke-linecap="round" stroke-linejoin="round"/>
<path d="M332.449 102.953L320.289 119.327" stroke="#A35BFB" stroke-width="2" stroke-linecap="round" stroke-linejoin="round"/>
<path d="M47.3399 125.272L59.5 108.898" stroke="#A35BFB" stroke-width="2" stroke-linecap="round" stroke-linejoin="round"/>
<path d="M89.1484 32.3086L74.6919 51.7745" stroke="#A35BFB" stroke-width="2" stroke-linecap="round" stroke-linejoin="round"/>
<path d="M259.871 96.8984L185.87 196.542" stroke="#B1A2AB" stroke-linecap="round" stroke-linejoin="round" stroke-dasharray="2.44 3.25 2.44 3.25 2.44 3.25"/>
<path d="M290.703 119.797L216.702 219.44" stroke="#B1A2AB" stroke-linecap="round" stroke-linejoin="round" stroke-dasharray="2.44 3.25 2.44 3.25 2.44 3.25"/>
<path d="M155.609 19.4688L81.6083 119.112" stroke="#B1A2AB" stroke-linecap="round" stroke-linejoin="round" stroke-dasharray="2.44 3.25 2.44 3.25 2.44 3.25"/>
<path d="M186.449 42.3711L112.448 142.014" stroke="#B1A2AB" stroke-linecap="round" stroke-linejoin="round" stroke-dasharray="2.44 3.25 2.44 3.25 2.44 3.25"/>
<path d="M209.336 11.5216L186.449 42.3714" stroke="#B1A2AB" stroke-linecap="round" stroke-linejoin="round" stroke-dasharray="2.44 3.25 2.44 3.25 2.44 3.25"/>
<path d="M282.762 66.0529L259.875 96.9027" stroke="#B1A2AB" stroke-linecap="round" stroke-linejoin="round" stroke-dasharray="2.44 3.25 2.44 3.25 2.44 3.25"/>
<path d="M112.438 142.004L89.5508 172.854" stroke="#B1A2AB" stroke-linecap="round" stroke-linejoin="round" stroke-dasharray="2.44 3.25 2.44 3.25 2.44 3.25"/>
<path d="M185.859 196.533L162.973 227.383" stroke="#B1A2AB" stroke-linecap="round" stroke-linejoin="round" stroke-dasharray="2.44 3.25 2.44 3.25 2.44 3.25"/>
<path d="M209.338 11.5213L282.773 66.0586" stroke="#B1A2AB" stroke-linecap="round" stroke-linejoin="round" stroke-dasharray="2.44 3.25 2.44 3.25 2.44 3.25"/>
<path d="M186.436 42.3612L259.871 96.8984" stroke="#B1A2AB" stroke-linecap="round" stroke-linejoin="round" stroke-dasharray="2.44 3.25 2.44 3.25 2.44 3.25"/>
<path d="M112.432 142.004L185.867 196.541" stroke="#B1A2AB" stroke-linecap="round" stroke-linejoin="round" stroke-dasharray="2.44 3.25 2.44 3.25 2.44 3.25"/>
<path d="M89.5337 172.842L162.969 227.379" stroke="#B1A2AB" stroke-linecap="round" stroke-linejoin="round" stroke-dasharray="2.44 3.25 2.44 3.25 2.44 3.25"/>
</g>
<defs>
<clipPath id="clip0_1811_3564">
<rect width="240" height="285" fill="white" transform="translate(371.898 107.924) rotate(126.6)"/>
</clipPath>
</defs>
</svg>
