<svg width="112" height="112" viewBox="0 0 112 112" fill="none" xmlns="http://www.w3.org/2000/svg">
<path d="M56.5025 5.39252C62.4688 -3.88433 76.7767 -0.534118 78.0068 10.4235C78.7806 17.3252 85.3534 22.0444 92.1417 20.5705C102.918 18.2293 110.67 30.7147 103.788 39.334C99.4544 44.7618 100.767 52.7462 106.608 56.5017C115.885 62.468 112.535 76.7758 101.577 78.006C94.6756 78.7797 89.9564 85.3526 91.4303 92.1409C93.7715 102.917 81.2861 110.669 72.6668 103.787C67.239 99.4536 59.2547 100.766 55.4991 106.607C49.5328 115.884 35.225 112.534 33.9949 101.576C33.2211 94.6748 26.6482 89.9556 19.8599 91.4295C9.08367 93.7707 1.3317 81.2853 8.21353 72.666C12.5473 67.2382 11.235 59.2538 5.39334 55.4983C-3.88352 49.5348 -0.536139 35.227 10.4243 33.9969C17.326 33.2231 22.0452 26.6502 20.5713 19.8619C18.2302 9.08286 30.7155 1.33372 39.3348 8.21271C44.7626 12.5464 52.747 11.2341 56.5025 5.39252Z" fill="#01F1D9"/>
</svg>
