<svg width="284" height="209" viewBox="0 0 284 209" fill="none" xmlns="http://www.w3.org/2000/svg">
<path d="M47.6631 69.193C47.6895 68.902 47.6631 68.6334 47.7423 68.3423C51.122 46.0456 80.1661 30.8229 112.59 34.3823C118.874 35.0763 124.788 36.4194 130.254 38.2775C138.809 31.5392 150.506 27.935 162.783 29.2782C170.572 30.1289 177.543 32.8824 183.22 36.9119C193.781 30.9348 206.666 28.047 220.053 29.5021C250.153 32.7929 271.303 56.8134 267.289 83.1621C266.735 86.7887 265.705 90.2809 264.306 93.5941C278.168 103.937 285.877 118.241 283.607 133.106C280.729 152.112 262.352 166.73 238.272 171.767C229.796 192.833 204.66 206.645 177.49 203.668C169.147 202.772 161.516 200.332 154.809 196.795C146.941 205.279 135.112 210.137 122.729 208.772C108.629 207.227 97.6453 198.049 93.4736 186.005C90.4899 186.788 87.4271 187.37 84.2058 187.706C56.4027 190.639 31.2664 175.394 28.0715 153.612C27.4643 149.538 27.6755 145.508 28.626 141.658C9.56253 132.434 -2.02869 117.704 0.29483 102.481C2.90881 85.3336 22.3683 72.5734 47.7159 69.193H47.6631Z" fill="#C2FD5C"/>
<path d="M113.265 81.36V85.968C113.265 86.688 113.353 87.136 113.529 87.312C113.705 87.488 114.113 87.576 114.753 87.576H115.881V90H113.913C112.745 90 111.865 89.728 111.273 89.184C110.681 88.624 110.385 87.632 110.385 86.208V81.36H108.465V78.96H110.385V75.72L113.265 75.456V78.96H115.881V81.36H113.265ZM120.127 78.48L119.383 81.816L119.839 81.984C120.047 80.96 120.487 80.12 121.159 79.464C121.831 78.792 122.647 78.456 123.607 78.456C124.663 78.456 125.551 78.88 126.271 79.728C126.991 80.576 127.351 81.616 127.351 82.848V90H124.447V83.112C124.447 82.456 124.247 81.936 123.847 81.552C123.463 81.152 122.959 80.952 122.335 80.952C121.695 80.952 121.167 81.16 120.751 81.576C120.335 81.976 120.127 82.504 120.127 83.16V90H117.223V73.512H120.127V78.48ZM129.099 75.96C129.099 75.512 129.267 75.12 129.603 74.784C129.939 74.448 130.331 74.28 130.779 74.28C131.243 74.28 131.635 74.448 131.955 74.784C132.291 75.12 132.459 75.512 132.459 75.96C132.459 76.424 132.291 76.824 131.955 77.16C131.635 77.496 131.243 77.664 130.779 77.664C130.331 77.664 129.939 77.496 129.603 77.16C129.267 76.824 129.099 76.424 129.099 75.96ZM129.363 78.96H132.267V90H129.363V78.96ZM143.911 86.856C143.911 87.976 143.487 88.88 142.639 89.568C141.791 90.24 140.663 90.576 139.255 90.576C137.831 90.576 136.639 90.248 135.679 89.592C134.719 88.92 134.103 88 133.831 86.832L136.615 86.424C136.999 87.624 137.855 88.224 139.183 88.224C139.727 88.224 140.167 88.112 140.503 87.888C140.839 87.664 141.007 87.368 141.007 87C141.007 86.152 140.111 85.64 138.319 85.464C136.943 85.336 135.871 84.96 135.103 84.336C134.351 83.712 133.975 82.896 133.975 81.888C133.975 80.816 134.391 79.968 135.223 79.344C136.055 78.72 137.183 78.408 138.607 78.408C141.359 78.408 143.095 79.56 143.815 81.864L141.007 82.416C140.639 81.312 139.839 80.76 138.607 80.76C138.079 80.76 137.655 80.864 137.335 81.072C137.031 81.28 136.879 81.552 136.879 81.888C136.879 82.608 137.695 83.072 139.327 83.28C140.895 83.472 142.047 83.864 142.783 84.456C143.535 85.032 143.911 85.832 143.911 86.856ZM150.404 75.96C150.404 75.512 150.572 75.12 150.908 74.784C151.244 74.448 151.636 74.28 152.084 74.28C152.548 74.28 152.94 74.448 153.26 74.784C153.596 75.12 153.764 75.512 153.764 75.96C153.764 76.424 153.596 76.824 153.26 77.16C152.94 77.496 152.548 77.664 152.084 77.664C151.636 77.664 151.244 77.496 150.908 77.16C150.572 76.824 150.404 76.424 150.404 75.96ZM150.668 78.96H153.572V90H150.668V78.96ZM165.216 86.856C165.216 87.976 164.792 88.88 163.944 89.568C163.096 90.24 161.968 90.576 160.56 90.576C159.136 90.576 157.944 90.248 156.984 89.592C156.024 88.92 155.408 88 155.136 86.832L157.92 86.424C158.304 87.624 159.16 88.224 160.488 88.224C161.032 88.224 161.472 88.112 161.808 87.888C162.144 87.664 162.312 87.368 162.312 87C162.312 86.152 161.416 85.64 159.624 85.464C158.248 85.336 157.176 84.96 156.408 84.336C155.656 83.712 155.28 82.896 155.28 81.888C155.28 80.816 155.696 79.968 156.528 79.344C157.36 78.72 158.488 78.408 159.912 78.408C162.664 78.408 164.4 79.56 165.12 81.864L162.312 82.416C161.944 81.312 161.144 80.76 159.912 80.76C159.384 80.76 158.96 80.864 158.64 81.072C158.336 81.28 158.184 81.552 158.184 81.888C158.184 82.608 159 83.072 160.632 83.28C162.2 83.472 163.352 83.864 164.088 84.456C164.84 85.032 165.216 85.832 165.216 86.856ZM174.421 86.856C174.421 87.24 174.573 87.544 174.877 87.768C175.197 87.992 175.629 88.104 176.173 88.104C176.957 88.104 177.597 87.88 178.093 87.432C178.589 86.968 178.837 86.368 178.837 85.632V85.296L176.005 85.536C175.525 85.568 175.141 85.704 174.853 85.944C174.565 86.184 174.421 86.488 174.421 86.856ZM181.765 90H179.149L179.557 87.24L179.149 87.144C178.909 88.184 178.437 89.008 177.733 89.616C177.045 90.208 176.205 90.504 175.213 90.504C174.141 90.504 173.269 90.192 172.597 89.568C171.925 88.928 171.589 88.104 171.589 87.096C171.589 86.136 171.893 85.36 172.501 84.768C173.125 84.176 173.989 83.832 175.093 83.736L178.837 83.4V82.704C178.837 82.176 178.645 81.752 178.261 81.432C177.893 81.096 177.397 80.928 176.773 80.928C176.149 80.928 175.629 81.104 175.213 81.456C174.797 81.808 174.549 82.28 174.469 82.872L171.589 82.464C171.797 81.248 172.373 80.28 173.317 79.56C174.261 78.824 175.421 78.456 176.797 78.456C178.221 78.456 179.405 78.832 180.349 79.584C181.293 80.336 181.765 81.288 181.765 82.44V90ZM183.762 78.96H186.354L185.922 81.816L186.354 81.984C186.562 80.96 187.002 80.12 187.674 79.464C188.362 78.792 189.186 78.456 190.146 78.456C191.202 78.456 192.09 78.88 192.81 79.728C193.53 80.576 193.89 81.616 193.89 82.848V90H190.986V83.112C190.986 82.456 190.786 81.936 190.386 81.552C190.002 81.152 189.498 80.952 188.874 80.952C188.234 80.952 187.706 81.16 187.29 81.576C186.874 81.976 186.666 82.504 186.666 83.16V90H183.762V78.96ZM61.3651 104.96C61.3651 104.512 61.5331 104.12 61.8691 103.784C62.2051 103.448 62.5971 103.28 63.0451 103.28C63.5091 103.28 63.9011 103.448 64.2211 103.784C64.5571 104.12 64.7251 104.512 64.7251 104.96C64.7251 105.424 64.5571 105.824 64.2211 106.16C63.9011 106.496 63.5091 106.664 63.0451 106.664C62.5971 106.664 62.2051 106.496 61.8691 106.16C61.5331 105.824 61.3651 105.424 61.3651 104.96ZM61.6291 107.96H64.5331V119H61.6291V107.96ZM66.4807 107.96H69.0727L68.6407 110.816L69.0727 110.984C69.2807 109.96 69.7207 109.12 70.3927 108.464C71.0807 107.792 71.9047 107.456 72.8647 107.456C73.9207 107.456 74.8087 107.88 75.5287 108.728C76.2487 109.576 76.6087 110.616 76.6087 111.848V119H73.7047V112.112C73.7047 111.456 73.5047 110.936 73.1047 110.552C72.7207 110.152 72.2167 109.952 71.5927 109.952C70.9527 109.952 70.4247 110.16 70.0087 110.576C69.5927 110.976 69.3847 111.504 69.3847 112.16V119H66.4807V107.96ZM82.3045 110.36V114.968C82.3045 115.688 82.3925 116.136 82.5685 116.312C82.7445 116.488 83.1525 116.576 83.7925 116.576H84.9205V119H82.9525C81.7845 119 80.9045 118.728 80.3125 118.184C79.7205 117.624 79.4245 116.632 79.4245 115.208V110.36H77.5045V107.96H79.4245V104.72L82.3045 104.456V107.96H84.9205V110.36H82.3045ZM88.619 114.248C88.683 115.128 88.955 115.8 89.435 116.264C89.915 116.728 90.571 116.96 91.403 116.96C92.027 116.96 92.547 116.808 92.963 116.504C93.395 116.184 93.667 115.752 93.779 115.208L96.611 115.64C96.339 116.84 95.731 117.784 94.787 118.472C93.859 119.16 92.731 119.504 91.403 119.504C89.611 119.504 88.203 118.968 87.179 117.896C86.171 116.808 85.667 115.32 85.667 113.432C85.667 111.576 86.155 110.112 87.131 109.04C88.107 107.952 89.443 107.408 91.139 107.408C92.835 107.408 94.171 107.952 95.147 109.04C96.123 110.112 96.611 111.528 96.611 113.288V114.248H88.619ZM88.667 112.28H93.659C93.659 111.592 93.419 111.032 92.939 110.6C92.459 110.152 91.859 109.928 91.139 109.928C90.435 109.928 89.867 110.136 89.435 110.552C89.019 110.952 88.763 111.528 88.667 112.28ZM98.2385 107.96H100.83L100.35 110.768L100.854 110.96C101.03 109.984 101.422 109.216 102.03 108.656C102.638 108.08 103.39 107.792 104.286 107.792H105.222V110.504H103.974C103.206 110.504 102.542 110.736 101.982 111.2C101.422 111.664 101.142 112.248 101.142 112.952V119H98.2385V107.96ZM108.939 114.248C109.003 115.128 109.275 115.8 109.755 116.264C110.235 116.728 110.891 116.96 111.723 116.96C112.347 116.96 112.867 116.808 113.283 116.504C113.715 116.184 113.987 115.752 114.099 115.208L116.931 115.64C116.659 116.84 116.051 117.784 115.107 118.472C114.179 119.16 113.051 119.504 111.723 119.504C109.931 119.504 108.523 118.968 107.499 117.896C106.491 116.808 105.987 115.32 105.987 113.432C105.987 111.576 106.475 110.112 107.451 109.04C108.427 107.952 109.763 107.408 111.459 107.408C113.155 107.408 114.491 107.952 115.467 109.04C116.443 110.112 116.931 111.528 116.931 113.288V114.248H108.939ZM108.987 112.28H113.979C113.979 111.592 113.739 111.032 113.259 110.6C112.779 110.152 112.179 109.928 111.459 109.928C110.755 109.928 110.187 110.136 109.755 110.552C109.339 110.952 109.083 111.528 108.987 112.28ZM128.255 115.856C128.255 116.976 127.831 117.88 126.983 118.568C126.135 119.24 125.007 119.576 123.599 119.576C122.175 119.576 120.983 119.248 120.023 118.592C119.063 117.92 118.447 117 118.175 115.832L120.959 115.424C121.343 116.624 122.199 117.224 123.527 117.224C124.071 117.224 124.511 117.112 124.847 116.888C125.183 116.664 125.351 116.368 125.351 116C125.351 115.152 124.455 114.64 122.663 114.464C121.287 114.336 120.215 113.96 119.447 113.336C118.695 112.712 118.319 111.896 118.319 110.888C118.319 109.816 118.735 108.968 119.567 108.344C120.399 107.72 121.527 107.408 122.951 107.408C125.703 107.408 127.439 108.56 128.159 110.864L125.351 111.416C124.983 110.312 124.183 109.76 122.951 109.76C122.423 109.76 121.999 109.864 121.679 110.072C121.375 110.28 121.223 110.552 121.223 110.888C121.223 111.608 122.039 112.072 123.671 112.28C125.239 112.472 126.391 112.864 127.127 113.456C127.879 114.032 128.255 114.832 128.255 115.856ZM133.562 110.36V114.968C133.562 115.688 133.65 116.136 133.826 116.312C134.002 116.488 134.41 116.576 135.05 116.576H136.178V119H134.21C133.042 119 132.162 118.728 131.57 118.184C130.978 117.624 130.682 116.632 130.682 115.208V110.36H128.762V107.96H130.682V104.72L133.562 104.456V107.96H136.178V110.36H133.562ZM137.256 104.96C137.256 104.512 137.424 104.12 137.76 103.784C138.096 103.448 138.488 103.28 138.936 103.28C139.4 103.28 139.792 103.448 140.112 103.784C140.448 104.12 140.616 104.512 140.616 104.96C140.616 105.424 140.448 105.824 140.112 106.16C139.792 106.496 139.4 106.664 138.936 106.664C138.488 106.664 138.096 106.496 137.76 106.16C137.424 105.824 137.256 105.424 137.256 104.96ZM137.52 107.96H140.424V119H137.52V107.96ZM142.371 107.96H144.963L144.531 110.816L144.963 110.984C145.171 109.96 145.611 109.12 146.283 108.464C146.971 107.792 147.795 107.456 148.755 107.456C149.811 107.456 150.699 107.88 151.419 108.728C152.139 109.576 152.499 110.616 152.499 111.848V119H149.595V112.112C149.595 111.456 149.395 110.936 148.995 110.552C148.611 110.152 148.107 109.952 147.483 109.952C146.843 109.952 146.315 110.16 145.899 110.576C145.483 110.976 145.275 111.504 145.275 112.16V119H142.371V107.96ZM156.96 111.368C156.96 111.912 157.136 112.336 157.488 112.64C157.856 112.944 158.36 113.096 159 113.096C159.656 113.096 160.16 112.944 160.512 112.64C160.88 112.336 161.064 111.912 161.064 111.368C161.064 110.84 160.888 110.432 160.536 110.144C160.184 109.856 159.68 109.712 159.024 109.712C158.368 109.712 157.856 109.856 157.488 110.144C157.136 110.432 156.96 110.84 156.96 111.368ZM153.816 120.752C153.816 120.016 154.144 119.432 154.8 119C155.472 118.584 156.384 118.376 157.536 118.376V118.112C155.84 117.952 154.992 117.384 154.992 116.408C154.992 115.48 155.816 114.928 157.464 114.752V114.464C156.44 114.32 155.64 113.952 155.064 113.36C154.488 112.752 154.2 111.984 154.2 111.056C154.2 109.968 154.624 109.088 155.472 108.416C156.336 107.744 157.472 107.408 158.88 107.408C159.632 107.408 160.32 107.52 160.944 107.744L161.088 107.48C160.576 107.112 160.32 106.688 160.32 106.208C160.32 105.776 160.496 105.44 160.848 105.2C161.216 104.96 161.728 104.84 162.384 104.84H164.376V107.192H162.48C162 107.192 161.76 107.368 161.76 107.72C161.76 107.848 161.832 108.008 161.976 108.2C163.192 108.952 163.8 110.056 163.8 111.512C163.8 112.616 163.408 113.512 162.624 114.2C161.84 114.888 160.824 115.232 159.576 115.232C158.936 115.232 158.48 115.28 158.208 115.376C157.952 115.456 157.824 115.6 157.824 115.808C157.824 116 157.936 116.144 158.16 116.24C158.384 116.336 158.784 116.416 159.36 116.48C162.592 116.752 164.208 117.976 164.208 120.152C164.208 121.256 163.744 122.12 162.816 122.744C161.888 123.384 160.624 123.704 159.024 123.704C157.424 123.704 156.152 123.44 155.208 122.912C154.28 122.384 153.816 121.664 153.816 120.752ZM156.552 119.984C156.552 120.384 156.776 120.696 157.224 120.92C157.672 121.144 158.288 121.256 159.072 121.256C159.824 121.256 160.408 121.144 160.824 120.92C161.24 120.696 161.448 120.384 161.448 119.984C161.448 119.664 161.272 119.4 160.92 119.192C160.584 119 159.984 118.84 159.12 118.712C158.336 118.712 157.712 118.824 157.248 119.048C156.784 119.288 156.552 119.6 156.552 119.984ZM173.424 113.504C173.424 114.64 173.664 115.512 174.144 116.12C174.624 116.728 175.288 117.032 176.136 117.032C176.984 117.032 177.64 116.728 178.104 116.12C178.584 115.512 178.824 114.64 178.824 113.504C178.824 112.368 178.584 111.496 178.104 110.888C177.64 110.28 176.984 109.976 176.136 109.976C175.288 109.976 174.624 110.28 174.144 110.888C173.664 111.496 173.424 112.368 173.424 113.504ZM170.496 123.704V107.96H173.088L172.632 110.768L173.088 110.96C173.376 109.824 173.856 108.96 174.528 108.368C175.2 107.76 176.04 107.456 177.048 107.456C178.44 107.456 179.568 107.992 180.432 109.064C181.312 110.136 181.752 111.592 181.752 113.432C181.752 115.352 181.288 116.856 180.36 117.944C179.432 119.016 178.288 119.552 176.928 119.552C175.952 119.552 175.136 119.248 174.48 118.64C173.824 118.032 173.36 117.152 173.088 116L172.608 116.192L173.424 119.48V123.704H170.496ZM185.835 115.856C185.835 116.24 185.987 116.544 186.291 116.768C186.611 116.992 187.043 117.104 187.587 117.104C188.371 117.104 189.011 116.88 189.507 116.432C190.003 115.968 190.251 115.368 190.251 114.632V114.296L187.419 114.536C186.939 114.568 186.555 114.704 186.267 114.944C185.979 115.184 185.835 115.488 185.835 115.856ZM193.179 119H190.563L190.971 116.24L190.563 116.144C190.323 117.184 189.851 118.008 189.147 118.616C188.459 119.208 187.619 119.504 186.627 119.504C185.555 119.504 184.683 119.192 184.011 118.568C183.339 117.928 183.003 117.104 183.003 116.096C183.003 115.136 183.307 114.36 183.915 113.768C184.539 113.176 185.403 112.832 186.507 112.736L190.251 112.4V111.704C190.251 111.176 190.059 110.752 189.675 110.432C189.307 110.096 188.811 109.928 188.187 109.928C187.563 109.928 187.043 110.104 186.627 110.456C186.211 110.808 185.963 111.28 185.883 111.872L183.003 111.464C183.211 110.248 183.787 109.28 184.731 108.56C185.675 107.824 186.835 107.456 188.211 107.456C189.635 107.456 190.819 107.832 191.763 108.584C192.707 109.336 193.179 110.288 193.179 111.44V119ZM198.859 110.36V114.968C198.859 115.688 198.947 116.136 199.123 116.312C199.299 116.488 199.707 116.576 200.347 116.576H201.475V119H199.507C198.339 119 197.459 118.728 196.867 118.184C196.275 117.624 195.979 116.632 195.979 115.208V110.36H194.059V107.96H195.979V104.72L198.859 104.456V107.96H201.475V110.36H198.859ZM206.969 110.36V114.968C206.969 115.688 207.057 116.136 207.233 116.312C207.409 116.488 207.817 116.576 208.457 116.576H209.585V119H207.617C206.449 119 205.569 118.728 204.977 118.184C204.385 117.624 204.089 116.632 204.089 115.208V110.36H202.169V107.96H204.089V104.72L206.969 104.456V107.96H209.585V110.36H206.969ZM213.283 114.248C213.347 115.128 213.619 115.8 214.099 116.264C214.579 116.728 215.235 116.96 216.067 116.96C216.691 116.96 217.211 116.808 217.627 116.504C218.059 116.184 218.331 115.752 218.443 115.208L221.275 115.64C221.003 116.84 220.395 117.784 219.451 118.472C218.523 119.16 217.395 119.504 216.067 119.504C214.275 119.504 212.867 118.968 211.843 117.896C210.835 116.808 210.331 115.32 210.331 113.432C210.331 111.576 210.819 110.112 211.795 109.04C212.771 107.952 214.107 107.408 215.803 107.408C217.499 107.408 218.835 107.952 219.811 109.04C220.787 110.112 221.275 111.528 221.275 113.288V114.248H213.283ZM213.331 112.28H218.323C218.323 111.592 218.083 111.032 217.603 110.6C217.123 110.152 216.523 109.928 215.803 109.928C215.099 109.928 214.531 110.136 214.099 110.552C213.683 110.952 213.427 111.528 213.331 112.28ZM222.903 107.96H225.495L225.015 110.768L225.519 110.96C225.695 109.984 226.087 109.216 226.695 108.656C227.303 108.08 228.055 107.792 228.951 107.792H229.887V110.504H228.639C227.871 110.504 227.207 110.736 226.647 111.2C226.087 111.664 225.807 112.248 225.807 112.952V119H222.903V107.96ZM231.246 107.96H233.838L233.406 110.816L233.838 110.984C234.046 109.96 234.486 109.12 235.158 108.464C235.846 107.792 236.67 107.456 237.63 107.456C238.686 107.456 239.574 107.88 240.294 108.728C241.014 109.576 241.374 110.616 241.374 111.848V119H238.47V112.112C238.47 111.456 238.27 110.936 237.87 110.552C237.486 110.152 236.982 109.952 236.358 109.952C235.718 109.952 235.19 110.16 234.774 110.576C234.358 110.976 234.15 111.504 234.15 112.16V119H231.246V107.96ZM75.5051 142.432C75.5051 143.568 75.7291 144.44 76.1771 145.048C76.6251 145.656 77.2491 145.96 78.0491 145.96C78.8491 145.96 79.4731 145.656 79.9211 145.048C80.3691 144.44 80.5931 143.568 80.5931 142.432C80.5931 141.312 80.3691 140.448 79.9211 139.84C79.4731 139.232 78.8491 138.928 78.0491 138.928C77.2491 138.928 76.6251 139.232 76.1771 139.84C75.7291 140.448 75.5051 141.312 75.5051 142.432ZM72.5771 142.432C72.5771 140.528 73.0651 139.048 74.0411 137.992C75.0331 136.936 76.3691 136.408 78.0491 136.408C79.6171 136.408 80.9211 136.944 81.9611 138.016C83.0011 139.088 83.5211 140.56 83.5211 142.432C83.5211 144.352 83.0251 145.848 82.0331 146.92C81.0411 147.976 79.7051 148.504 78.0251 148.504C76.3611 148.504 75.0331 147.976 74.0411 146.92C73.0651 145.848 72.5771 144.352 72.5771 142.432ZM85.1486 136.96H87.7406L87.3086 139.816L87.7406 139.984C87.9486 138.96 88.3886 138.12 89.0606 137.464C89.7486 136.792 90.5726 136.456 91.5326 136.456C92.5886 136.456 93.4766 136.88 94.1966 137.728C94.9166 138.576 95.2766 139.616 95.2766 140.848V148H92.3726V141.112C92.3726 140.456 92.1726 139.936 91.7726 139.552C91.3886 139.152 90.8846 138.952 90.2606 138.952C89.6206 138.952 89.0926 139.16 88.6766 139.576C88.2606 139.976 88.0526 140.504 88.0526 141.16V148H85.1486V136.96ZM106.574 139.36V143.968C106.574 144.688 106.662 145.136 106.838 145.312C107.014 145.488 107.422 145.576 108.062 145.576H109.19V148H107.222C106.054 148 105.174 147.728 104.582 147.184C103.99 146.624 103.694 145.632 103.694 144.208V139.36H101.774V136.96H103.694V133.72L106.574 133.456V136.96H109.19V139.36H106.574ZM113.435 136.48L112.691 139.816L113.147 139.984C113.355 138.96 113.795 138.12 114.467 137.464C115.139 136.792 115.955 136.456 116.915 136.456C117.971 136.456 118.859 136.88 119.579 137.728C120.299 138.576 120.659 139.616 120.659 140.848V148H117.755V141.112C117.755 140.456 117.555 139.936 117.155 139.552C116.771 139.152 116.267 138.952 115.643 138.952C115.003 138.952 114.475 139.16 114.059 139.576C113.643 139.976 113.435 140.504 113.435 141.16V148H110.531V131.512H113.435V136.48ZM125.24 143.248C125.304 144.128 125.576 144.8 126.056 145.264C126.536 145.728 127.192 145.96 128.024 145.96C128.648 145.96 129.168 145.808 129.584 145.504C130.016 145.184 130.288 144.752 130.4 144.208L133.232 144.64C132.96 145.84 132.352 146.784 131.408 147.472C130.48 148.16 129.352 148.504 128.024 148.504C126.232 148.504 124.824 147.968 123.8 146.896C122.792 145.808 122.288 144.32 122.288 142.432C122.288 140.576 122.776 139.112 123.752 138.04C124.728 136.952 126.064 136.408 127.76 136.408C129.456 136.408 130.792 136.952 131.768 138.04C132.744 139.112 133.232 140.528 133.232 142.288V143.248H125.24ZM125.288 141.28H130.28C130.28 140.592 130.04 140.032 129.56 139.6C129.08 139.152 128.48 138.928 127.76 138.928C127.056 138.928 126.488 139.136 126.056 139.552C125.64 139.952 125.384 140.528 125.288 141.28ZM142.56 143.248C142.624 144.128 142.896 144.8 143.376 145.264C143.856 145.728 144.512 145.96 145.344 145.96C145.968 145.96 146.488 145.808 146.904 145.504C147.336 145.184 147.608 144.752 147.72 144.208L150.552 144.64C150.28 145.84 149.672 146.784 148.728 147.472C147.8 148.16 146.672 148.504 145.344 148.504C143.552 148.504 142.144 147.968 141.12 146.896C140.112 145.808 139.608 144.32 139.608 142.432C139.608 140.576 140.096 139.112 141.072 138.04C142.048 136.952 143.384 136.408 145.08 136.408C146.776 136.408 148.112 136.952 149.088 138.04C150.064 139.112 150.552 140.528 150.552 142.288V143.248H142.56ZM142.608 141.28H147.6C147.6 140.592 147.36 140.032 146.88 139.6C146.4 139.152 145.8 138.928 145.08 138.928C144.376 138.928 143.808 139.136 143.376 139.552C142.96 139.952 142.704 140.528 142.608 141.28ZM161.876 144.856C161.876 145.976 161.452 146.88 160.604 147.568C159.756 148.24 158.628 148.576 157.22 148.576C155.796 148.576 154.604 148.248 153.644 147.592C152.684 146.92 152.068 146 151.796 144.832L154.58 144.424C154.964 145.624 155.82 146.224 157.148 146.224C157.692 146.224 158.132 146.112 158.468 145.888C158.804 145.664 158.972 145.368 158.972 145C158.972 144.152 158.076 143.64 156.284 143.464C154.908 143.336 153.836 142.96 153.068 142.336C152.316 141.712 151.94 140.896 151.94 139.888C151.94 138.816 152.356 137.968 153.188 137.344C154.02 136.72 155.148 136.408 156.572 136.408C159.324 136.408 161.06 137.56 161.78 139.864L158.972 140.416C158.604 139.312 157.804 138.76 156.572 138.76C156.044 138.76 155.62 138.864 155.3 139.072C154.996 139.28 154.844 139.552 154.844 139.888C154.844 140.608 155.66 141.072 157.292 141.28C158.86 141.472 160.012 141.864 160.748 142.456C161.5 143.032 161.876 143.832 161.876 144.856ZM173.964 140.776L171.18 141.184C170.988 140.464 170.676 139.912 170.244 139.528C169.828 139.128 169.308 138.928 168.684 138.928C167.852 138.928 167.204 139.232 166.74 139.84C166.276 140.448 166.044 141.312 166.044 142.432C166.044 143.568 166.276 144.44 166.74 145.048C167.204 145.656 167.852 145.96 168.684 145.96C169.34 145.96 169.892 145.744 170.34 145.312C170.804 144.88 171.1 144.272 171.228 143.488L174.06 143.896C173.788 145.352 173.164 146.488 172.188 147.304C171.212 148.104 170.044 148.504 168.684 148.504C166.988 148.504 165.636 147.976 164.628 146.92C163.62 145.848 163.116 144.352 163.116 142.432C163.116 140.528 163.62 139.048 164.628 137.992C165.636 136.936 166.988 136.408 168.684 136.408C169.9 136.408 170.98 136.792 171.924 137.56C172.868 138.312 173.548 139.384 173.964 140.776ZM178.042 144.856C178.042 145.24 178.194 145.544 178.498 145.768C178.818 145.992 179.25 146.104 179.794 146.104C180.578 146.104 181.218 145.88 181.714 145.432C182.21 144.968 182.458 144.368 182.458 143.632V143.296L179.626 143.536C179.146 143.568 178.762 143.704 178.474 143.944C178.186 144.184 178.042 144.488 178.042 144.856ZM185.386 148H182.77L183.178 145.24L182.77 145.144C182.53 146.184 182.058 147.008 181.354 147.616C180.666 148.208 179.826 148.504 178.834 148.504C177.762 148.504 176.89 148.192 176.218 147.568C175.546 146.928 175.21 146.104 175.21 145.096C175.21 144.136 175.514 143.36 176.122 142.768C176.746 142.176 177.61 141.832 178.714 141.736L182.458 141.4V140.704C182.458 140.176 182.266 139.752 181.882 139.432C181.514 139.096 181.018 138.928 180.394 138.928C179.77 138.928 179.25 139.104 178.834 139.456C178.418 139.808 178.17 140.28 178.09 140.872L175.21 140.464C175.418 139.248 175.994 138.28 176.938 137.56C177.882 136.824 179.042 136.456 180.418 136.456C181.842 136.456 183.026 136.832 183.97 137.584C184.914 138.336 185.386 139.288 185.386 140.44V148ZM187.383 131.512H190.287V148H187.383V131.512ZM194.753 144.856C194.753 145.24 194.905 145.544 195.209 145.768C195.529 145.992 195.961 146.104 196.505 146.104C197.289 146.104 197.929 145.88 198.425 145.432C198.921 144.968 199.169 144.368 199.169 143.632V143.296L196.337 143.536C195.857 143.568 195.473 143.704 195.185 143.944C194.897 144.184 194.753 144.488 194.753 144.856ZM202.097 148H199.481L199.889 145.24L199.481 145.144C199.241 146.184 198.769 147.008 198.065 147.616C197.377 148.208 196.537 148.504 195.545 148.504C194.473 148.504 193.601 148.192 192.929 147.568C192.257 146.928 191.921 146.104 191.921 145.096C191.921 144.136 192.225 143.36 192.833 142.768C193.457 142.176 194.321 141.832 195.425 141.736L199.169 141.4V140.704C199.169 140.176 198.977 139.752 198.593 139.432C198.225 139.096 197.729 138.928 197.105 138.928C196.481 138.928 195.961 139.104 195.545 139.456C195.129 139.808 194.881 140.28 194.801 140.872L191.921 140.464C192.129 139.248 192.705 138.28 193.649 137.56C194.593 136.824 195.753 136.456 197.129 136.456C198.553 136.456 199.737 136.832 200.681 137.584C201.625 138.336 202.097 139.288 202.097 140.44V148ZM207.777 139.36V143.968C207.777 144.688 207.865 145.136 208.041 145.312C208.217 145.488 208.625 145.576 209.265 145.576H210.393V148H208.425C207.257 148 206.377 147.728 205.785 147.184C205.193 146.624 204.897 145.632 204.897 144.208V139.36H202.977V136.96H204.897V133.72L207.777 133.456V136.96H210.393V139.36H207.777ZM214.068 142.432C214.068 143.568 214.292 144.44 214.74 145.048C215.188 145.656 215.812 145.96 216.612 145.96C217.412 145.96 218.036 145.656 218.484 145.048C218.932 144.44 219.156 143.568 219.156 142.432C219.156 141.312 218.932 140.448 218.484 139.84C218.036 139.232 217.412 138.928 216.612 138.928C215.812 138.928 215.188 139.232 214.74 139.84C214.292 140.448 214.068 141.312 214.068 142.432ZM211.14 142.432C211.14 140.528 211.628 139.048 212.604 137.992C213.596 136.936 214.932 136.408 216.612 136.408C218.18 136.408 219.484 136.944 220.524 138.016C221.564 139.088 222.084 140.56 222.084 142.432C222.084 144.352 221.588 145.848 220.596 146.92C219.604 147.976 218.268 148.504 216.588 148.504C214.924 148.504 213.596 147.976 212.604 146.92C211.628 145.848 211.14 144.352 211.14 142.432ZM223.711 136.96H226.303L225.823 139.768L226.327 139.96C226.503 138.984 226.895 138.216 227.503 137.656C228.111 137.08 228.863 136.792 229.759 136.792H230.695V139.504H229.447C228.679 139.504 228.015 139.736 227.455 140.2C226.895 140.664 226.615 141.248 226.615 141.952V148H223.711V136.96Z" fill="#161616"/>
<circle cx="33.5" cy="40.5" r="16.5" fill="#C2FD5C"/>
<circle cx="10" cy="10" r="10" fill="#C2FD5C"/>
</svg>
