<svg width="353" height="135" viewBox="0 0 353 135" fill="none" xmlns="http://www.w3.org/2000/svg">
<rect x="22" width="331" height="135" rx="12" fill="#C2FD5C"/>
<path d="M57.912 35.48L57.168 38.816L57.624 38.984C57.832 37.96 58.272 37.12 58.944 36.464C59.616 35.792 60.432 35.456 61.392 35.456C62.448 35.456 63.336 35.88 64.056 36.728C64.776 37.576 65.136 38.616 65.136 39.848V47H62.232V40.112C62.232 39.456 62.032 38.936 61.632 38.552C61.248 38.152 60.744 37.952 60.12 37.952C59.48 37.952 58.952 38.16 58.536 38.576C58.12 38.976 57.912 39.504 57.912 40.16V47H55.008V30.512H57.912V35.48ZM69.6926 41.432C69.6926 42.568 69.9166 43.44 70.3646 44.048C70.8126 44.656 71.4366 44.96 72.2366 44.96C73.0366 44.96 73.6606 44.656 74.1086 44.048C74.5566 43.44 74.7806 42.568 74.7806 41.432C74.7806 40.312 74.5566 39.448 74.1086 38.84C73.6606 38.232 73.0366 37.928 72.2366 37.928C71.4366 37.928 70.8126 38.232 70.3646 38.84C69.9166 39.448 69.6926 40.312 69.6926 41.432ZM66.7646 41.432C66.7646 39.528 67.2526 38.048 68.2286 36.992C69.2206 35.936 70.5566 35.408 72.2366 35.408C73.8046 35.408 75.1086 35.944 76.1486 37.016C77.1886 38.088 77.7086 39.56 77.7086 41.432C77.7086 43.352 77.2126 44.848 76.2206 45.92C75.2286 46.976 73.8926 47.504 72.2126 47.504C70.5486 47.504 69.2206 46.976 68.2286 45.92C67.2526 44.848 66.7646 43.352 66.7646 41.432ZM86.5423 40.112L84.9343 47H81.0703L78.4303 35.96H81.4063L82.7503 42.272L82.9423 44.096H83.2543L83.4943 42.272L85.0303 35.96H88.6783L90.2383 42.272L90.4543 44.096H90.7663L90.9823 42.272L92.3263 35.96H95.2783L92.6623 47H88.7983L87.1663 40.112L86.9983 38.36H86.7343L86.5423 40.112ZM112.253 39.776L109.469 40.184C109.277 39.464 108.965 38.912 108.533 38.528C108.117 38.128 107.597 37.928 106.973 37.928C106.141 37.928 105.493 38.232 105.029 38.84C104.565 39.448 104.333 40.312 104.333 41.432C104.333 42.568 104.565 43.44 105.029 44.048C105.493 44.656 106.141 44.96 106.973 44.96C107.629 44.96 108.181 44.744 108.629 44.312C109.093 43.88 109.389 43.272 109.517 42.488L112.349 42.896C112.077 44.352 111.453 45.488 110.477 46.304C109.501 47.104 108.333 47.504 106.973 47.504C105.277 47.504 103.925 46.976 102.917 45.92C101.909 44.848 101.405 43.352 101.405 41.432C101.405 39.528 101.909 38.048 102.917 36.992C103.925 35.936 105.277 35.408 106.973 35.408C108.189 35.408 109.269 35.792 110.213 36.56C111.157 37.312 111.837 38.384 112.253 39.776ZM116.427 41.432C116.427 42.568 116.651 43.44 117.099 44.048C117.547 44.656 118.171 44.96 118.971 44.96C119.771 44.96 120.395 44.656 120.843 44.048C121.291 43.44 121.515 42.568 121.515 41.432C121.515 40.312 121.291 39.448 120.843 38.84C120.395 38.232 119.771 37.928 118.971 37.928C118.171 37.928 117.547 38.232 117.099 38.84C116.651 39.448 116.427 40.312 116.427 41.432ZM113.499 41.432C113.499 39.528 113.987 38.048 114.963 36.992C115.955 35.936 117.291 35.408 118.971 35.408C120.539 35.408 121.843 35.944 122.883 37.016C123.923 38.088 124.443 39.56 124.443 41.432C124.443 43.352 123.947 44.848 122.955 45.92C121.963 46.976 120.627 47.504 118.947 47.504C117.283 47.504 115.955 46.976 114.963 45.92C113.987 44.848 113.499 43.352 113.499 41.432ZM126.071 35.96H128.663L128.255 38.864L128.663 38.96C128.855 37.872 129.255 37.016 129.863 36.392C130.487 35.768 131.255 35.456 132.167 35.456C132.967 35.456 133.679 35.808 134.303 36.512C134.927 37.2 135.239 38.008 135.239 38.936V39.056L135.647 39.128C135.823 37.976 136.239 37.08 136.895 36.44C137.551 35.784 138.391 35.456 139.415 35.456C140.487 35.456 141.351 35.888 142.007 36.752C142.679 37.616 143.015 38.704 143.015 40.016V47H140.087V40.28C140.087 39.56 139.911 38.992 139.559 38.576C139.207 38.16 138.687 37.952 137.999 37.952C137.375 37.952 136.887 38.168 136.535 38.6C136.183 39.032 136.007 39.608 136.007 40.328V47H133.079V40.28C133.079 39.56 132.903 38.992 132.551 38.576C132.215 38.16 131.735 37.952 131.111 37.952C130.455 37.952 129.935 38.168 129.551 38.6C129.167 39.032 128.975 39.608 128.975 40.328V47H126.071V35.96ZM147.599 42.248C147.663 43.128 147.935 43.8 148.415 44.264C148.895 44.728 149.551 44.96 150.383 44.96C151.007 44.96 151.527 44.808 151.943 44.504C152.375 44.184 152.647 43.752 152.759 43.208L155.591 43.64C155.319 44.84 154.711 45.784 153.767 46.472C152.839 47.16 151.711 47.504 150.383 47.504C148.591 47.504 147.183 46.968 146.159 45.896C145.151 44.808 144.647 43.32 144.647 41.432C144.647 39.576 145.135 38.112 146.111 37.04C147.087 35.952 148.423 35.408 150.119 35.408C151.815 35.408 153.151 35.952 154.127 37.04C155.103 38.112 155.591 39.528 155.591 41.288V42.248H147.599ZM147.647 40.28H152.639C152.639 39.592 152.399 39.032 151.919 38.6C151.439 38.152 150.839 37.928 150.119 37.928C149.415 37.928 148.847 38.136 148.415 38.552C147.999 38.952 147.743 39.528 147.647 40.28ZM162.352 35.96H164.944L164.536 38.864L164.944 38.96C165.136 37.872 165.536 37.016 166.144 36.392C166.768 35.768 167.536 35.456 168.448 35.456C169.248 35.456 169.96 35.808 170.584 36.512C171.208 37.2 171.52 38.008 171.52 38.936V39.056L171.928 39.128C172.104 37.976 172.52 37.08 173.176 36.44C173.832 35.784 174.672 35.456 175.696 35.456C176.768 35.456 177.632 35.888 178.288 36.752C178.96 37.616 179.296 38.704 179.296 40.016V47H176.368V40.28C176.368 39.56 176.192 38.992 175.84 38.576C175.488 38.16 174.968 37.952 174.28 37.952C173.656 37.952 173.168 38.168 172.816 38.6C172.464 39.032 172.288 39.608 172.288 40.328V47H169.36V40.28C169.36 39.56 169.184 38.992 168.832 38.576C168.496 38.16 168.016 37.952 167.392 37.952C166.736 37.952 166.216 38.168 165.832 38.6C165.448 39.032 165.256 39.608 165.256 40.328V47H162.352V35.96ZM183.857 41.432C183.857 42.568 184.081 43.44 184.529 44.048C184.977 44.656 185.601 44.96 186.401 44.96C187.201 44.96 187.825 44.656 188.273 44.048C188.721 43.44 188.945 42.568 188.945 41.432C188.945 40.312 188.721 39.448 188.273 38.84C187.825 38.232 187.201 37.928 186.401 37.928C185.601 37.928 184.977 38.232 184.529 38.84C184.081 39.448 183.857 40.312 183.857 41.432ZM180.929 41.432C180.929 39.528 181.417 38.048 182.393 36.992C183.385 35.936 184.721 35.408 186.401 35.408C187.969 35.408 189.273 35.944 190.313 37.016C191.353 38.088 191.873 39.56 191.873 41.432C191.873 43.352 191.377 44.848 190.385 45.92C189.393 46.976 188.057 47.504 186.377 47.504C184.713 47.504 183.385 46.976 182.393 45.92C181.417 44.848 180.929 43.352 180.929 41.432ZM197.124 38.864C196.644 39.472 196.404 40.336 196.404 41.456C196.404 42.576 196.644 43.44 197.124 44.048C197.604 44.656 198.268 44.96 199.116 44.96C199.964 44.96 200.62 44.656 201.084 44.048C201.564 43.44 201.804 42.576 201.804 41.456C201.804 40.32 201.564 39.448 201.084 38.84C200.62 38.232 199.964 37.928 199.116 37.928C198.268 37.928 197.604 38.24 197.124 38.864ZM193.5 30.512H196.404V35.48L195.612 38.768L196.068 38.96C196.34 37.808 196.82 36.928 197.508 36.32C198.212 35.712 199.076 35.408 200.1 35.408C201.444 35.408 202.548 35.968 203.412 37.088C204.292 38.192 204.732 39.672 204.732 41.528C204.732 43.352 204.316 44.808 203.484 45.896C202.652 46.968 201.556 47.504 200.196 47.504C199.156 47.504 198.284 47.208 197.58 46.616C196.876 46.008 196.38 45.136 196.092 44L195.612 44.192L196.236 47H193.5V30.512ZM206.08 32.96C206.08 32.512 206.248 32.12 206.584 31.784C206.92 31.448 207.312 31.28 207.76 31.28C208.224 31.28 208.616 31.448 208.936 31.784C209.272 32.12 209.44 32.512 209.44 32.96C209.44 33.424 209.272 33.824 208.936 34.16C208.616 34.496 208.224 34.664 207.76 34.664C207.312 34.664 206.92 34.496 206.584 34.16C206.248 33.824 206.08 33.424 206.08 32.96ZM206.344 35.96H209.248V47H206.344V35.96ZM211.196 30.512H214.1V47H211.196V30.512ZM218.685 42.248C218.749 43.128 219.021 43.8 219.501 44.264C219.981 44.728 220.637 44.96 221.469 44.96C222.093 44.96 222.613 44.808 223.029 44.504C223.461 44.184 223.733 43.752 223.845 43.208L226.677 43.64C226.405 44.84 225.797 45.784 224.853 46.472C223.925 47.16 222.797 47.504 221.469 47.504C219.677 47.504 218.269 46.968 217.245 45.896C216.237 44.808 215.733 43.32 215.733 41.432C215.733 39.576 216.221 38.112 217.197 37.04C218.173 35.952 219.509 35.408 221.205 35.408C222.901 35.408 224.237 35.952 225.213 37.04C226.189 38.112 226.677 39.528 226.677 41.288V42.248H218.685ZM218.733 40.28H223.725C223.725 39.592 223.485 39.032 223.005 38.6C222.525 38.152 221.925 37.928 221.205 37.928C220.501 37.928 219.933 38.136 219.501 38.552C219.085 38.952 218.829 39.528 218.733 40.28ZM236.366 41.504C236.366 42.64 236.606 43.512 237.086 44.12C237.566 44.728 238.23 45.032 239.078 45.032C239.926 45.032 240.582 44.728 241.046 44.12C241.526 43.512 241.766 42.64 241.766 41.504C241.766 40.368 241.526 39.496 241.046 38.888C240.582 38.28 239.926 37.976 239.078 37.976C238.23 37.976 237.566 38.28 237.086 38.888C236.606 39.496 236.366 40.368 236.366 41.504ZM233.438 51.704V35.96H236.03L235.574 38.768L236.03 38.96C236.318 37.824 236.798 36.96 237.47 36.368C238.142 35.76 238.982 35.456 239.99 35.456C241.382 35.456 242.51 35.992 243.374 37.064C244.254 38.136 244.694 39.592 244.694 41.432C244.694 43.352 244.23 44.856 243.302 45.944C242.374 47.016 241.23 47.552 239.87 47.552C238.894 47.552 238.078 47.248 237.422 46.64C236.766 46.032 236.302 45.152 236.03 44L235.55 44.192L236.366 47.48V51.704H233.438ZM249.232 35.48L248.488 38.816L248.944 38.984C249.152 37.96 249.592 37.12 250.264 36.464C250.936 35.792 251.752 35.456 252.712 35.456C253.768 35.456 254.656 35.88 255.376 36.728C256.096 37.576 256.456 38.616 256.456 39.848V47H253.552V40.112C253.552 39.456 253.352 38.936 252.952 38.552C252.568 38.152 252.064 37.952 251.44 37.952C250.8 37.952 250.272 38.16 249.856 38.576C249.44 38.976 249.232 39.504 249.232 40.16V47H246.328V30.512H249.232V35.48ZM261.013 41.432C261.013 42.568 261.237 43.44 261.685 44.048C262.133 44.656 262.757 44.96 263.557 44.96C264.357 44.96 264.981 44.656 265.429 44.048C265.877 43.44 266.101 42.568 266.101 41.432C266.101 40.312 265.877 39.448 265.429 38.84C264.981 38.232 264.357 37.928 263.557 37.928C262.757 37.928 262.133 38.232 261.685 38.84C261.237 39.448 261.013 40.312 261.013 41.432ZM258.085 41.432C258.085 39.528 258.573 38.048 259.549 36.992C260.541 35.936 261.877 35.408 263.557 35.408C265.125 35.408 266.429 35.944 267.469 37.016C268.509 38.088 269.029 39.56 269.029 41.432C269.029 43.352 268.533 44.848 267.541 45.92C266.549 46.976 265.213 47.504 263.533 47.504C261.869 47.504 260.541 46.976 259.549 45.92C258.573 44.848 258.085 43.352 258.085 41.432ZM270.656 35.96H273.248L272.816 38.816L273.248 38.984C273.456 37.96 273.896 37.12 274.568 36.464C275.256 35.792 276.08 35.456 277.04 35.456C278.096 35.456 278.984 35.88 279.704 36.728C280.424 37.576 280.784 38.616 280.784 39.848V47H277.88V40.112C277.88 39.456 277.68 38.936 277.28 38.552C276.896 38.152 276.392 37.952 275.768 37.952C275.128 37.952 274.6 38.16 274.184 38.576C273.768 38.976 273.56 39.504 273.56 40.16V47H270.656V35.96ZM285.365 42.248C285.429 43.128 285.701 43.8 286.181 44.264C286.661 44.728 287.317 44.96 288.149 44.96C288.773 44.96 289.293 44.808 289.709 44.504C290.141 44.184 290.413 43.752 290.525 43.208L293.357 43.64C293.085 44.84 292.477 45.784 291.533 46.472C290.605 47.16 289.477 47.504 288.149 47.504C286.357 47.504 284.949 46.968 283.925 45.896C282.917 44.808 282.413 43.32 282.413 41.432C282.413 39.576 282.901 38.112 283.877 37.04C284.853 35.952 286.189 35.408 287.885 35.408C289.581 35.408 290.917 35.952 291.893 37.04C292.869 38.112 293.357 39.528 293.357 41.288V42.248H285.365ZM285.413 40.28H290.405C290.405 39.592 290.165 39.032 289.685 38.6C289.205 38.152 288.605 37.928 287.885 37.928C287.181 37.928 286.613 38.136 286.181 38.552C285.765 38.952 285.509 39.528 285.413 40.28ZM304.681 43.856C304.681 44.976 304.257 45.88 303.409 46.568C302.561 47.24 301.433 47.576 300.025 47.576C298.601 47.576 297.409 47.248 296.449 46.592C295.489 45.92 294.873 45 294.601 43.832L297.385 43.424C297.769 44.624 298.625 45.224 299.953 45.224C300.497 45.224 300.937 45.112 301.273 44.888C301.609 44.664 301.777 44.368 301.777 44C301.777 43.152 300.881 42.64 299.089 42.464C297.713 42.336 296.641 41.96 295.873 41.336C295.121 40.712 294.745 39.896 294.745 38.888C294.745 37.816 295.161 36.968 295.993 36.344C296.825 35.72 297.953 35.408 299.377 35.408C302.129 35.408 303.865 36.56 304.585 38.864L301.777 39.416C301.409 38.312 300.609 37.76 299.377 37.76C298.849 37.76 298.425 37.864 298.105 38.072C297.801 38.28 297.649 38.552 297.649 38.888C297.649 39.608 298.465 40.072 300.097 40.28C301.665 40.472 302.817 40.864 303.553 41.456C304.305 42.032 304.681 42.832 304.681 43.856ZM57.456 72.856C57.456 73.24 57.608 73.544 57.912 73.768C58.232 73.992 58.664 74.104 59.208 74.104C59.992 74.104 60.632 73.88 61.128 73.432C61.624 72.968 61.872 72.368 61.872 71.632V71.296L59.04 71.536C58.56 71.568 58.176 71.704 57.888 71.944C57.6 72.184 57.456 72.488 57.456 72.856ZM64.8 76H62.184L62.592 73.24L62.184 73.144C61.944 74.184 61.472 75.008 60.768 75.616C60.08 76.208 59.24 76.504 58.248 76.504C57.176 76.504 56.304 76.192 55.632 75.568C54.96 74.928 54.624 74.104 54.624 73.096C54.624 72.136 54.928 71.36 55.536 70.768C56.16 70.176 57.024 69.832 58.128 69.736L61.872 69.4V68.704C61.872 68.176 61.68 67.752 61.296 67.432C60.928 67.096 60.432 66.928 59.808 66.928C59.184 66.928 58.664 67.104 58.248 67.456C57.832 67.808 57.584 68.28 57.504 68.872L54.624 68.464C54.832 67.248 55.408 66.28 56.352 65.56C57.296 64.824 58.456 64.456 59.832 64.456C61.256 64.456 62.44 64.832 63.384 65.584C64.328 66.336 64.8 67.288 64.8 68.44V76ZM66.7971 59.512H69.7011V76H66.7971V59.512ZM79.1829 69.112L77.5749 76H73.7109L71.0709 64.96H74.0469L75.3909 71.272L75.5829 73.096H75.8949L76.1349 71.272L77.6709 64.96H81.3189L82.8789 71.272L83.0949 73.096H83.4069L83.6229 71.272L84.9669 64.96H87.9189L85.3029 76H81.4389L79.8069 69.112L79.6389 67.36H79.3749L79.1829 69.112ZM91.4873 72.856C91.4873 73.24 91.6393 73.544 91.9433 73.768C92.2633 73.992 92.6953 74.104 93.2393 74.104C94.0233 74.104 94.6633 73.88 95.1593 73.432C95.6553 72.968 95.9033 72.368 95.9033 71.632V71.296L93.0713 71.536C92.5913 71.568 92.2073 71.704 91.9193 71.944C91.6313 72.184 91.4873 72.488 91.4873 72.856ZM98.8313 76H96.2153L96.6233 73.24L96.2153 73.144C95.9753 74.184 95.5033 75.008 94.7993 75.616C94.1113 76.208 93.2713 76.504 92.2793 76.504C91.2073 76.504 90.3353 76.192 89.6633 75.568C88.9913 74.928 88.6553 74.104 88.6553 73.096C88.6553 72.136 88.9593 71.36 89.5673 70.768C90.1913 70.176 91.0553 69.832 92.1593 69.736L95.9033 69.4V68.704C95.9033 68.176 95.7113 67.752 95.3273 67.432C94.9593 67.096 94.4633 66.928 93.8393 66.928C93.2153 66.928 92.6953 67.104 92.2793 67.456C91.8633 67.808 91.6153 68.28 91.5353 68.872L88.6553 68.464C88.8633 67.248 89.4393 66.28 90.3833 65.56C91.3273 64.824 92.4873 64.456 93.8633 64.456C95.2873 64.456 96.4713 64.832 97.4153 65.584C98.3593 66.336 98.8313 67.288 98.8313 68.44V76ZM106.067 71.992L108.203 64.96H111.347L106.763 78.016C106.475 78.848 106.035 79.488 105.443 79.936C104.851 80.384 104.187 80.608 103.451 80.608H100.595V77.992H102.323C102.707 77.992 102.995 77.912 103.187 77.752C103.395 77.608 103.555 77.352 103.667 76.984L103.931 76L99.9225 64.96H103.043L105.227 71.992L105.467 73.336H105.803L106.067 71.992ZM122.149 72.856C122.149 73.976 121.725 74.88 120.877 75.568C120.029 76.24 118.901 76.576 117.493 76.576C116.069 76.576 114.877 76.248 113.917 75.592C112.957 74.92 112.341 74 112.069 72.832L114.853 72.424C115.237 73.624 116.093 74.224 117.421 74.224C117.965 74.224 118.405 74.112 118.741 73.888C119.077 73.664 119.245 73.368 119.245 73C119.245 72.152 118.349 71.64 116.557 71.464C115.181 71.336 114.109 70.96 113.341 70.336C112.589 69.712 112.213 68.896 112.213 67.888C112.213 66.816 112.629 65.968 113.461 65.344C114.293 64.72 115.421 64.408 116.845 64.408C119.597 64.408 121.333 65.56 122.053 67.864L119.245 68.416C118.877 67.312 118.077 66.76 116.845 66.76C116.317 66.76 115.893 66.864 115.573 67.072C115.269 67.28 115.117 67.552 115.117 67.888C115.117 68.608 115.933 69.072 117.565 69.28C119.133 69.472 120.285 69.864 121.021 70.456C121.773 71.032 122.149 71.832 122.149 72.856ZM131.81 64.48L131.066 67.816L131.522 67.984C131.73 66.96 132.17 66.12 132.842 65.464C133.514 64.792 134.33 64.456 135.29 64.456C136.346 64.456 137.234 64.88 137.954 65.728C138.674 66.576 139.034 67.616 139.034 68.848V76H136.13V69.112C136.13 68.456 135.93 67.936 135.53 67.552C135.146 67.152 134.642 66.952 134.018 66.952C133.378 66.952 132.85 67.16 132.434 67.576C132.018 67.976 131.81 68.504 131.81 69.16V76H128.906V59.512H131.81V64.48ZM143.495 72.856C143.495 73.24 143.647 73.544 143.951 73.768C144.271 73.992 144.703 74.104 145.247 74.104C146.031 74.104 146.671 73.88 147.167 73.432C147.663 72.968 147.911 72.368 147.911 71.632V71.296L145.079 71.536C144.599 71.568 144.215 71.704 143.927 71.944C143.639 72.184 143.495 72.488 143.495 72.856ZM150.839 76H148.223L148.631 73.24L148.223 73.144C147.983 74.184 147.511 75.008 146.807 75.616C146.119 76.208 145.279 76.504 144.287 76.504C143.215 76.504 142.343 76.192 141.671 75.568C140.999 74.928 140.663 74.104 140.663 73.096C140.663 72.136 140.967 71.36 141.575 70.768C142.199 70.176 143.063 69.832 144.167 69.736L147.911 69.4V68.704C147.911 68.176 147.719 67.752 147.335 67.432C146.967 67.096 146.471 66.928 145.847 66.928C145.223 66.928 144.703 67.104 144.287 67.456C143.871 67.808 143.623 68.28 143.543 68.872L140.663 68.464C140.871 67.248 141.447 66.28 142.391 65.56C143.335 64.824 144.495 64.456 145.871 64.456C147.295 64.456 148.479 64.832 149.423 65.584C150.367 66.336 150.839 67.288 150.839 68.44V76ZM158.05 72.064L160.21 64.96H163.354L159.802 76H155.482L151.93 64.96H155.05L157.234 72.064L157.474 73.408H157.81L158.05 72.064ZM167.029 71.248C167.093 72.128 167.365 72.8 167.845 73.264C168.325 73.728 168.981 73.96 169.813 73.96C170.437 73.96 170.957 73.808 171.373 73.504C171.805 73.184 172.077 72.752 172.189 72.208L175.021 72.64C174.749 73.84 174.141 74.784 173.197 75.472C172.269 76.16 171.141 76.504 169.813 76.504C168.021 76.504 166.613 75.968 165.589 74.896C164.581 73.808 164.077 72.32 164.077 70.432C164.077 68.576 164.565 67.112 165.541 66.04C166.517 64.952 167.853 64.408 169.549 64.408C171.245 64.408 172.581 64.952 173.557 66.04C174.533 67.112 175.021 68.528 175.021 70.288V71.248H167.029ZM167.077 69.28H172.069C172.069 68.592 171.829 68.032 171.349 67.6C170.869 67.152 170.269 66.928 169.549 66.928C168.845 66.928 168.277 67.136 167.845 67.552C167.429 67.952 167.173 68.528 167.077 69.28ZM181.781 64.96H184.373L183.893 67.768L184.397 67.96C184.573 66.984 184.965 66.216 185.573 65.656C186.181 65.08 186.933 64.792 187.829 64.792H188.765V67.504H187.517C186.749 67.504 186.085 67.736 185.525 68.2C184.965 68.664 184.685 69.248 184.685 69.952V76H181.781V64.96ZM192.458 70.432C192.458 71.568 192.682 72.44 193.13 73.048C193.578 73.656 194.202 73.96 195.002 73.96C195.802 73.96 196.426 73.656 196.874 73.048C197.322 72.44 197.546 71.568 197.546 70.432C197.546 69.312 197.322 68.448 196.874 67.84C196.426 67.232 195.802 66.928 195.002 66.928C194.202 66.928 193.578 67.232 193.13 67.84C192.682 68.448 192.458 69.312 192.458 70.432ZM189.53 70.432C189.53 68.528 190.018 67.048 190.994 65.992C191.986 64.936 193.322 64.408 195.002 64.408C196.57 64.408 197.874 64.944 198.914 66.016C199.954 67.088 200.474 68.56 200.474 70.432C200.474 72.352 199.978 73.848 198.986 74.92C197.994 75.976 196.658 76.504 194.978 76.504C193.314 76.504 191.986 75.976 190.994 74.92C190.018 73.848 189.53 72.352 189.53 70.432ZM212.23 76H209.662L210.094 73.456L209.566 73.288C209.31 74.2 208.854 74.944 208.198 75.52C207.542 76.096 206.766 76.384 205.87 76.384C204.798 76.384 203.902 75.976 203.182 75.16C202.462 74.328 202.102 73.312 202.102 72.112V64.96H205.03V71.848C205.03 72.52 205.222 73.056 205.606 73.456C205.99 73.856 206.502 74.056 207.142 74.056C207.782 74.056 208.302 73.848 208.702 73.432C209.118 73.016 209.326 72.472 209.326 71.8V64.96H212.23V76ZM214.242 64.96H216.834L216.402 67.816L216.834 67.984C217.042 66.96 217.482 66.12 218.154 65.464C218.842 64.792 219.666 64.456 220.626 64.456C221.682 64.456 222.57 64.88 223.29 65.728C224.01 66.576 224.37 67.616 224.37 68.848V76H221.466V69.112C221.466 68.456 221.266 67.936 220.866 67.552C220.482 67.152 219.978 66.952 219.354 66.952C218.714 66.952 218.186 67.16 217.77 67.576C217.354 67.976 217.146 68.504 217.146 69.16V76H214.242V64.96ZM234.183 70.456C234.183 69.32 233.959 68.448 233.511 67.84C233.063 67.232 232.431 66.928 231.615 66.928C230.767 66.928 230.103 67.232 229.623 67.84C229.159 68.448 228.927 69.32 228.927 70.456C228.927 71.592 229.159 72.464 229.623 73.072C230.103 73.664 230.767 73.96 231.615 73.96C232.431 73.96 233.063 73.664 233.511 73.072C233.959 72.464 234.183 71.592 234.183 70.456ZM237.279 59.512V76H234.495L234.975 73.192L234.495 73C234.223 74.136 233.743 75.008 233.055 75.616C232.383 76.208 231.551 76.504 230.559 76.504C229.215 76.504 228.119 75.968 227.271 74.896C226.423 73.824 225.999 72.368 225.999 70.528C225.999 68.608 226.447 67.112 227.343 66.04C228.239 64.952 229.351 64.408 230.679 64.408C231.655 64.408 232.471 64.712 233.127 65.32C233.783 65.928 234.247 66.808 234.519 67.96L235.023 67.768L234.183 64.48V59.512H237.279ZM241.842 71.248C241.906 72.128 242.178 72.8 242.658 73.264C243.138 73.728 243.794 73.96 244.626 73.96C245.25 73.96 245.77 73.808 246.186 73.504C246.618 73.184 246.89 72.752 247.002 72.208L249.834 72.64C249.562 73.84 248.954 74.784 248.01 75.472C247.082 76.16 245.954 76.504 244.626 76.504C242.834 76.504 241.426 75.968 240.402 74.896C239.394 73.808 238.89 72.32 238.89 70.432C238.89 68.576 239.378 67.112 240.354 66.04C241.33 64.952 242.666 64.408 244.362 64.408C246.058 64.408 247.394 64.952 248.37 66.04C249.346 67.112 249.834 68.528 249.834 70.288V71.248H241.842ZM241.89 69.28H246.882C246.882 68.592 246.642 68.032 246.162 67.6C245.682 67.152 245.082 66.928 244.362 66.928C243.658 66.928 243.09 67.136 242.658 67.552C242.242 67.952 241.986 68.528 241.89 69.28ZM259.261 70.456C259.261 69.32 259.037 68.448 258.589 67.84C258.141 67.232 257.509 66.928 256.693 66.928C255.845 66.928 255.181 67.232 254.701 67.84C254.237 68.448 254.005 69.32 254.005 70.456C254.005 71.592 254.237 72.464 254.701 73.072C255.181 73.664 255.845 73.96 256.693 73.96C257.509 73.96 258.141 73.664 258.589 73.072C259.037 72.464 259.261 71.592 259.261 70.456ZM262.357 59.512V76H259.573L260.053 73.192L259.573 73C259.301 74.136 258.821 75.008 258.133 75.616C257.461 76.208 256.629 76.504 255.637 76.504C254.293 76.504 253.197 75.968 252.349 74.896C251.501 73.824 251.077 72.368 251.077 70.528C251.077 68.608 251.525 67.112 252.421 66.04C253.317 64.952 254.429 64.408 255.757 64.408C256.733 64.408 257.549 64.712 258.205 65.32C258.861 65.928 259.325 66.808 259.597 67.96L260.101 67.768L259.261 64.48V59.512H262.357ZM65.472 97.776L62.688 98.184C62.496 97.464 62.184 96.912 61.752 96.528C61.336 96.128 60.816 95.928 60.192 95.928C59.36 95.928 58.712 96.232 58.248 96.84C57.784 97.448 57.552 98.312 57.552 99.432C57.552 100.568 57.784 101.44 58.248 102.048C58.712 102.656 59.36 102.96 60.192 102.96C60.848 102.96 61.4 102.744 61.848 102.312C62.312 101.88 62.608 101.272 62.736 100.488L65.568 100.896C65.296 102.352 64.672 103.488 63.696 104.304C62.72 105.104 61.552 105.504 60.192 105.504C58.496 105.504 57.144 104.976 56.136 103.92C55.128 102.848 54.624 101.352 54.624 99.432C54.624 97.528 55.128 96.048 56.136 94.992C57.144 93.936 58.496 93.408 60.192 93.408C61.408 93.408 62.488 93.792 63.432 94.56C64.376 95.312 65.056 96.384 65.472 97.776ZM69.6458 99.432C69.6458 100.568 69.8698 101.44 70.3178 102.048C70.7658 102.656 71.3898 102.96 72.1898 102.96C72.9898 102.96 73.6138 102.656 74.0618 102.048C74.5098 101.44 74.7338 100.568 74.7338 99.432C74.7338 98.312 74.5098 97.448 74.0618 96.84C73.6138 96.232 72.9898 95.928 72.1898 95.928C71.3898 95.928 70.7658 96.232 70.3178 96.84C69.8698 97.448 69.6458 98.312 69.6458 99.432ZM66.7178 99.432C66.7178 97.528 67.2058 96.048 68.1818 94.992C69.1738 93.936 70.5098 93.408 72.1898 93.408C73.7578 93.408 75.0618 93.944 76.1018 95.016C77.1418 96.088 77.6618 97.56 77.6618 99.432C77.6618 101.352 77.1658 102.848 76.1738 103.92C75.1818 104.976 73.8458 105.504 72.1658 105.504C70.5018 105.504 69.1738 104.976 68.1818 103.92C67.2058 102.848 66.7178 101.352 66.7178 99.432ZM79.2893 93.96H81.8813L81.4013 96.768L81.9053 96.96C82.0813 95.984 82.4733 95.216 83.0813 94.656C83.6893 94.08 84.4413 93.792 85.3372 93.792H86.2733V96.504H85.0253C84.2573 96.504 83.5933 96.736 83.0333 97.2C82.4733 97.664 82.1933 98.248 82.1933 98.952V105H79.2893V93.96ZM87.633 93.96H90.225L89.793 96.816L90.225 96.984C90.433 95.96 90.873 95.12 91.545 94.464C92.233 93.792 93.057 93.456 94.017 93.456C95.073 93.456 95.961 93.88 96.681 94.728C97.401 95.576 97.761 96.616 97.761 97.848V105H94.857V98.112C94.857 97.456 94.657 96.936 94.257 96.552C93.873 96.152 93.369 95.952 92.745 95.952C92.105 95.952 91.577 96.16 91.161 96.576C90.745 96.976 90.537 97.504 90.537 98.16V105H87.633V93.96ZM102.342 100.248C102.406 101.128 102.678 101.8 103.158 102.264C103.638 102.728 104.294 102.96 105.126 102.96C105.75 102.96 106.27 102.808 106.686 102.504C107.118 102.184 107.39 101.752 107.502 101.208L110.334 101.64C110.062 102.84 109.454 103.784 108.51 104.472C107.582 105.16 106.454 105.504 105.126 105.504C103.334 105.504 101.926 104.968 100.902 103.896C99.8936 102.808 99.3896 101.32 99.3896 99.432C99.3896 97.576 99.8776 96.112 100.854 95.04C101.83 93.952 103.166 93.408 104.862 93.408C106.558 93.408 107.894 93.952 108.87 95.04C109.846 96.112 110.334 97.528 110.334 99.288V100.248H102.342ZM102.39 98.28H107.382C107.382 97.592 107.142 97.032 106.662 96.6C106.182 96.152 105.582 95.928 104.862 95.928C104.158 95.928 103.59 96.136 103.158 96.552C102.742 96.952 102.486 97.528 102.39 98.28ZM111.961 93.96H114.553L114.073 96.768L114.577 96.96C114.753 95.984 115.145 95.216 115.753 94.656C116.361 94.08 117.113 93.792 118.009 93.792H118.945V96.504H117.697C116.929 96.504 116.265 96.736 115.705 97.2C115.145 97.664 114.865 98.248 114.865 98.952V105H111.961V93.96ZM129.79 101.856C129.79 102.976 129.366 103.88 128.518 104.568C127.67 105.24 126.542 105.576 125.134 105.576C123.71 105.576 122.518 105.248 121.558 104.592C120.598 103.92 119.982 103 119.71 101.832L122.494 101.424C122.878 102.624 123.734 103.224 125.062 103.224C125.606 103.224 126.046 103.112 126.382 102.888C126.718 102.664 126.886 102.368 126.886 102C126.886 101.152 125.99 100.64 124.198 100.464C122.822 100.336 121.75 99.96 120.982 99.336C120.23 98.712 119.854 97.896 119.854 96.888C119.854 95.816 120.27 94.968 121.102 94.344C121.934 93.72 123.062 93.408 124.486 93.408C127.238 93.408 128.974 94.56 129.694 96.864L126.886 97.416C126.518 96.312 125.718 95.76 124.486 95.76C123.958 95.76 123.534 95.864 123.214 96.072C122.91 96.28 122.758 96.552 122.758 96.888C122.758 97.608 123.574 98.072 125.206 98.28C126.774 98.472 127.926 98.864 128.662 99.456C129.414 100.032 129.79 100.832 129.79 101.856ZM137.414 101.136H135.182V97.704C136.35 97.144 137.182 96.592 137.678 96.048C138.174 95.504 138.422 94.824 138.422 94.008C138.422 93.224 138.222 92.624 137.822 92.208C137.422 91.776 136.862 91.56 136.142 91.56C134.798 91.56 133.998 92.312 133.742 93.816L131.006 93.264C131.214 91.904 131.758 90.856 132.638 90.12C133.534 89.368 134.694 88.992 136.118 88.992C137.702 88.992 138.958 89.44 139.886 90.336C140.83 91.232 141.302 92.44 141.302 93.96C141.302 95.096 140.99 96.064 140.366 96.864C139.758 97.664 138.774 98.424 137.414 99.144V101.136ZM134.798 103.92C134.798 104.352 134.942 104.712 135.23 105C135.534 105.304 135.91 105.456 136.358 105.456C136.822 105.456 137.198 105.304 137.486 105C137.79 104.712 137.942 104.352 137.942 103.92C137.942 103.472 137.79 103.096 137.486 102.792C137.182 102.488 136.806 102.336 136.358 102.336C135.926 102.336 135.558 102.488 135.254 102.792C134.95 103.096 134.798 103.472 134.798 103.92Z" fill="#161616"/>
<path d="M0 24L33 43.0526L33 4.94744L0 24Z" fill="#C2FD5C"/>
</svg>
