<svg width="342" height="180" viewBox="0 0 342 180" fill="none" xmlns="http://www.w3.org/2000/svg">
<path d="M47.6631 40.193C47.6895 39.902 47.6631 39.6334 47.7423 39.3423C51.122 17.0456 80.1661 1.82287 112.59 5.38229C118.874 6.07627 124.788 7.41945 130.254 9.27751C138.809 2.53923 150.506 -1.06497 162.783 0.278212C170.572 1.12889 177.543 3.88241 183.22 7.91195C193.781 1.9348 206.666 -0.953037 220.053 0.502074C250.153 3.79286 271.303 27.8134 267.289 54.1621C266.735 57.7887 265.705 61.2809 264.306 64.5941C278.168 74.9366 285.877 89.2414 283.607 104.106C280.729 123.112 262.352 137.73 238.272 142.767C229.796 163.833 204.66 177.645 177.49 174.668C169.147 173.772 161.516 171.332 154.809 167.795C146.941 176.279 135.112 181.137 122.729 179.772C108.629 178.227 97.6453 169.049 93.4736 157.005C90.4899 157.788 87.4271 158.37 84.2058 158.706C56.4027 161.639 31.2664 146.394 28.0715 124.612C27.4643 120.538 27.6755 116.508 28.626 112.658C9.56253 103.434 -2.02869 88.7042 0.29483 73.4815C2.90881 56.3336 22.3683 43.5734 47.7159 40.193H47.6631Z" fill="#C2FD5C"/>
<path d="M113.265 52.36V56.968C113.265 57.688 113.353 58.136 113.529 58.312C113.705 58.488 114.113 58.576 114.753 58.576H115.881V61H113.913C112.745 61 111.865 60.728 111.273 60.184C110.681 59.624 110.385 58.632 110.385 57.208V52.36H108.465V49.96H110.385V46.72L113.265 46.456V49.96H115.881V52.36H113.265ZM120.127 49.48L119.383 52.816L119.839 52.984C120.047 51.96 120.487 51.12 121.159 50.464C121.831 49.792 122.647 49.456 123.607 49.456C124.663 49.456 125.551 49.88 126.271 50.728C126.991 51.576 127.351 52.616 127.351 53.848V61H124.447V54.112C124.447 53.456 124.247 52.936 123.847 52.552C123.463 52.152 122.959 51.952 122.335 51.952C121.695 51.952 121.167 52.16 120.751 52.576C120.335 52.976 120.127 53.504 120.127 54.16V61H117.223V44.512H120.127V49.48ZM129.099 46.96C129.099 46.512 129.267 46.12 129.603 45.784C129.939 45.448 130.331 45.28 130.779 45.28C131.243 45.28 131.635 45.448 131.955 45.784C132.291 46.12 132.459 46.512 132.459 46.96C132.459 47.424 132.291 47.824 131.955 48.16C131.635 48.496 131.243 48.664 130.779 48.664C130.331 48.664 129.939 48.496 129.603 48.16C129.267 47.824 129.099 47.424 129.099 46.96ZM129.363 49.96H132.267V61H129.363V49.96ZM143.911 57.856C143.911 58.976 143.487 59.88 142.639 60.568C141.791 61.24 140.663 61.576 139.255 61.576C137.831 61.576 136.639 61.248 135.679 60.592C134.719 59.92 134.103 59 133.831 57.832L136.615 57.424C136.999 58.624 137.855 59.224 139.183 59.224C139.727 59.224 140.167 59.112 140.503 58.888C140.839 58.664 141.007 58.368 141.007 58C141.007 57.152 140.111 56.64 138.319 56.464C136.943 56.336 135.871 55.96 135.103 55.336C134.351 54.712 133.975 53.896 133.975 52.888C133.975 51.816 134.391 50.968 135.223 50.344C136.055 49.72 137.183 49.408 138.607 49.408C141.359 49.408 143.095 50.56 143.815 52.864L141.007 53.416C140.639 52.312 139.839 51.76 138.607 51.76C138.079 51.76 137.655 51.864 137.335 52.072C137.031 52.28 136.879 52.552 136.879 52.888C136.879 53.608 137.695 54.072 139.327 54.28C140.895 54.472 142.047 54.864 142.783 55.456C143.535 56.032 143.911 56.832 143.911 57.856ZM150.404 46.96C150.404 46.512 150.572 46.12 150.908 45.784C151.244 45.448 151.636 45.28 152.084 45.28C152.548 45.28 152.94 45.448 153.26 45.784C153.596 46.12 153.764 46.512 153.764 46.96C153.764 47.424 153.596 47.824 153.26 48.16C152.94 48.496 152.548 48.664 152.084 48.664C151.636 48.664 151.244 48.496 150.908 48.16C150.572 47.824 150.404 47.424 150.404 46.96ZM150.668 49.96H153.572V61H150.668V49.96ZM165.216 57.856C165.216 58.976 164.792 59.88 163.944 60.568C163.096 61.24 161.968 61.576 160.56 61.576C159.136 61.576 157.944 61.248 156.984 60.592C156.024 59.92 155.408 59 155.136 57.832L157.92 57.424C158.304 58.624 159.16 59.224 160.488 59.224C161.032 59.224 161.472 59.112 161.808 58.888C162.144 58.664 162.312 58.368 162.312 58C162.312 57.152 161.416 56.64 159.624 56.464C158.248 56.336 157.176 55.96 156.408 55.336C155.656 54.712 155.28 53.896 155.28 52.888C155.28 51.816 155.696 50.968 156.528 50.344C157.36 49.72 158.488 49.408 159.912 49.408C162.664 49.408 164.4 50.56 165.12 52.864L162.312 53.416C161.944 52.312 161.144 51.76 159.912 51.76C159.384 51.76 158.96 51.864 158.64 52.072C158.336 52.28 158.184 52.552 158.184 52.888C158.184 53.608 159 54.072 160.632 54.28C162.2 54.472 163.352 54.864 164.088 55.456C164.84 56.032 165.216 56.832 165.216 57.856ZM174.421 57.856C174.421 58.24 174.573 58.544 174.877 58.768C175.197 58.992 175.629 59.104 176.173 59.104C176.957 59.104 177.597 58.88 178.093 58.432C178.589 57.968 178.837 57.368 178.837 56.632V56.296L176.005 56.536C175.525 56.568 175.141 56.704 174.853 56.944C174.565 57.184 174.421 57.488 174.421 57.856ZM181.765 61H179.149L179.557 58.24L179.149 58.144C178.909 59.184 178.437 60.008 177.733 60.616C177.045 61.208 176.205 61.504 175.213 61.504C174.141 61.504 173.269 61.192 172.597 60.568C171.925 59.928 171.589 59.104 171.589 58.096C171.589 57.136 171.893 56.36 172.501 55.768C173.125 55.176 173.989 54.832 175.093 54.736L178.837 54.4V53.704C178.837 53.176 178.645 52.752 178.261 52.432C177.893 52.096 177.397 51.928 176.773 51.928C176.149 51.928 175.629 52.104 175.213 52.456C174.797 52.808 174.549 53.28 174.469 53.872L171.589 53.464C171.797 52.248 172.373 51.28 173.317 50.56C174.261 49.824 175.421 49.456 176.797 49.456C178.221 49.456 179.405 49.832 180.349 50.584C181.293 51.336 181.765 52.288 181.765 53.44V61ZM183.762 49.96H186.354L185.922 52.816L186.354 52.984C186.562 51.96 187.002 51.12 187.674 50.464C188.362 49.792 189.186 49.456 190.146 49.456C191.202 49.456 192.09 49.88 192.81 50.728C193.53 51.576 193.89 52.616 193.89 53.848V61H190.986V54.112C190.986 53.456 190.786 52.936 190.386 52.552C190.002 52.152 189.498 51.952 188.874 51.952C188.234 51.952 187.706 52.16 187.29 52.576C186.874 52.976 186.666 53.504 186.666 54.16V61H183.762V49.96ZM61.3651 75.96C61.3651 75.512 61.5331 75.12 61.8691 74.784C62.2051 74.448 62.5971 74.28 63.0451 74.28C63.5091 74.28 63.9011 74.448 64.2211 74.784C64.5571 75.12 64.7251 75.512 64.7251 75.96C64.7251 76.424 64.5571 76.824 64.2211 77.16C63.9011 77.496 63.5091 77.664 63.0451 77.664C62.5971 77.664 62.2051 77.496 61.8691 77.16C61.5331 76.824 61.3651 76.424 61.3651 75.96ZM61.6291 78.96H64.5331V90H61.6291V78.96ZM66.4807 78.96H69.0727L68.6407 81.816L69.0727 81.984C69.2807 80.96 69.7207 80.12 70.3927 79.464C71.0807 78.792 71.9047 78.456 72.8647 78.456C73.9207 78.456 74.8087 78.88 75.5287 79.728C76.2487 80.576 76.6087 81.616 76.6087 82.848V90H73.7047V83.112C73.7047 82.456 73.5047 81.936 73.1047 81.552C72.7207 81.152 72.2167 80.952 71.5927 80.952C70.9527 80.952 70.4247 81.16 70.0087 81.576C69.5927 81.976 69.3847 82.504 69.3847 83.16V90H66.4807V78.96ZM82.3045 81.36V85.968C82.3045 86.688 82.3925 87.136 82.5685 87.312C82.7445 87.488 83.1525 87.576 83.7925 87.576H84.9205V90H82.9525C81.7845 90 80.9045 89.728 80.3125 89.184C79.7205 88.624 79.4245 87.632 79.4245 86.208V81.36H77.5045V78.96H79.4245V75.72L82.3045 75.456V78.96H84.9205V81.36H82.3045ZM88.619 85.248C88.683 86.128 88.955 86.8 89.435 87.264C89.915 87.728 90.571 87.96 91.403 87.96C92.027 87.96 92.547 87.808 92.963 87.504C93.395 87.184 93.667 86.752 93.779 86.208L96.611 86.64C96.339 87.84 95.731 88.784 94.787 89.472C93.859 90.16 92.731 90.504 91.403 90.504C89.611 90.504 88.203 89.968 87.179 88.896C86.171 87.808 85.667 86.32 85.667 84.432C85.667 82.576 86.155 81.112 87.131 80.04C88.107 78.952 89.443 78.408 91.139 78.408C92.835 78.408 94.171 78.952 95.147 80.04C96.123 81.112 96.611 82.528 96.611 84.288V85.248H88.619ZM88.667 83.28H93.659C93.659 82.592 93.419 82.032 92.939 81.6C92.459 81.152 91.859 80.928 91.139 80.928C90.435 80.928 89.867 81.136 89.435 81.552C89.019 81.952 88.763 82.528 88.667 83.28ZM98.2385 78.96H100.83L100.35 81.768L100.854 81.96C101.03 80.984 101.422 80.216 102.03 79.656C102.638 79.08 103.39 78.792 104.286 78.792H105.222V81.504H103.974C103.206 81.504 102.542 81.736 101.982 82.2C101.422 82.664 101.142 83.248 101.142 83.952V90H98.2385V78.96ZM108.939 85.248C109.003 86.128 109.275 86.8 109.755 87.264C110.235 87.728 110.891 87.96 111.723 87.96C112.347 87.96 112.867 87.808 113.283 87.504C113.715 87.184 113.987 86.752 114.099 86.208L116.931 86.64C116.659 87.84 116.051 88.784 115.107 89.472C114.179 90.16 113.051 90.504 111.723 90.504C109.931 90.504 108.523 89.968 107.499 88.896C106.491 87.808 105.987 86.32 105.987 84.432C105.987 82.576 106.475 81.112 107.451 80.04C108.427 78.952 109.763 78.408 111.459 78.408C113.155 78.408 114.491 78.952 115.467 80.04C116.443 81.112 116.931 82.528 116.931 84.288V85.248H108.939ZM108.987 83.28H113.979C113.979 82.592 113.739 82.032 113.259 81.6C112.779 81.152 112.179 80.928 111.459 80.928C110.755 80.928 110.187 81.136 109.755 81.552C109.339 81.952 109.083 82.528 108.987 83.28ZM128.255 86.856C128.255 87.976 127.831 88.88 126.983 89.568C126.135 90.24 125.007 90.576 123.599 90.576C122.175 90.576 120.983 90.248 120.023 89.592C119.063 88.92 118.447 88 118.175 86.832L120.959 86.424C121.343 87.624 122.199 88.224 123.527 88.224C124.071 88.224 124.511 88.112 124.847 87.888C125.183 87.664 125.351 87.368 125.351 87C125.351 86.152 124.455 85.64 122.663 85.464C121.287 85.336 120.215 84.96 119.447 84.336C118.695 83.712 118.319 82.896 118.319 81.888C118.319 80.816 118.735 79.968 119.567 79.344C120.399 78.72 121.527 78.408 122.951 78.408C125.703 78.408 127.439 79.56 128.159 81.864L125.351 82.416C124.983 81.312 124.183 80.76 122.951 80.76C122.423 80.76 121.999 80.864 121.679 81.072C121.375 81.28 121.223 81.552 121.223 81.888C121.223 82.608 122.039 83.072 123.671 83.28C125.239 83.472 126.391 83.864 127.127 84.456C127.879 85.032 128.255 85.832 128.255 86.856ZM133.562 81.36V85.968C133.562 86.688 133.65 87.136 133.826 87.312C134.002 87.488 134.41 87.576 135.05 87.576H136.178V90H134.21C133.042 90 132.162 89.728 131.57 89.184C130.978 88.624 130.682 87.632 130.682 86.208V81.36H128.762V78.96H130.682V75.72L133.562 75.456V78.96H136.178V81.36H133.562ZM137.256 75.96C137.256 75.512 137.424 75.12 137.76 74.784C138.096 74.448 138.488 74.28 138.936 74.28C139.4 74.28 139.792 74.448 140.112 74.784C140.448 75.12 140.616 75.512 140.616 75.96C140.616 76.424 140.448 76.824 140.112 77.16C139.792 77.496 139.4 77.664 138.936 77.664C138.488 77.664 138.096 77.496 137.76 77.16C137.424 76.824 137.256 76.424 137.256 75.96ZM137.52 78.96H140.424V90H137.52V78.96ZM142.371 78.96H144.963L144.531 81.816L144.963 81.984C145.171 80.96 145.611 80.12 146.283 79.464C146.971 78.792 147.795 78.456 148.755 78.456C149.811 78.456 150.699 78.88 151.419 79.728C152.139 80.576 152.499 81.616 152.499 82.848V90H149.595V83.112C149.595 82.456 149.395 81.936 148.995 81.552C148.611 81.152 148.107 80.952 147.483 80.952C146.843 80.952 146.315 81.16 145.899 81.576C145.483 81.976 145.275 82.504 145.275 83.16V90H142.371V78.96ZM156.96 82.368C156.96 82.912 157.136 83.336 157.488 83.64C157.856 83.944 158.36 84.096 159 84.096C159.656 84.096 160.16 83.944 160.512 83.64C160.88 83.336 161.064 82.912 161.064 82.368C161.064 81.84 160.888 81.432 160.536 81.144C160.184 80.856 159.68 80.712 159.024 80.712C158.368 80.712 157.856 80.856 157.488 81.144C157.136 81.432 156.96 81.84 156.96 82.368ZM153.816 91.752C153.816 91.016 154.144 90.432 154.8 90C155.472 89.584 156.384 89.376 157.536 89.376V89.112C155.84 88.952 154.992 88.384 154.992 87.408C154.992 86.48 155.816 85.928 157.464 85.752V85.464C156.44 85.32 155.64 84.952 155.064 84.36C154.488 83.752 154.2 82.984 154.2 82.056C154.2 80.968 154.624 80.088 155.472 79.416C156.336 78.744 157.472 78.408 158.88 78.408C159.632 78.408 160.32 78.52 160.944 78.744L161.088 78.48C160.576 78.112 160.32 77.688 160.32 77.208C160.32 76.776 160.496 76.44 160.848 76.2C161.216 75.96 161.728 75.84 162.384 75.84H164.376V78.192H162.48C162 78.192 161.76 78.368 161.76 78.72C161.76 78.848 161.832 79.008 161.976 79.2C163.192 79.952 163.8 81.056 163.8 82.512C163.8 83.616 163.408 84.512 162.624 85.2C161.84 85.888 160.824 86.232 159.576 86.232C158.936 86.232 158.48 86.28 158.208 86.376C157.952 86.456 157.824 86.6 157.824 86.808C157.824 87 157.936 87.144 158.16 87.24C158.384 87.336 158.784 87.416 159.36 87.48C162.592 87.752 164.208 88.976 164.208 91.152C164.208 92.256 163.744 93.12 162.816 93.744C161.888 94.384 160.624 94.704 159.024 94.704C157.424 94.704 156.152 94.44 155.208 93.912C154.28 93.384 153.816 92.664 153.816 91.752ZM156.552 90.984C156.552 91.384 156.776 91.696 157.224 91.92C157.672 92.144 158.288 92.256 159.072 92.256C159.824 92.256 160.408 92.144 160.824 91.92C161.24 91.696 161.448 91.384 161.448 90.984C161.448 90.664 161.272 90.4 160.92 90.192C160.584 90 159.984 89.84 159.12 89.712C158.336 89.712 157.712 89.824 157.248 90.048C156.784 90.288 156.552 90.6 156.552 90.984ZM173.424 84.504C173.424 85.64 173.664 86.512 174.144 87.12C174.624 87.728 175.288 88.032 176.136 88.032C176.984 88.032 177.64 87.728 178.104 87.12C178.584 86.512 178.824 85.64 178.824 84.504C178.824 83.368 178.584 82.496 178.104 81.888C177.64 81.28 176.984 80.976 176.136 80.976C175.288 80.976 174.624 81.28 174.144 81.888C173.664 82.496 173.424 83.368 173.424 84.504ZM170.496 94.704V78.96H173.088L172.632 81.768L173.088 81.96C173.376 80.824 173.856 79.96 174.528 79.368C175.2 78.76 176.04 78.456 177.048 78.456C178.44 78.456 179.568 78.992 180.432 80.064C181.312 81.136 181.752 82.592 181.752 84.432C181.752 86.352 181.288 87.856 180.36 88.944C179.432 90.016 178.288 90.552 176.928 90.552C175.952 90.552 175.136 90.248 174.48 89.64C173.824 89.032 173.36 88.152 173.088 87L172.608 87.192L173.424 90.48V94.704H170.496ZM185.835 86.856C185.835 87.24 185.987 87.544 186.291 87.768C186.611 87.992 187.043 88.104 187.587 88.104C188.371 88.104 189.011 87.88 189.507 87.432C190.003 86.968 190.251 86.368 190.251 85.632V85.296L187.419 85.536C186.939 85.568 186.555 85.704 186.267 85.944C185.979 86.184 185.835 86.488 185.835 86.856ZM193.179 90H190.563L190.971 87.24L190.563 87.144C190.323 88.184 189.851 89.008 189.147 89.616C188.459 90.208 187.619 90.504 186.627 90.504C185.555 90.504 184.683 90.192 184.011 89.568C183.339 88.928 183.003 88.104 183.003 87.096C183.003 86.136 183.307 85.36 183.915 84.768C184.539 84.176 185.403 83.832 186.507 83.736L190.251 83.4V82.704C190.251 82.176 190.059 81.752 189.675 81.432C189.307 81.096 188.811 80.928 188.187 80.928C187.563 80.928 187.043 81.104 186.627 81.456C186.211 81.808 185.963 82.28 185.883 82.872L183.003 82.464C183.211 81.248 183.787 80.28 184.731 79.56C185.675 78.824 186.835 78.456 188.211 78.456C189.635 78.456 190.819 78.832 191.763 79.584C192.707 80.336 193.179 81.288 193.179 82.44V90ZM198.859 81.36V85.968C198.859 86.688 198.947 87.136 199.123 87.312C199.299 87.488 199.707 87.576 200.347 87.576H201.475V90H199.507C198.339 90 197.459 89.728 196.867 89.184C196.275 88.624 195.979 87.632 195.979 86.208V81.36H194.059V78.96H195.979V75.72L198.859 75.456V78.96H201.475V81.36H198.859ZM206.969 81.36V85.968C206.969 86.688 207.057 87.136 207.233 87.312C207.409 87.488 207.817 87.576 208.457 87.576H209.585V90H207.617C206.449 90 205.569 89.728 204.977 89.184C204.385 88.624 204.089 87.632 204.089 86.208V81.36H202.169V78.96H204.089V75.72L206.969 75.456V78.96H209.585V81.36H206.969ZM213.283 85.248C213.347 86.128 213.619 86.8 214.099 87.264C214.579 87.728 215.235 87.96 216.067 87.96C216.691 87.96 217.211 87.808 217.627 87.504C218.059 87.184 218.331 86.752 218.443 86.208L221.275 86.64C221.003 87.84 220.395 88.784 219.451 89.472C218.523 90.16 217.395 90.504 216.067 90.504C214.275 90.504 212.867 89.968 211.843 88.896C210.835 87.808 210.331 86.32 210.331 84.432C210.331 82.576 210.819 81.112 211.795 80.04C212.771 78.952 214.107 78.408 215.803 78.408C217.499 78.408 218.835 78.952 219.811 80.04C220.787 81.112 221.275 82.528 221.275 84.288V85.248H213.283ZM213.331 83.28H218.323C218.323 82.592 218.083 82.032 217.603 81.6C217.123 81.152 216.523 80.928 215.803 80.928C215.099 80.928 214.531 81.136 214.099 81.552C213.683 81.952 213.427 82.528 213.331 83.28ZM222.903 78.96H225.495L225.015 81.768L225.519 81.96C225.695 80.984 226.087 80.216 226.695 79.656C227.303 79.08 228.055 78.792 228.951 78.792H229.887V81.504H228.639C227.871 81.504 227.207 81.736 226.647 82.2C226.087 82.664 225.807 83.248 225.807 83.952V90H222.903V78.96ZM231.246 78.96H233.838L233.406 81.816L233.838 81.984C234.046 80.96 234.486 80.12 235.158 79.464C235.846 78.792 236.67 78.456 237.63 78.456C238.686 78.456 239.574 78.88 240.294 79.728C241.014 80.576 241.374 81.616 241.374 82.848V90H238.47V83.112C238.47 82.456 238.27 81.936 237.87 81.552C237.486 81.152 236.982 80.952 236.358 80.952C235.718 80.952 235.19 81.16 234.774 81.576C234.358 81.976 234.15 82.504 234.15 83.16V90H231.246V78.96ZM75.5051 113.432C75.5051 114.568 75.7291 115.44 76.1771 116.048C76.6251 116.656 77.2491 116.96 78.0491 116.96C78.8491 116.96 79.4731 116.656 79.9211 116.048C80.3691 115.44 80.5931 114.568 80.5931 113.432C80.5931 112.312 80.3691 111.448 79.9211 110.84C79.4731 110.232 78.8491 109.928 78.0491 109.928C77.2491 109.928 76.6251 110.232 76.1771 110.84C75.7291 111.448 75.5051 112.312 75.5051 113.432ZM72.5771 113.432C72.5771 111.528 73.0651 110.048 74.0411 108.992C75.0331 107.936 76.3691 107.408 78.0491 107.408C79.6171 107.408 80.9211 107.944 81.9611 109.016C83.0011 110.088 83.5211 111.56 83.5211 113.432C83.5211 115.352 83.0251 116.848 82.0331 117.92C81.0411 118.976 79.7051 119.504 78.0251 119.504C76.3611 119.504 75.0331 118.976 74.0411 117.92C73.0651 116.848 72.5771 115.352 72.5771 113.432ZM85.1486 107.96H87.7406L87.3086 110.816L87.7406 110.984C87.9486 109.96 88.3886 109.12 89.0606 108.464C89.7486 107.792 90.5726 107.456 91.5326 107.456C92.5886 107.456 93.4766 107.88 94.1966 108.728C94.9166 109.576 95.2766 110.616 95.2766 111.848V119H92.3726V112.112C92.3726 111.456 92.1726 110.936 91.7726 110.552C91.3886 110.152 90.8846 109.952 90.2606 109.952C89.6206 109.952 89.0926 110.16 88.6766 110.576C88.2606 110.976 88.0526 111.504 88.0526 112.16V119H85.1486V107.96ZM106.574 110.36V114.968C106.574 115.688 106.662 116.136 106.838 116.312C107.014 116.488 107.422 116.576 108.062 116.576H109.19V119H107.222C106.054 119 105.174 118.728 104.582 118.184C103.99 117.624 103.694 116.632 103.694 115.208V110.36H101.774V107.96H103.694V104.72L106.574 104.456V107.96H109.19V110.36H106.574ZM113.435 107.48L112.691 110.816L113.147 110.984C113.355 109.96 113.795 109.12 114.467 108.464C115.139 107.792 115.955 107.456 116.915 107.456C117.971 107.456 118.859 107.88 119.579 108.728C120.299 109.576 120.659 110.616 120.659 111.848V119H117.755V112.112C117.755 111.456 117.555 110.936 117.155 110.552C116.771 110.152 116.267 109.952 115.643 109.952C115.003 109.952 114.475 110.16 114.059 110.576C113.643 110.976 113.435 111.504 113.435 112.16V119H110.531V102.512H113.435V107.48ZM125.24 114.248C125.304 115.128 125.576 115.8 126.056 116.264C126.536 116.728 127.192 116.96 128.024 116.96C128.648 116.96 129.168 116.808 129.584 116.504C130.016 116.184 130.288 115.752 130.4 115.208L133.232 115.64C132.96 116.84 132.352 117.784 131.408 118.472C130.48 119.16 129.352 119.504 128.024 119.504C126.232 119.504 124.824 118.968 123.8 117.896C122.792 116.808 122.288 115.32 122.288 113.432C122.288 111.576 122.776 110.112 123.752 109.04C124.728 107.952 126.064 107.408 127.76 107.408C129.456 107.408 130.792 107.952 131.768 109.04C132.744 110.112 133.232 111.528 133.232 113.288V114.248H125.24ZM125.288 112.28H130.28C130.28 111.592 130.04 111.032 129.56 110.6C129.08 110.152 128.48 109.928 127.76 109.928C127.056 109.928 126.488 110.136 126.056 110.552C125.64 110.952 125.384 111.528 125.288 112.28ZM142.56 114.248C142.624 115.128 142.896 115.8 143.376 116.264C143.856 116.728 144.512 116.96 145.344 116.96C145.968 116.96 146.488 116.808 146.904 116.504C147.336 116.184 147.608 115.752 147.72 115.208L150.552 115.64C150.28 116.84 149.672 117.784 148.728 118.472C147.8 119.16 146.672 119.504 145.344 119.504C143.552 119.504 142.144 118.968 141.12 117.896C140.112 116.808 139.608 115.32 139.608 113.432C139.608 111.576 140.096 110.112 141.072 109.04C142.048 107.952 143.384 107.408 145.08 107.408C146.776 107.408 148.112 107.952 149.088 109.04C150.064 110.112 150.552 111.528 150.552 113.288V114.248H142.56ZM142.608 112.28H147.6C147.6 111.592 147.36 111.032 146.88 110.6C146.4 110.152 145.8 109.928 145.08 109.928C144.376 109.928 143.808 110.136 143.376 110.552C142.96 110.952 142.704 111.528 142.608 112.28ZM161.876 115.856C161.876 116.976 161.452 117.88 160.604 118.568C159.756 119.24 158.628 119.576 157.22 119.576C155.796 119.576 154.604 119.248 153.644 118.592C152.684 117.92 152.068 117 151.796 115.832L154.58 115.424C154.964 116.624 155.82 117.224 157.148 117.224C157.692 117.224 158.132 117.112 158.468 116.888C158.804 116.664 158.972 116.368 158.972 116C158.972 115.152 158.076 114.64 156.284 114.464C154.908 114.336 153.836 113.96 153.068 113.336C152.316 112.712 151.94 111.896 151.94 110.888C151.94 109.816 152.356 108.968 153.188 108.344C154.02 107.72 155.148 107.408 156.572 107.408C159.324 107.408 161.06 108.56 161.78 110.864L158.972 111.416C158.604 110.312 157.804 109.76 156.572 109.76C156.044 109.76 155.62 109.864 155.3 110.072C154.996 110.28 154.844 110.552 154.844 110.888C154.844 111.608 155.66 112.072 157.292 112.28C158.86 112.472 160.012 112.864 160.748 113.456C161.5 114.032 161.876 114.832 161.876 115.856ZM173.964 111.776L171.18 112.184C170.988 111.464 170.676 110.912 170.244 110.528C169.828 110.128 169.308 109.928 168.684 109.928C167.852 109.928 167.204 110.232 166.74 110.84C166.276 111.448 166.044 112.312 166.044 113.432C166.044 114.568 166.276 115.44 166.74 116.048C167.204 116.656 167.852 116.96 168.684 116.96C169.34 116.96 169.892 116.744 170.34 116.312C170.804 115.88 171.1 115.272 171.228 114.488L174.06 114.896C173.788 116.352 173.164 117.488 172.188 118.304C171.212 119.104 170.044 119.504 168.684 119.504C166.988 119.504 165.636 118.976 164.628 117.92C163.62 116.848 163.116 115.352 163.116 113.432C163.116 111.528 163.62 110.048 164.628 108.992C165.636 107.936 166.988 107.408 168.684 107.408C169.9 107.408 170.98 107.792 171.924 108.56C172.868 109.312 173.548 110.384 173.964 111.776ZM178.042 115.856C178.042 116.24 178.194 116.544 178.498 116.768C178.818 116.992 179.25 117.104 179.794 117.104C180.578 117.104 181.218 116.88 181.714 116.432C182.21 115.968 182.458 115.368 182.458 114.632V114.296L179.626 114.536C179.146 114.568 178.762 114.704 178.474 114.944C178.186 115.184 178.042 115.488 178.042 115.856ZM185.386 119H182.77L183.178 116.24L182.77 116.144C182.53 117.184 182.058 118.008 181.354 118.616C180.666 119.208 179.826 119.504 178.834 119.504C177.762 119.504 176.89 119.192 176.218 118.568C175.546 117.928 175.21 117.104 175.21 116.096C175.21 115.136 175.514 114.36 176.122 113.768C176.746 113.176 177.61 112.832 178.714 112.736L182.458 112.4V111.704C182.458 111.176 182.266 110.752 181.882 110.432C181.514 110.096 181.018 109.928 180.394 109.928C179.77 109.928 179.25 110.104 178.834 110.456C178.418 110.808 178.17 111.28 178.09 111.872L175.21 111.464C175.418 110.248 175.994 109.28 176.938 108.56C177.882 107.824 179.042 107.456 180.418 107.456C181.842 107.456 183.026 107.832 183.97 108.584C184.914 109.336 185.386 110.288 185.386 111.44V119ZM187.383 102.512H190.287V119H187.383V102.512ZM194.753 115.856C194.753 116.24 194.905 116.544 195.209 116.768C195.529 116.992 195.961 117.104 196.505 117.104C197.289 117.104 197.929 116.88 198.425 116.432C198.921 115.968 199.169 115.368 199.169 114.632V114.296L196.337 114.536C195.857 114.568 195.473 114.704 195.185 114.944C194.897 115.184 194.753 115.488 194.753 115.856ZM202.097 119H199.481L199.889 116.24L199.481 116.144C199.241 117.184 198.769 118.008 198.065 118.616C197.377 119.208 196.537 119.504 195.545 119.504C194.473 119.504 193.601 119.192 192.929 118.568C192.257 117.928 191.921 117.104 191.921 116.096C191.921 115.136 192.225 114.36 192.833 113.768C193.457 113.176 194.321 112.832 195.425 112.736L199.169 112.4V111.704C199.169 111.176 198.977 110.752 198.593 110.432C198.225 110.096 197.729 109.928 197.105 109.928C196.481 109.928 195.961 110.104 195.545 110.456C195.129 110.808 194.881 111.28 194.801 111.872L191.921 111.464C192.129 110.248 192.705 109.28 193.649 108.56C194.593 107.824 195.753 107.456 197.129 107.456C198.553 107.456 199.737 107.832 200.681 108.584C201.625 109.336 202.097 110.288 202.097 111.44V119ZM207.777 110.36V114.968C207.777 115.688 207.865 116.136 208.041 116.312C208.217 116.488 208.625 116.576 209.265 116.576H210.393V119H208.425C207.257 119 206.377 118.728 205.785 118.184C205.193 117.624 204.897 116.632 204.897 115.208V110.36H202.977V107.96H204.897V104.72L207.777 104.456V107.96H210.393V110.36H207.777ZM214.068 113.432C214.068 114.568 214.292 115.44 214.74 116.048C215.188 116.656 215.812 116.96 216.612 116.96C217.412 116.96 218.036 116.656 218.484 116.048C218.932 115.44 219.156 114.568 219.156 113.432C219.156 112.312 218.932 111.448 218.484 110.84C218.036 110.232 217.412 109.928 216.612 109.928C215.812 109.928 215.188 110.232 214.74 110.84C214.292 111.448 214.068 112.312 214.068 113.432ZM211.14 113.432C211.14 111.528 211.628 110.048 212.604 108.992C213.596 107.936 214.932 107.408 216.612 107.408C218.18 107.408 219.484 107.944 220.524 109.016C221.564 110.088 222.084 111.56 222.084 113.432C222.084 115.352 221.588 116.848 220.596 117.92C219.604 118.976 218.268 119.504 216.588 119.504C214.924 119.504 213.596 118.976 212.604 117.92C211.628 116.848 211.14 115.352 211.14 113.432ZM223.711 107.96H226.303L225.823 110.768L226.327 110.96C226.503 109.984 226.895 109.216 227.503 108.656C228.111 108.08 228.863 107.792 229.759 107.792H230.695V110.504H229.447C228.679 110.504 228.015 110.736 227.455 111.2C226.895 111.664 226.615 112.248 226.615 112.952V119H223.711V107.96Z" fill="#161616"/>
<circle cx="327.95" cy="29.9882" r="10" transform="rotate(113.175 327.95 29.9882)" fill="#C2FD5C"/>
<circle cx="293.662" cy="46.6615" r="16.5" transform="rotate(113.175 293.662 46.6615)" fill="#C2FD5C"/>
</svg>
