<svg width="353" height="135" viewBox="0 0 353 135" fill="none" xmlns="http://www.w3.org/2000/svg">
<rect x="22" width="331" height="135" rx="12" fill="#C2FD5C"/>
<path d="M57.912 35.48L57.168 38.816L57.624 38.984C57.832 37.96 58.272 37.12 58.944 36.464C59.616 35.792 60.432 35.456 61.392 35.456C62.448 35.456 63.336 35.88 64.056 36.728C64.776 37.576 65.136 38.616 65.136 39.848V47H62.232V40.112C62.232 39.456 62.032 38.936 61.632 38.552C61.248 38.152 60.744 37.952 60.12 37.952C59.48 37.952 58.952 38.16 58.536 38.576C58.12 38.976 57.912 39.504 57.912 40.16V47H55.008V30.512H57.912V35.48ZM69.6926 41.432C69.6926 42.568 69.9166 43.44 70.3646 44.048C70.8126 44.656 71.4366 44.96 72.2366 44.96C73.0366 44.96 73.6606 44.656 74.1086 44.048C74.5566 43.44 74.7806 42.568 74.7806 41.432C74.7806 40.312 74.5566 39.448 74.1086 38.84C73.6606 38.232 73.0366 37.928 72.2366 37.928C71.4366 37.928 70.8126 38.232 70.3646 38.84C69.9166 39.448 69.6926 40.312 69.6926 41.432ZM66.7646 41.432C66.7646 39.528 67.2526 38.048 68.2286 36.992C69.2206 35.936 70.5566 35.408 72.2366 35.408C73.8046 35.408 75.1086 35.944 76.1486 37.016C77.1886 38.088 77.7086 39.56 77.7086 41.432C77.7086 43.352 77.2126 44.848 76.2206 45.92C75.2286 46.976 73.8926 47.504 72.2126 47.504C70.5486 47.504 69.2206 46.976 68.2286 45.92C67.2526 44.848 66.7646 43.352 66.7646 41.432ZM86.5423 40.112L84.9343 47H81.0703L78.4303 35.96H81.4063L82.7503 42.272L82.9423 44.096H83.2543L83.4943 42.272L85.0303 35.96H88.6783L90.2383 42.272L90.4543 44.096H90.7663L90.9823 42.272L92.3263 35.96H95.2783L92.6623 47H88.7983L87.1663 40.112L86.9983 38.36H86.7343L86.5423 40.112ZM112.253 39.776L109.469 40.184C109.277 39.464 108.965 38.912 108.533 38.528C108.117 38.128 107.597 37.928 106.973 37.928C106.141 37.928 105.493 38.232 105.029 38.84C104.565 39.448 104.333 40.312 104.333 41.432C104.333 42.568 104.565 43.44 105.029 44.048C105.493 44.656 106.141 44.96 106.973 44.96C107.629 44.96 108.181 44.744 108.629 44.312C109.093 43.88 109.389 43.272 109.517 42.488L112.349 42.896C112.077 44.352 111.453 45.488 110.477 46.304C109.501 47.104 108.333 47.504 106.973 47.504C105.277 47.504 103.925 46.976 102.917 45.92C101.909 44.848 101.405 43.352 101.405 41.432C101.405 39.528 101.909 38.048 102.917 36.992C103.925 35.936 105.277 35.408 106.973 35.408C108.189 35.408 109.269 35.792 110.213 36.56C111.157 37.312 111.837 38.384 112.253 39.776ZM116.427 41.432C116.427 42.568 116.651 43.44 117.099 44.048C117.547 44.656 118.171 44.96 118.971 44.96C119.771 44.96 120.395 44.656 120.843 44.048C121.291 43.44 121.515 42.568 121.515 41.432C121.515 40.312 121.291 39.448 120.843 38.84C120.395 38.232 119.771 37.928 118.971 37.928C118.171 37.928 117.547 38.232 117.099 38.84C116.651 39.448 116.427 40.312 116.427 41.432ZM113.499 41.432C113.499 39.528 113.987 38.048 114.963 36.992C115.955 35.936 117.291 35.408 118.971 35.408C120.539 35.408 121.843 35.944 122.883 37.016C123.923 38.088 124.443 39.56 124.443 41.432C124.443 43.352 123.947 44.848 122.955 45.92C121.963 46.976 120.627 47.504 118.947 47.504C117.283 47.504 115.955 46.976 114.963 45.92C113.987 44.848 113.499 43.352 113.499 41.432ZM126.071 35.96H128.663L128.255 38.864L128.663 38.96C128.855 37.872 129.255 37.016 129.863 36.392C130.487 35.768 131.255 35.456 132.167 35.456C132.967 35.456 133.679 35.808 134.303 36.512C134.927 37.2 135.239 38.008 135.239 38.936V39.056L135.647 39.128C135.823 37.976 136.239 37.08 136.895 36.44C137.551 35.784 138.391 35.456 139.415 35.456C140.487 35.456 141.351 35.888 142.007 36.752C142.679 37.616 143.015 38.704 143.015 40.016V47H140.087V40.28C140.087 39.56 139.911 38.992 139.559 38.576C139.207 38.16 138.687 37.952 137.999 37.952C137.375 37.952 136.887 38.168 136.535 38.6C136.183 39.032 136.007 39.608 136.007 40.328V47H133.079V40.28C133.079 39.56 132.903 38.992 132.551 38.576C132.215 38.16 131.735 37.952 131.111 37.952C130.455 37.952 129.935 38.168 129.551 38.6C129.167 39.032 128.975 39.608 128.975 40.328V47H126.071V35.96ZM147.599 42.248C147.663 43.128 147.935 43.8 148.415 44.264C148.895 44.728 149.551 44.96 150.383 44.96C151.007 44.96 151.527 44.808 151.943 44.504C152.375 44.184 152.647 43.752 152.759 43.208L155.591 43.64C155.319 44.84 154.711 45.784 153.767 46.472C152.839 47.16 151.711 47.504 150.383 47.504C148.591 47.504 147.183 46.968 146.159 45.896C145.151 44.808 144.647 43.32 144.647 41.432C144.647 39.576 145.135 38.112 146.111 37.04C147.087 35.952 148.423 35.408 150.119 35.408C151.815 35.408 153.151 35.952 154.127 37.04C155.103 38.112 155.591 39.528 155.591 41.288V42.248H147.599ZM147.647 40.28H152.639C152.639 39.592 152.399 39.032 151.919 38.6C151.439 38.152 150.839 37.928 150.119 37.928C149.415 37.928 148.847 38.136 148.415 38.552C147.999 38.952 147.743 39.528 147.647 40.28ZM165.256 35.48L164.512 38.816L164.968 38.984C165.176 37.96 165.616 37.12 166.288 36.464C166.96 35.792 167.776 35.456 168.736 35.456C169.792 35.456 170.68 35.88 171.4 36.728C172.12 37.576 172.48 38.616 172.48 39.848V47H169.576V40.112C169.576 39.456 169.376 38.936 168.976 38.552C168.592 38.152 168.088 37.952 167.464 37.952C166.824 37.952 166.296 38.16 165.88 38.576C165.464 38.976 165.256 39.504 165.256 40.16V47H162.352V30.512H165.256V35.48ZM177.06 42.248C177.124 43.128 177.396 43.8 177.876 44.264C178.356 44.728 179.012 44.96 179.844 44.96C180.468 44.96 180.988 44.808 181.404 44.504C181.836 44.184 182.108 43.752 182.22 43.208L185.052 43.64C184.78 44.84 184.172 45.784 183.228 46.472C182.3 47.16 181.172 47.504 179.844 47.504C178.052 47.504 176.644 46.968 175.62 45.896C174.612 44.808 174.108 43.32 174.108 41.432C174.108 39.576 174.596 38.112 175.572 37.04C176.548 35.952 177.884 35.408 179.58 35.408C181.276 35.408 182.612 35.952 183.588 37.04C184.564 38.112 185.052 39.528 185.052 41.288V42.248H177.06ZM177.108 40.28H182.1C182.1 39.592 181.86 39.032 181.38 38.6C180.9 38.152 180.3 37.928 179.58 37.928C178.876 37.928 178.308 38.136 177.876 38.552C177.46 38.952 177.204 39.528 177.108 40.28ZM186.68 35.96H189.272L188.792 38.768L189.296 38.96C189.472 37.984 189.864 37.216 190.472 36.656C191.08 36.08 191.832 35.792 192.728 35.792H193.664V38.504H192.416C191.648 38.504 190.984 38.736 190.424 39.2C189.864 39.664 189.584 40.248 189.584 40.952V47H186.68V35.96ZM209.852 43.856C209.852 44.976 209.428 45.88 208.58 46.568C207.732 47.24 206.604 47.576 205.196 47.576C203.772 47.576 202.58 47.248 201.62 46.592C200.66 45.92 200.044 45 199.772 43.832L202.556 43.424C202.94 44.624 203.796 45.224 205.124 45.224C205.668 45.224 206.108 45.112 206.444 44.888C206.78 44.664 206.948 44.368 206.948 44C206.948 43.152 206.052 42.64 204.26 42.464C202.884 42.336 201.812 41.96 201.044 41.336C200.292 40.712 199.916 39.896 199.916 38.888C199.916 37.816 200.332 36.968 201.164 36.344C201.996 35.72 203.124 35.408 204.548 35.408C207.3 35.408 209.036 36.56 209.756 38.864L206.948 39.416C206.58 38.312 205.78 37.76 204.548 37.76C204.02 37.76 203.596 37.864 203.276 38.072C202.972 38.28 202.82 38.552 202.82 38.888C202.82 39.608 203.636 40.072 205.268 40.28C206.836 40.472 207.988 40.864 208.724 41.456C209.476 42.032 209.852 42.832 209.852 43.856ZM221.941 39.776L219.157 40.184C218.965 39.464 218.653 38.912 218.221 38.528C217.805 38.128 217.285 37.928 216.661 37.928C215.829 37.928 215.181 38.232 214.717 38.84C214.253 39.448 214.021 40.312 214.021 41.432C214.021 42.568 214.253 43.44 214.717 44.048C215.181 44.656 215.829 44.96 216.661 44.96C217.317 44.96 217.869 44.744 218.317 44.312C218.781 43.88 219.077 43.272 219.205 42.488L222.037 42.896C221.765 44.352 221.141 45.488 220.165 46.304C219.189 47.104 218.021 47.504 216.661 47.504C214.965 47.504 213.613 46.976 212.605 45.92C211.597 44.848 211.093 43.352 211.093 41.432C211.093 39.528 211.597 38.048 212.605 36.992C213.613 35.936 214.965 35.408 216.661 35.408C217.877 35.408 218.957 35.792 219.901 36.56C220.845 37.312 221.525 38.384 221.941 39.776ZM223.307 32.96C223.307 32.512 223.475 32.12 223.811 31.784C224.147 31.448 224.539 31.28 224.987 31.28C225.451 31.28 225.843 31.448 226.163 31.784C226.499 32.12 226.667 32.512 226.667 32.96C226.667 33.424 226.499 33.824 226.163 34.16C225.843 34.496 225.451 34.664 224.987 34.664C224.539 34.664 224.147 34.496 223.811 34.16C223.475 33.824 223.307 33.424 223.307 32.96ZM223.571 35.96H226.475V47H223.571V35.96ZM238.118 43.856C238.118 44.976 237.694 45.88 236.846 46.568C235.998 47.24 234.87 47.576 233.462 47.576C232.038 47.576 230.846 47.248 229.886 46.592C228.926 45.92 228.31 45 228.038 43.832L230.822 43.424C231.206 44.624 232.062 45.224 233.39 45.224C233.934 45.224 234.374 45.112 234.71 44.888C235.046 44.664 235.214 44.368 235.214 44C235.214 43.152 234.318 42.64 232.526 42.464C231.15 42.336 230.078 41.96 229.31 41.336C228.558 40.712 228.182 39.896 228.182 38.888C228.182 37.816 228.598 36.968 229.43 36.344C230.262 35.72 231.39 35.408 232.814 35.408C235.566 35.408 237.302 36.56 238.022 38.864L235.214 39.416C234.846 38.312 234.046 37.76 232.814 37.76C232.286 37.76 231.862 37.864 231.542 38.072C231.238 38.28 231.086 38.552 231.086 38.888C231.086 39.608 231.902 40.072 233.534 40.28C235.102 40.472 236.254 40.864 236.99 41.456C237.742 42.032 238.118 42.832 238.118 43.856ZM249.438 43.856C249.438 44.976 249.014 45.88 248.166 46.568C247.318 47.24 246.19 47.576 244.782 47.576C243.358 47.576 242.166 47.248 241.206 46.592C240.246 45.92 239.63 45 239.358 43.832L242.142 43.424C242.526 44.624 243.382 45.224 244.71 45.224C245.254 45.224 245.694 45.112 246.03 44.888C246.366 44.664 246.534 44.368 246.534 44C246.534 43.152 245.638 42.64 243.846 42.464C242.47 42.336 241.398 41.96 240.63 41.336C239.878 40.712 239.502 39.896 239.502 38.888C239.502 37.816 239.918 36.968 240.75 36.344C241.582 35.72 242.71 35.408 244.134 35.408C246.886 35.408 248.622 36.56 249.342 38.864L246.534 39.416C246.166 38.312 245.366 37.76 244.134 37.76C243.606 37.76 243.182 37.864 242.862 38.072C242.558 38.28 242.406 38.552 242.406 38.888C242.406 39.608 243.222 40.072 244.854 40.28C246.422 40.472 247.574 40.864 248.31 41.456C249.062 42.032 249.438 42.832 249.438 43.856ZM253.607 41.432C253.607 42.568 253.831 43.44 254.279 44.048C254.727 44.656 255.351 44.96 256.151 44.96C256.951 44.96 257.575 44.656 258.023 44.048C258.471 43.44 258.695 42.568 258.695 41.432C258.695 40.312 258.471 39.448 258.023 38.84C257.575 38.232 256.951 37.928 256.151 37.928C255.351 37.928 254.727 38.232 254.279 38.84C253.831 39.448 253.607 40.312 253.607 41.432ZM250.679 41.432C250.679 39.528 251.167 38.048 252.143 36.992C253.135 35.936 254.471 35.408 256.151 35.408C257.719 35.408 259.023 35.944 260.063 37.016C261.103 38.088 261.623 39.56 261.623 41.432C261.623 43.352 261.127 44.848 260.135 45.92C259.143 46.976 257.807 47.504 256.127 47.504C254.463 47.504 253.135 46.976 252.143 45.92C251.167 44.848 250.679 43.352 250.679 41.432ZM263.25 35.96H265.842L265.362 38.768L265.866 38.96C266.042 37.984 266.434 37.216 267.042 36.656C267.65 36.08 268.402 35.792 269.298 35.792H270.234V38.504H268.986C268.218 38.504 267.554 38.736 266.994 39.2C266.434 39.664 266.154 40.248 266.154 40.952V47H263.25V35.96ZM281.079 43.856C281.079 44.976 280.655 45.88 279.807 46.568C278.959 47.24 277.831 47.576 276.423 47.576C274.999 47.576 273.807 47.248 272.847 46.592C271.887 45.92 271.271 45 270.999 43.832L273.783 43.424C274.167 44.624 275.023 45.224 276.351 45.224C276.895 45.224 277.335 45.112 277.671 44.888C278.007 44.664 278.175 44.368 278.175 44C278.175 43.152 277.279 42.64 275.487 42.464C274.111 42.336 273.039 41.96 272.271 41.336C271.519 40.712 271.143 39.896 271.143 38.888C271.143 37.816 271.559 36.968 272.391 36.344C273.223 35.72 274.351 35.408 275.775 35.408C278.527 35.408 280.263 36.56 280.983 38.864L278.175 39.416C277.807 38.312 277.007 37.76 275.775 37.76C275.247 37.76 274.823 37.864 274.503 38.072C274.199 38.28 274.047 38.552 274.047 38.888C274.047 39.608 274.863 40.072 276.495 40.28C278.063 40.472 279.215 40.864 279.951 41.456C280.703 42.032 281.079 42.832 281.079 43.856ZM57.456 68.368C57.456 68.912 57.632 69.336 57.984 69.64C58.352 69.944 58.856 70.096 59.496 70.096C60.152 70.096 60.656 69.944 61.008 69.64C61.376 69.336 61.56 68.912 61.56 68.368C61.56 67.84 61.384 67.432 61.032 67.144C60.68 66.856 60.176 66.712 59.52 66.712C58.864 66.712 58.352 66.856 57.984 67.144C57.632 67.432 57.456 67.84 57.456 68.368ZM54.312 77.752C54.312 77.016 54.64 76.432 55.296 76C55.968 75.584 56.88 75.376 58.032 75.376V75.112C56.336 74.952 55.488 74.384 55.488 73.408C55.488 72.48 56.312 71.928 57.96 71.752V71.464C56.936 71.32 56.136 70.952 55.56 70.36C54.984 69.752 54.696 68.984 54.696 68.056C54.696 66.968 55.12 66.088 55.968 65.416C56.832 64.744 57.968 64.408 59.376 64.408C60.128 64.408 60.816 64.52 61.44 64.744L61.584 64.48C61.072 64.112 60.816 63.688 60.816 63.208C60.816 62.776 60.992 62.44 61.344 62.2C61.712 61.96 62.224 61.84 62.88 61.84H64.872V64.192H62.976C62.496 64.192 62.256 64.368 62.256 64.72C62.256 64.848 62.328 65.008 62.472 65.2C63.688 65.952 64.296 67.056 64.296 68.512C64.296 69.616 63.904 70.512 63.12 71.2C62.336 71.888 61.32 72.232 60.072 72.232C59.432 72.232 58.976 72.28 58.704 72.376C58.448 72.456 58.32 72.6 58.32 72.808C58.32 73 58.432 73.144 58.656 73.24C58.88 73.336 59.28 73.416 59.856 73.48C63.088 73.752 64.704 74.976 64.704 77.152C64.704 78.256 64.24 79.12 63.312 79.744C62.384 80.384 61.12 80.704 59.52 80.704C57.92 80.704 56.648 80.44 55.704 79.912C54.776 79.384 54.312 78.664 54.312 77.752ZM57.048 76.984C57.048 77.384 57.272 77.696 57.72 77.92C58.168 78.144 58.784 78.256 59.568 78.256C60.32 78.256 60.904 78.144 61.32 77.92C61.736 77.696 61.944 77.384 61.944 76.984C61.944 76.664 61.768 76.4 61.416 76.192C61.08 76 60.48 75.84 59.616 75.712C58.832 75.712 58.208 75.824 57.744 76.048C57.28 76.288 57.048 76.6 57.048 76.984ZM65.8596 59.512H68.7636V76H65.8596V59.512ZM70.5174 61.96C70.5174 61.512 70.6854 61.12 71.0214 60.784C71.3574 60.448 71.7494 60.28 72.1974 60.28C72.6614 60.28 73.0534 60.448 73.3734 60.784C73.7094 61.12 73.8774 61.512 73.8774 61.96C73.8774 62.424 73.7094 62.824 73.3734 63.16C73.0534 63.496 72.6614 63.664 72.1974 63.664C71.7494 63.664 71.3574 63.496 71.0214 63.16C70.6854 62.824 70.5174 62.424 70.5174 61.96ZM70.7814 64.96H73.6854V76H70.7814V64.96ZM83.433 70.456C83.433 69.32 83.209 68.448 82.761 67.84C82.313 67.232 81.681 66.928 80.865 66.928C80.017 66.928 79.353 67.232 78.873 67.84C78.409 68.448 78.177 69.32 78.177 70.456C78.177 71.592 78.409 72.464 78.873 73.072C79.353 73.664 80.017 73.96 80.865 73.96C81.681 73.96 82.313 73.664 82.761 73.072C83.209 72.464 83.433 71.592 83.433 70.456ZM86.529 59.512V76H83.745L84.225 73.192L83.745 73C83.473 74.136 82.993 75.008 82.305 75.616C81.633 76.208 80.801 76.504 79.809 76.504C78.465 76.504 77.369 75.968 76.521 74.896C75.673 73.824 75.249 72.368 75.249 70.528C75.249 68.608 75.697 67.112 76.593 66.04C77.489 64.952 78.601 64.408 79.929 64.408C80.905 64.408 81.721 64.712 82.377 65.32C83.033 65.928 83.497 66.808 83.769 67.96L84.273 67.768L83.433 64.48V59.512H86.529ZM91.0916 71.248C91.1556 72.128 91.4276 72.8 91.9076 73.264C92.3876 73.728 93.0436 73.96 93.8756 73.96C94.4996 73.96 95.0196 73.808 95.4356 73.504C95.8676 73.184 96.1396 72.752 96.2516 72.208L99.0836 72.64C98.8116 73.84 98.2036 74.784 97.2596 75.472C96.3316 76.16 95.2036 76.504 93.8756 76.504C92.0836 76.504 90.6756 75.968 89.6516 74.896C88.6436 73.808 88.1396 72.32 88.1396 70.432C88.1396 68.576 88.6276 67.112 89.6036 66.04C90.5796 64.952 91.9156 64.408 93.6116 64.408C95.3076 64.408 96.6436 64.952 97.6196 66.04C98.5956 67.112 99.0836 68.528 99.0836 70.288V71.248H91.0916ZM91.1396 69.28H96.1316C96.1316 68.592 95.8916 68.032 95.4116 67.6C94.9316 67.152 94.3316 66.928 93.6116 66.928C92.9076 66.928 92.3396 67.136 91.9076 67.552C91.4916 67.952 91.2356 68.528 91.1396 69.28ZM115.54 72.856C115.54 73.976 115.116 74.88 114.268 75.568C113.42 76.24 112.292 76.576 110.884 76.576C109.46 76.576 108.268 76.248 107.308 75.592C106.348 74.92 105.732 74 105.46 72.832L108.244 72.424C108.628 73.624 109.484 74.224 110.812 74.224C111.356 74.224 111.796 74.112 112.132 73.888C112.468 73.664 112.636 73.368 112.636 73C112.636 72.152 111.74 71.64 109.948 71.464C108.572 71.336 107.5 70.96 106.732 70.336C105.98 69.712 105.604 68.896 105.604 67.888C105.604 66.816 106.02 65.968 106.852 65.344C107.684 64.72 108.812 64.408 110.236 64.408C112.988 64.408 114.724 65.56 115.444 67.864L112.636 68.416C112.268 67.312 111.468 66.76 110.236 66.76C109.708 66.76 109.284 66.864 108.964 67.072C108.66 67.28 108.508 67.552 108.508 67.888C108.508 68.608 109.324 69.072 110.956 69.28C112.524 69.472 113.676 69.864 114.412 70.456C115.164 71.032 115.54 71.832 115.54 72.856ZM119.708 70.432C119.708 71.568 119.932 72.44 120.38 73.048C120.828 73.656 121.452 73.96 122.252 73.96C123.052 73.96 123.676 73.656 124.124 73.048C124.572 72.44 124.796 71.568 124.796 70.432C124.796 69.312 124.572 68.448 124.124 67.84C123.676 67.232 123.052 66.928 122.252 66.928C121.452 66.928 120.828 67.232 120.38 67.84C119.932 68.448 119.708 69.312 119.708 70.432ZM116.78 70.432C116.78 68.528 117.268 67.048 118.244 65.992C119.236 64.936 120.572 64.408 122.252 64.408C123.82 64.408 125.124 64.944 126.164 66.016C127.204 67.088 127.724 68.56 127.724 70.432C127.724 72.352 127.228 73.848 126.236 74.92C125.244 75.976 123.908 76.504 122.228 76.504C120.564 76.504 119.236 75.976 118.244 74.92C117.268 73.848 116.78 72.352 116.78 70.432ZM137.053 71.248C137.117 72.128 137.389 72.8 137.869 73.264C138.349 73.728 139.005 73.96 139.837 73.96C140.461 73.96 140.981 73.808 141.397 73.504C141.829 73.184 142.101 72.752 142.213 72.208L145.045 72.64C144.773 73.84 144.165 74.784 143.221 75.472C142.293 76.16 141.165 76.504 139.837 76.504C138.045 76.504 136.637 75.968 135.613 74.896C134.605 73.808 134.101 72.32 134.101 70.432C134.101 68.576 134.589 67.112 135.565 66.04C136.541 64.952 137.877 64.408 139.573 64.408C141.269 64.408 142.605 64.952 143.581 66.04C144.557 67.112 145.045 68.528 145.045 70.288V71.248H137.053ZM137.101 69.28H142.093C142.093 68.592 141.853 68.032 141.373 67.6C140.893 67.152 140.293 66.928 139.573 66.928C138.869 66.928 138.301 67.136 137.869 67.552C137.453 67.952 137.197 68.528 137.101 69.28ZM149.12 72.856C149.12 73.24 149.272 73.544 149.576 73.768C149.896 73.992 150.328 74.104 150.872 74.104C151.656 74.104 152.296 73.88 152.792 73.432C153.288 72.968 153.536 72.368 153.536 71.632V71.296L150.704 71.536C150.224 71.568 149.84 71.704 149.552 71.944C149.264 72.184 149.12 72.488 149.12 72.856ZM156.464 76H153.848L154.256 73.24L153.848 73.144C153.608 74.184 153.136 75.008 152.432 75.616C151.744 76.208 150.904 76.504 149.912 76.504C148.84 76.504 147.968 76.192 147.296 75.568C146.624 74.928 146.288 74.104 146.288 73.096C146.288 72.136 146.592 71.36 147.2 70.768C147.824 70.176 148.688 69.832 149.792 69.736L153.536 69.4V68.704C153.536 68.176 153.344 67.752 152.96 67.432C152.592 67.096 152.096 66.928 151.472 66.928C150.848 66.928 150.328 67.104 149.912 67.456C149.496 67.808 149.248 68.28 149.168 68.872L146.288 68.464C146.496 67.248 147.072 66.28 148.016 65.56C148.96 64.824 150.12 64.456 151.496 64.456C152.92 64.456 154.104 64.832 155.048 65.584C155.992 66.336 156.464 67.288 156.464 68.44V76ZM168.157 72.856C168.157 73.976 167.733 74.88 166.885 75.568C166.037 76.24 164.909 76.576 163.501 76.576C162.077 76.576 160.885 76.248 159.925 75.592C158.965 74.92 158.349 74 158.077 72.832L160.861 72.424C161.245 73.624 162.101 74.224 163.429 74.224C163.973 74.224 164.413 74.112 164.749 73.888C165.085 73.664 165.253 73.368 165.253 73C165.253 72.152 164.357 71.64 162.565 71.464C161.189 71.336 160.117 70.96 159.349 70.336C158.597 69.712 158.221 68.896 158.221 67.888C158.221 66.816 158.637 65.968 159.469 65.344C160.301 64.72 161.429 64.408 162.853 64.408C165.605 64.408 167.341 65.56 168.061 67.864L165.253 68.416C164.885 67.312 164.085 66.76 162.853 66.76C162.325 66.76 161.901 66.864 161.581 67.072C161.277 67.28 161.125 67.552 161.125 67.888C161.125 68.608 161.941 69.072 163.573 69.28C165.141 69.472 166.293 69.864 167.029 70.456C167.781 71.032 168.157 71.832 168.157 72.856ZM169.517 61.96C169.517 61.512 169.685 61.12 170.021 60.784C170.357 60.448 170.749 60.28 171.197 60.28C171.661 60.28 172.053 60.448 172.373 60.784C172.709 61.12 172.877 61.512 172.877 61.96C172.877 62.424 172.709 62.824 172.373 63.16C172.053 63.496 171.661 63.664 171.197 63.664C170.749 63.664 170.357 63.496 170.021 63.16C169.685 62.824 169.517 62.424 169.517 61.96ZM169.781 64.96H172.685V76H169.781V64.96ZM174.633 59.512H177.537V76H174.633V59.512ZM185.051 71.992L187.187 64.96H190.331L185.747 78.016C185.459 78.848 185.019 79.488 184.427 79.936C183.835 80.384 183.171 80.608 182.435 80.608H179.579V77.992H181.307C181.691 77.992 181.979 77.912 182.171 77.752C182.379 77.608 182.539 77.352 182.651 76.984L182.915 76L178.907 64.96H182.027L184.211 71.992L184.451 73.336H184.787L185.051 71.992ZM191.96 75.712C191.656 75.408 191.504 75.032 191.504 74.584C191.504 74.136 191.656 73.76 191.96 73.456C192.264 73.152 192.64 73 193.088 73C193.536 73 193.912 73.152 194.215 73.456C194.52 73.76 194.672 74.136 194.672 74.584C194.672 76.328 194.352 77.576 193.712 78.328C193.088 79.096 192.264 79.48 191.24 79.48L191 77.92C191.864 77.92 192.56 77.736 193.088 77.368C193.616 77 193.936 76.456 194.048 75.736C193.824 76.008 193.504 76.144 193.088 76.144C192.64 76.144 192.264 76 191.96 75.712ZM205.234 67.864C204.754 68.472 204.514 69.336 204.514 70.456C204.514 71.576 204.754 72.44 205.234 73.048C205.714 73.656 206.378 73.96 207.226 73.96C208.074 73.96 208.73 73.656 209.194 73.048C209.674 72.44 209.914 71.576 209.914 70.456C209.914 69.32 209.674 68.448 209.194 67.84C208.73 67.232 208.074 66.928 207.226 66.928C206.378 66.928 205.714 67.24 205.234 67.864ZM201.61 59.512H204.514V64.48L203.722 67.768L204.178 67.96C204.45 66.808 204.93 65.928 205.618 65.32C206.322 64.712 207.186 64.408 208.21 64.408C209.554 64.408 210.658 64.968 211.522 66.088C212.402 67.192 212.842 68.672 212.842 70.528C212.842 72.352 212.426 73.808 211.594 74.896C210.762 75.968 209.666 76.504 208.306 76.504C207.266 76.504 206.394 76.208 205.69 75.616C204.986 75.008 204.49 74.136 204.202 73L203.722 73.192L204.346 76H201.61V59.512ZM224.581 76H222.013L222.445 73.456L221.917 73.288C221.661 74.2 221.205 74.944 220.549 75.52C219.893 76.096 219.117 76.384 218.221 76.384C217.149 76.384 216.253 75.976 215.533 75.16C214.813 74.328 214.453 73.312 214.453 72.112V64.96H217.381V71.848C217.381 72.52 217.573 73.056 217.957 73.456C218.341 73.856 218.853 74.056 219.493 74.056C220.133 74.056 220.653 73.848 221.053 73.432C221.469 73.016 221.677 72.472 221.677 71.8V64.96H224.581V76ZM230.746 67.36V71.968C230.746 72.688 230.834 73.136 231.01 73.312C231.186 73.488 231.594 73.576 232.234 73.576H233.362V76H231.394C230.226 76 229.346 75.728 228.754 75.184C228.162 74.624 227.866 73.632 227.866 72.208V67.36H225.946V64.96H227.866V61.72L230.746 61.456V64.96H233.362V67.36H230.746ZM239.836 64.96H242.428L242.02 67.864L242.428 67.96C242.62 66.872 243.02 66.016 243.628 65.392C244.252 64.768 245.02 64.456 245.932 64.456C246.732 64.456 247.444 64.808 248.068 65.512C248.692 66.2 249.004 67.008 249.004 67.936V68.056L249.412 68.128C249.588 66.976 250.004 66.08 250.66 65.44C251.316 64.784 252.156 64.456 253.18 64.456C254.252 64.456 255.116 64.888 255.772 65.752C256.444 66.616 256.78 67.704 256.78 69.016V76H253.852V69.28C253.852 68.56 253.676 67.992 253.324 67.576C252.972 67.16 252.452 66.952 251.764 66.952C251.14 66.952 250.652 67.168 250.3 67.6C249.948 68.032 249.772 68.608 249.772 69.328V76H246.844V69.28C246.844 68.56 246.668 67.992 246.316 67.576C245.98 67.16 245.5 66.952 244.876 66.952C244.22 66.952 243.7 67.168 243.316 67.6C242.932 68.032 242.74 68.608 242.74 69.328V76H239.836V64.96ZM258.533 61.96C258.533 61.512 258.701 61.12 259.037 60.784C259.373 60.448 259.765 60.28 260.213 60.28C260.677 60.28 261.069 60.448 261.389 60.784C261.725 61.12 261.893 61.512 261.893 61.96C261.893 62.424 261.725 62.824 261.389 63.16C261.069 63.496 260.677 63.664 260.213 63.664C259.765 63.664 259.373 63.496 259.037 63.16C258.701 62.824 258.533 62.424 258.533 61.96ZM258.797 64.96H261.701V76H258.797V64.96ZM263.649 64.96H266.241L265.809 67.816L266.241 67.984C266.449 66.96 266.889 66.12 267.561 65.464C268.249 64.792 269.073 64.456 270.033 64.456C271.089 64.456 271.977 64.88 272.697 65.728C273.417 66.576 273.777 67.616 273.777 68.848V76H270.873V69.112C270.873 68.456 270.673 67.936 270.273 67.552C269.889 67.152 269.385 66.952 268.761 66.952C268.121 66.952 267.593 67.16 267.177 67.576C266.761 67.976 266.553 68.504 266.553 69.16V76H263.649V64.96ZM278.357 71.248C278.421 72.128 278.693 72.8 279.173 73.264C279.653 73.728 280.309 73.96 281.141 73.96C281.765 73.96 282.285 73.808 282.701 73.504C283.133 73.184 283.405 72.752 283.517 72.208L286.349 72.64C286.077 73.84 285.469 74.784 284.525 75.472C283.597 76.16 282.469 76.504 281.141 76.504C279.349 76.504 277.941 75.968 276.917 74.896C275.909 73.808 275.405 72.32 275.405 70.432C275.405 68.576 275.893 67.112 276.869 66.04C277.845 64.952 279.181 64.408 280.877 64.408C282.573 64.408 283.909 64.952 284.885 66.04C285.861 67.112 286.349 68.528 286.349 70.288V71.248H278.357ZM278.405 69.28H283.397C283.397 68.592 283.157 68.032 282.677 67.6C282.197 67.152 281.597 66.928 280.877 66.928C280.173 66.928 279.605 67.136 279.173 67.552C278.757 67.952 278.501 68.528 278.405 69.28ZM57.456 101.856C57.456 102.24 57.608 102.544 57.912 102.768C58.232 102.992 58.664 103.104 59.208 103.104C59.992 103.104 60.632 102.88 61.128 102.432C61.624 101.968 61.872 101.368 61.872 100.632V100.296L59.04 100.536C58.56 100.568 58.176 100.704 57.888 100.944C57.6 101.184 57.456 101.488 57.456 101.856ZM64.8 105H62.184L62.592 102.24L62.184 102.144C61.944 103.184 61.472 104.008 60.768 104.616C60.08 105.208 59.24 105.504 58.248 105.504C57.176 105.504 56.304 105.192 55.632 104.568C54.96 103.928 54.624 103.104 54.624 102.096C54.624 101.136 54.928 100.36 55.536 99.768C56.16 99.176 57.024 98.832 58.128 98.736L61.872 98.4V97.704C61.872 97.176 61.68 96.752 61.296 96.432C60.928 96.096 60.432 95.928 59.808 95.928C59.184 95.928 58.664 96.104 58.248 96.456C57.832 96.808 57.584 97.28 57.504 97.872L54.624 97.464C54.832 96.248 55.408 95.28 56.352 94.56C57.296 93.824 58.456 93.456 59.832 93.456C61.256 93.456 62.44 93.832 63.384 94.584C64.328 95.336 64.8 96.288 64.8 97.44V105ZM66.7971 88.512H69.7011V105H66.7971V88.512ZM79.1829 98.112L77.5749 105H73.7109L71.0709 93.96H74.0469L75.3909 100.272L75.5829 102.096H75.8949L76.1349 100.272L77.6709 93.96H81.3189L82.8789 100.272L83.0949 102.096H83.4069L83.6229 100.272L84.9669 93.96H87.9189L85.3029 105H81.4389L79.8069 98.112L79.6389 96.36H79.3749L79.1829 98.112ZM91.4873 101.856C91.4873 102.24 91.6393 102.544 91.9433 102.768C92.2633 102.992 92.6953 103.104 93.2393 103.104C94.0233 103.104 94.6633 102.88 95.1593 102.432C95.6553 101.968 95.9033 101.368 95.9033 100.632V100.296L93.0713 100.536C92.5913 100.568 92.2073 100.704 91.9193 100.944C91.6313 101.184 91.4873 101.488 91.4873 101.856ZM98.8313 105H96.2153L96.6233 102.24L96.2153 102.144C95.9753 103.184 95.5033 104.008 94.7993 104.616C94.1113 105.208 93.2713 105.504 92.2793 105.504C91.2073 105.504 90.3353 105.192 89.6633 104.568C88.9913 103.928 88.6553 103.104 88.6553 102.096C88.6553 101.136 88.9593 100.36 89.5673 99.768C90.1913 99.176 91.0553 98.832 92.1593 98.736L95.9033 98.4V97.704C95.9033 97.176 95.7113 96.752 95.3273 96.432C94.9593 96.096 94.4633 95.928 93.8393 95.928C93.2153 95.928 92.6953 96.104 92.2793 96.456C91.8633 96.808 91.6153 97.28 91.5353 97.872L88.6553 97.464C88.8633 96.248 89.4393 95.28 90.3833 94.56C91.3273 93.824 92.4873 93.456 93.8633 93.456C95.2873 93.456 96.4713 93.832 97.4153 94.584C98.3593 95.336 98.8313 96.288 98.8313 97.44V105ZM106.067 100.992L108.203 93.96H111.347L106.763 107.016C106.475 107.848 106.035 108.488 105.443 108.936C104.851 109.384 104.187 109.608 103.451 109.608H100.595V106.992H102.323C102.707 106.992 102.995 106.912 103.187 106.752C103.395 106.608 103.555 106.352 103.667 105.984L103.931 105L99.9225 93.96H103.043L105.227 100.992L105.467 102.336H105.803L106.067 100.992ZM122.149 101.856C122.149 102.976 121.725 103.88 120.877 104.568C120.029 105.24 118.901 105.576 117.493 105.576C116.069 105.576 114.877 105.248 113.917 104.592C112.957 103.92 112.341 103 112.069 101.832L114.853 101.424C115.237 102.624 116.093 103.224 117.421 103.224C117.965 103.224 118.405 103.112 118.741 102.888C119.077 102.664 119.245 102.368 119.245 102C119.245 101.152 118.349 100.64 116.557 100.464C115.181 100.336 114.109 99.96 113.341 99.336C112.589 98.712 112.213 97.896 112.213 96.888C112.213 95.816 112.629 94.968 113.461 94.344C114.293 93.72 115.421 93.408 116.845 93.408C119.597 93.408 121.333 94.56 122.053 96.864L119.245 97.416C118.877 96.312 118.077 95.76 116.845 95.76C116.317 95.76 115.893 95.864 115.573 96.072C115.269 96.28 115.117 96.552 115.117 96.888C115.117 97.608 115.933 98.072 117.565 98.28C119.133 98.472 120.285 98.864 121.021 99.456C121.773 100.032 122.149 100.832 122.149 101.856ZM128.642 90.96C128.642 90.512 128.81 90.12 129.146 89.784C129.482 89.448 129.874 89.28 130.322 89.28C130.786 89.28 131.178 89.448 131.498 89.784C131.834 90.12 132.002 90.512 132.002 90.96C132.002 91.424 131.834 91.824 131.498 92.16C131.178 92.496 130.786 92.664 130.322 92.664C129.874 92.664 129.482 92.496 129.146 92.16C128.81 91.824 128.642 91.424 128.642 90.96ZM128.906 93.96H131.81V105.648C131.81 106.8 131.426 107.72 130.658 108.408C129.89 109.096 128.866 109.44 127.586 109.44H126.506V106.68H127.586C127.954 106.68 128.266 106.52 128.522 106.2C128.778 105.896 128.906 105.52 128.906 105.072V93.96ZM136.206 101.856C136.206 102.24 136.358 102.544 136.662 102.768C136.982 102.992 137.414 103.104 137.958 103.104C138.742 103.104 139.382 102.88 139.878 102.432C140.374 101.968 140.622 101.368 140.622 100.632V100.296L137.79 100.536C137.31 100.568 136.926 100.704 136.638 100.944C136.35 101.184 136.206 101.488 136.206 101.856ZM143.55 105H140.934L141.342 102.24L140.934 102.144C140.694 103.184 140.222 104.008 139.518 104.616C138.83 105.208 137.99 105.504 136.998 105.504C135.926 105.504 135.054 105.192 134.382 104.568C133.71 103.928 133.374 103.104 133.374 102.096C133.374 101.136 133.678 100.36 134.286 99.768C134.91 99.176 135.774 98.832 136.878 98.736L140.622 98.4V97.704C140.622 97.176 140.43 96.752 140.046 96.432C139.678 96.096 139.182 95.928 138.558 95.928C137.934 95.928 137.414 96.104 136.998 96.456C136.582 96.808 136.334 97.28 136.254 97.872L133.374 97.464C133.582 96.248 134.158 95.28 135.102 94.56C136.046 93.824 137.206 93.456 138.582 93.456C140.006 93.456 141.19 93.832 142.134 94.584C143.078 95.336 143.55 96.288 143.55 97.44V105ZM145.547 93.96H148.139L147.731 96.864L148.139 96.96C148.331 95.872 148.731 95.016 149.339 94.392C149.963 93.768 150.731 93.456 151.643 93.456C152.443 93.456 153.155 93.808 153.779 94.512C154.403 95.2 154.715 96.008 154.715 96.936V97.056L155.123 97.128C155.299 95.976 155.715 95.08 156.371 94.44C157.027 93.784 157.867 93.456 158.891 93.456C159.963 93.456 160.827 93.888 161.483 94.752C162.155 95.616 162.491 96.704 162.491 98.016V105H159.563V98.28C159.563 97.56 159.387 96.992 159.035 96.576C158.683 96.16 158.163 95.952 157.475 95.952C156.851 95.952 156.363 96.168 156.011 96.6C155.659 97.032 155.483 97.608 155.483 98.328V105H152.555V98.28C152.555 97.56 152.379 96.992 152.027 96.576C151.691 96.16 151.211 95.952 150.587 95.952C149.931 95.952 149.411 96.168 149.027 96.6C148.643 97.032 148.451 97.608 148.451 98.328V105H145.547V93.96ZM172.185 99.432C172.185 100.568 172.409 101.44 172.857 102.048C173.305 102.656 173.929 102.96 174.729 102.96C175.529 102.96 176.153 102.656 176.601 102.048C177.049 101.44 177.273 100.568 177.273 99.432C177.273 98.312 177.049 97.448 176.601 96.84C176.153 96.232 175.529 95.928 174.729 95.928C173.929 95.928 173.305 96.232 172.857 96.84C172.409 97.448 172.185 98.312 172.185 99.432ZM169.257 99.432C169.257 97.528 169.745 96.048 170.721 94.992C171.713 93.936 173.049 93.408 174.729 93.408C176.297 93.408 177.601 93.944 178.641 95.016C179.681 96.088 180.201 97.56 180.201 99.432C180.201 101.352 179.705 102.848 178.713 103.92C177.721 104.976 176.385 105.504 174.705 105.504C173.041 105.504 171.713 104.976 170.721 103.92C169.745 102.848 169.257 101.352 169.257 99.432ZM181.828 93.96H184.42L183.988 96.816L184.42 96.984C184.628 95.96 185.068 95.12 185.74 94.464C186.428 93.792 187.252 93.456 188.212 93.456C189.268 93.456 190.156 93.88 190.876 94.728C191.596 95.576 191.956 96.616 191.956 97.848V105H189.052V98.112C189.052 97.456 188.852 96.936 188.452 96.552C188.068 96.152 187.564 95.952 186.94 95.952C186.3 95.952 185.772 96.16 185.356 96.576C184.94 96.976 184.732 97.504 184.732 98.16V105H181.828V93.96ZM203.254 96.36V100.968C203.254 101.688 203.342 102.136 203.518 102.312C203.694 102.488 204.102 102.576 204.742 102.576H205.87V105H203.902C202.734 105 201.854 104.728 201.262 104.184C200.67 103.624 200.374 102.632 200.374 101.208V96.36H198.454V93.96H200.374V90.72L203.254 90.456V93.96H205.87V96.36H203.254ZM210.115 93.48L209.371 96.816L209.827 96.984C210.035 95.96 210.475 95.12 211.147 94.464C211.819 93.792 212.635 93.456 213.595 93.456C214.651 93.456 215.539 93.88 216.259 94.728C216.979 95.576 217.339 96.616 217.339 97.848V105H214.435V98.112C214.435 97.456 214.235 96.936 213.835 96.552C213.451 96.152 212.947 95.952 212.323 95.952C211.683 95.952 211.155 96.16 210.739 96.576C210.323 96.976 210.115 97.504 210.115 98.16V105H207.211V88.512H210.115V93.48ZM221.92 100.248C221.984 101.128 222.256 101.8 222.736 102.264C223.216 102.728 223.872 102.96 224.704 102.96C225.328 102.96 225.848 102.808 226.264 102.504C226.696 102.184 226.968 101.752 227.08 101.208L229.912 101.64C229.64 102.84 229.032 103.784 228.088 104.472C227.16 105.16 226.032 105.504 224.704 105.504C222.912 105.504 221.504 104.968 220.48 103.896C219.472 102.808 218.968 101.32 218.968 99.432C218.968 97.576 219.456 96.112 220.432 95.04C221.408 93.952 222.744 93.408 224.44 93.408C226.136 93.408 227.472 93.952 228.448 95.04C229.424 96.112 229.912 97.528 229.912 99.288V100.248H221.92ZM221.968 98.28H226.96C226.96 97.592 226.72 97.032 226.24 96.6C225.76 96.152 225.16 95.928 224.44 95.928C223.736 95.928 223.168 96.136 222.736 96.552C222.32 96.952 222.064 97.528 221.968 98.28ZM240.824 96.36V100.968C240.824 101.688 240.912 102.136 241.088 102.312C241.264 102.488 241.672 102.576 242.312 102.576H243.44V105H241.472C240.304 105 239.424 104.728 238.832 104.184C238.24 103.624 237.944 102.632 237.944 101.208V96.36H236.024V93.96H237.944V90.72L240.824 90.456V93.96H243.44V96.36H240.824ZM247.229 101.856C247.229 102.24 247.381 102.544 247.685 102.768C248.005 102.992 248.437 103.104 248.981 103.104C249.765 103.104 250.405 102.88 250.901 102.432C251.397 101.968 251.645 101.368 251.645 100.632V100.296L248.813 100.536C248.333 100.568 247.949 100.704 247.661 100.944C247.373 101.184 247.229 101.488 247.229 101.856ZM254.573 105H251.957L252.365 102.24L251.957 102.144C251.717 103.184 251.245 104.008 250.541 104.616C249.853 105.208 249.013 105.504 248.021 105.504C246.949 105.504 246.077 105.192 245.405 104.568C244.733 103.928 244.397 103.104 244.397 102.096C244.397 101.136 244.701 100.36 245.309 99.768C245.933 99.176 246.797 98.832 247.901 98.736L251.645 98.4V97.704C251.645 97.176 251.453 96.752 251.069 96.432C250.701 96.096 250.205 95.928 249.581 95.928C248.957 95.928 248.437 96.104 248.021 96.456C247.605 96.808 247.357 97.28 247.277 97.872L244.397 97.464C244.605 96.248 245.181 95.28 246.125 94.56C247.069 93.824 248.229 93.456 249.605 93.456C251.029 93.456 252.213 93.832 253.157 94.584C254.101 95.336 254.573 96.288 254.573 97.44V105ZM259.499 99.504C259.499 100.64 259.739 101.512 260.219 102.12C260.699 102.728 261.363 103.032 262.211 103.032C263.059 103.032 263.715 102.728 264.179 102.12C264.659 101.512 264.899 100.64 264.899 99.504C264.899 98.368 264.659 97.496 264.179 96.888C263.715 96.28 263.059 95.976 262.211 95.976C261.363 95.976 260.699 96.28 260.219 96.888C259.739 97.496 259.499 98.368 259.499 99.504ZM256.571 109.704V93.96H259.163L258.707 96.768L259.163 96.96C259.451 95.824 259.931 94.96 260.603 94.368C261.275 93.76 262.115 93.456 263.123 93.456C264.515 93.456 265.643 93.992 266.507 95.064C267.387 96.136 267.827 97.592 267.827 99.432C267.827 101.352 267.363 102.856 266.435 103.944C265.507 105.016 264.363 105.552 263.003 105.552C262.027 105.552 261.211 105.248 260.555 104.64C259.899 104.032 259.435 103.152 259.163 102L258.683 102.192L259.499 105.48V109.704H256.571ZM272.029 100.248C272.093 101.128 272.365 101.8 272.845 102.264C273.325 102.728 273.981 102.96 274.813 102.96C275.437 102.96 275.957 102.808 276.373 102.504C276.805 102.184 277.077 101.752 277.189 101.208L280.021 101.64C279.749 102.84 279.141 103.784 278.197 104.472C277.269 105.16 276.141 105.504 274.813 105.504C273.021 105.504 271.613 104.968 270.589 103.896C269.581 102.808 269.077 101.32 269.077 99.432C269.077 97.576 269.565 96.112 270.541 95.04C271.517 93.952 272.853 93.408 274.549 93.408C276.245 93.408 277.581 93.952 278.557 95.04C279.533 96.112 280.021 97.528 280.021 99.288V100.248H272.029ZM272.077 98.28H277.069C277.069 97.592 276.829 97.032 276.349 96.6C275.869 96.152 275.269 95.928 274.549 95.928C273.845 95.928 273.277 96.136 272.845 96.552C272.429 96.952 272.173 97.528 272.077 98.28ZM287.649 101.136H285.417V97.704C286.585 97.144 287.417 96.592 287.913 96.048C288.409 95.504 288.657 94.824 288.657 94.008C288.657 93.224 288.457 92.624 288.057 92.208C287.657 91.776 287.097 91.56 286.377 91.56C285.033 91.56 284.233 92.312 283.977 93.816L281.241 93.264C281.449 91.904 281.993 90.856 282.873 90.12C283.769 89.368 284.929 88.992 286.353 88.992C287.937 88.992 289.193 89.44 290.121 90.336C291.065 91.232 291.537 92.44 291.537 93.96C291.537 95.096 291.225 96.064 290.601 96.864C289.993 97.664 289.009 98.424 287.649 99.144V101.136ZM285.033 103.92C285.033 104.352 285.177 104.712 285.465 105C285.769 105.304 286.145 105.456 286.593 105.456C287.057 105.456 287.433 105.304 287.721 105C288.025 104.712 288.177 104.352 288.177 103.92C288.177 103.472 288.025 103.096 287.721 102.792C287.417 102.488 287.041 102.336 286.593 102.336C286.161 102.336 285.793 102.488 285.489 102.792C285.185 103.096 285.033 103.472 285.033 103.92Z" fill="#161616"/>
<path d="M0 24L33 43.0526L33 4.94744L0 24Z" fill="#C2FD5C"/>
</svg>
